M48
; DRILL file {KiCad 7.99.0-unknown-e01ef0a38d~172~ubuntu23.04.1} date 2023-10-19T21:10:57-0400
; FORMAT={-:-/ absolute / inch / decimal}
; #@! TF.CreationDate,2023-10-19T21:10:57-04:00
; #@! TF.GenerationSoftware,Kicad,Pcbnew,7.99.0-unknown-e01ef0a38d~172~ubuntu23.04.1
; #@! TF.FileFunction,NonPlated,1,4,NPTH
FMAT,2
INCH
; #@! TA.AperFunction,NonPlated,NPTH,ComponentDrill
T1C0.0390
; #@! TA.AperFunction,NonPlated,NPTH,ComponentDrill
T2C0.0689
; #@! TA.AperFunction,NonPlated,NPTH,ComponentDrill
T3C0.1570
%
G90
G05
T1
X2.3381Y-3.4281
X2.3781Y-3.2281
X2.4181Y-3.4281
T2
X1.6625Y-1.4531
X1.6625Y-3.7031
X1.7562Y-2.2031
X1.9437Y-2.9531
X2.0625Y-1.4531
X2.0625Y-3.7031
X2.1562Y-2.2031
X2.3438Y-2.9531
X2.4125Y-1.4531
X2.4125Y-3.7031
X2.6Y-2.2031
X2.6Y-3.7031
X2.8125Y-1.4531
X2.8125Y-3.7031
X2.975Y-2.9531
X3.0Y-2.2031
X3.0Y-3.7031
X3.1625Y-1.4531
X3.1625Y-3.7031
X3.35Y-2.2031
X3.375Y-2.9531
X3.5375Y-3.7031
X3.5625Y-1.4531
X3.5625Y-3.7031
X3.725Y-2.9531
X3.75Y-2.2031
X3.9125Y-1.4531
X3.9375Y-3.7031
X4.1Y-2.2031
X4.125Y-2.9531
X4.3125Y-1.4531
X4.475Y-2.9531
X4.5Y-2.2031
X4.6625Y-1.4531
X4.6625Y-3.7031
X4.85Y-2.2031
X4.875Y-2.9531
X4.9437Y-3.7031
X5.0625Y-1.4531
X5.0625Y-3.7031
X5.225Y-2.9531
X5.25Y-2.2031
X5.3438Y-3.7031
X5.4125Y-1.4531
X5.6Y-2.2031
X5.625Y-2.9531
X5.7875Y-3.7031
X5.8125Y-1.4531
X5.975Y-2.9531
X6.0Y-2.2031
X6.1625Y-1.4531
X6.1875Y-3.7031
X6.35Y-2.2031
X6.375Y-2.9531
X6.5625Y-1.4531
X6.725Y-2.9531
X6.75Y-2.2031
X6.8187Y-3.7031
X6.9125Y-1.4531
X6.9125Y-3.7031
X7.1Y-2.2031
X7.125Y-2.9531
X7.2188Y-3.7031
X7.3125Y-1.4531
X7.3125Y-3.7031
X7.475Y-2.9531
X7.5Y-2.2031
X7.6625Y-1.4531
X7.85Y-2.2031
X7.875Y-2.9531
X8.0375Y-3.7031
X8.0625Y-1.4531
X8.225Y-2.9531
X8.25Y-2.2031
X8.4125Y-1.4531
X8.4125Y-3.7031
X8.4375Y-3.7031
X8.6Y-2.2031
X8.625Y-2.9531
X8.8125Y-1.4531
X8.8125Y-3.7031
X8.975Y-2.9531
X8.975Y-3.7031
X9.0Y-2.2031
X9.1625Y-1.4531
X9.1625Y-3.7031
X9.375Y-2.9531
X9.375Y-3.7031
X9.4437Y-2.9531
X9.5625Y-1.4531
X9.5625Y-3.7031
X9.6312Y-2.2031
X9.8187Y-2.9531
X9.8438Y-2.9531
X9.9125Y-1.4531
X9.9125Y-3.7031
X10.0312Y-2.2031
X10.2188Y-2.9531
X10.3125Y-1.4531
X10.3125Y-3.7031
T3
X1.8625Y-1.4531
X1.8625Y-1.4531
X1.8625Y-3.7031
X1.9563Y-2.2031
X2.1437Y-2.9531
X2.6125Y-1.4531
X2.6125Y-3.7031
X2.8Y-2.2031
X2.8Y-3.7031
X3.175Y-2.9531
X3.3625Y-1.4531
X3.3625Y-3.7031
X3.55Y-2.2031
X3.7375Y-3.3781
X3.7375Y-3.3781
X3.7375Y-3.7031
X3.925Y-2.9531
X4.1125Y-1.4531
X4.1125Y-3.3781
X4.3Y-2.2031
X4.675Y-2.9531
X4.675Y-3.3781
X4.8625Y-1.4531
X4.8625Y-3.7031
X5.05Y-2.2031
X5.1437Y-3.7031
X5.425Y-2.9531
X5.6125Y-1.4531
X5.6125Y-3.3781
X5.6125Y-3.3781
X5.8Y-2.2031
X5.9875Y-3.7031
X6.175Y-2.9531
X6.3625Y-1.4531
X6.3625Y-3.3781
X6.55Y-2.2031
X6.55Y-3.3781
X6.925Y-2.9531
X7.0187Y-3.7031
X7.1125Y-1.4531
X7.1125Y-3.7031
X7.3Y-2.2031
X7.4875Y-3.3781
X7.675Y-2.9531
X7.8625Y-1.4531
X7.8625Y-3.3781
X8.05Y-2.2031
X8.2375Y-3.3781
X8.2375Y-3.3781
X8.2375Y-3.7031
X8.425Y-2.9531
X8.6125Y-1.4531
X8.6125Y-3.7031
X8.8Y-2.2031
X9.175Y-2.6281
X9.175Y-2.9531
X9.175Y-3.7031
X9.3625Y-1.4531
X9.3625Y-3.7031
X9.6437Y-2.9531
X9.8312Y-2.2031
X10.0187Y-2.9531
X10.1125Y-1.4531
X10.1125Y-1.4531
X10.1125Y-2.6281
X10.1125Y-3.7031
T0
M30
