%TF.GenerationSoftware,KiCad,Pcbnew,7.0.6-7.0.6~ubuntu23.04.1*%
%TF.CreationDate,2023-08-05T22:50:07-04:00*%
%TF.ProjectId,Koneko40Stagger,4b6f6e65-6b6f-4343-9053-746167676572,rev?*%
%TF.SameCoordinates,Original*%
%TF.FileFunction,Profile,NP*%
%FSLAX46Y46*%
G04 Gerber Fmt 4.6, Leading zero omitted, Abs format (unit mm)*
G04 Created by KiCad (PCBNEW 7.0.6-7.0.6~ubuntu23.04.1) date 2023-08-05 22:50:07*
%MOMM*%
%LPD*%
G01*
G04 APERTURE LIST*
%TA.AperFunction,Profile*%
%ADD10C,0.250000*%
%TD*%
G04 APERTURE END LIST*
D10*
X232185408Y-101872837D02*
G75*
G03*
X225879592Y-101872837I-3152908J-2461537D01*
G01*
X225879592Y-29095913D02*
G75*
G03*
X232185408Y-29095913I3152908J2461537D01*
G01*
X85996714Y-103634375D02*
X218168286Y-103634375D01*
X78285408Y-101872837D02*
G75*
G03*
X71979592Y-101872837I-3152908J-2461537D01*
G01*
X80255975Y-102834375D02*
X84368286Y-102834375D01*
X71979586Y-29095918D02*
G75*
G03*
X70009025Y-28134375I-1970486J-1538282D01*
G01*
X265632500Y-97834375D02*
X265632500Y-33134375D01*
X219796714Y-102834375D02*
X223909025Y-102834375D01*
X234155975Y-28134408D02*
G75*
G03*
X232185409Y-29095913I-175J-2499692D01*
G01*
X225879613Y-29095897D02*
G75*
G03*
X223909025Y-28134375I-1970713J-1538803D01*
G01*
X223909025Y-102834404D02*
G75*
G03*
X225879592Y-101872837I-25J2500004D01*
G01*
X219796714Y-102834351D02*
G75*
G03*
X219089607Y-103127268I86J-1000149D01*
G01*
X85075393Y-103127268D02*
X85289607Y-103341482D01*
X43532500Y-28134370D02*
G75*
G03*
X38532500Y-33134375I-10J-4999990D01*
G01*
X70009025Y-28134375D02*
X43532500Y-28134375D01*
X223909025Y-28134375D02*
X80255975Y-28134375D01*
X85075405Y-103127256D02*
G75*
G03*
X84368286Y-102834375I-707105J-707144D01*
G01*
X232185402Y-101872841D02*
G75*
G03*
X234155975Y-102834375I1970698J1538741D01*
G01*
X260632500Y-102834400D02*
G75*
G03*
X265632500Y-97834375I-100J5000100D01*
G01*
X219089607Y-103127268D02*
X218875393Y-103341482D01*
X70009025Y-102834406D02*
G75*
G03*
X71979592Y-101872837I-125J2500206D01*
G01*
X234155975Y-102834375D02*
X260632500Y-102834375D01*
X218168286Y-103634372D02*
G75*
G03*
X218875392Y-103341481I14J999972D01*
G01*
X38532525Y-97834375D02*
G75*
G03*
X43532500Y-102834375I4999975J-25D01*
G01*
X260632500Y-28134375D02*
X234155975Y-28134375D01*
X80255975Y-28134406D02*
G75*
G03*
X78285409Y-29095913I-75J-2499894D01*
G01*
X78285430Y-101872820D02*
G75*
G03*
X80255975Y-102834375I1970470J1538220D01*
G01*
X38532500Y-33134375D02*
X38532500Y-97834375D01*
X71979592Y-29095913D02*
G75*
G03*
X78285408Y-29095913I3152908J2461537D01*
G01*
X43532500Y-102834375D02*
X70009025Y-102834375D01*
X85289605Y-103341484D02*
G75*
G03*
X85996714Y-103634375I707095J707084D01*
G01*
X265632525Y-33134375D02*
G75*
G03*
X260632500Y-28134375I-4999925J75D01*
G01*
M02*
