M48
; DRILL file {KiCad 7.99.0-unknown-e01ef0a38d~172~ubuntu23.04.1} date 2023-10-19T21:10:57-0400
; FORMAT={-:-/ absolute / inch / decimal}
; #@! TF.CreationDate,2023-10-19T21:10:57-04:00
; #@! TF.GenerationSoftware,Kicad,Pcbnew,7.99.0-unknown-e01ef0a38d~172~ubuntu23.04.1
; #@! TF.FileFunction,Plated,1,4,PTH
FMAT,2
INCH
; #@! TA.AperFunction,Plated,PTH,ViaDrill
T1C0.0118
; #@! TA.AperFunction,Plated,PTH,ComponentDrill
T2C0.0118
; #@! TA.AperFunction,Plated,PTH,ComponentDrill
T3C0.0256
; #@! TA.AperFunction,Plated,PTH,ComponentDrill
T4C0.0600
; #@! TA.AperFunction,Plated,PTH,ComponentDrill
T5C0.1200
%
G90
G05
T1
X1.5595Y-1.5809
X1.6162Y-2.8592
X1.6572Y-1.5915
X1.7422Y-1.6577
X1.7509Y-3.8907
X1.7714Y-3.0462
X1.8485Y-2.3907
X2.034Y-3.1407
X2.0733Y-1.6108
X2.0741Y-1.512
X2.2611Y-3.1407
X2.2812Y-3.8907
X2.3005Y-2.8584
X2.3218Y-3.3285
X2.3355Y-2.821
X2.3481Y-2.3907
X2.367Y-2.8195
X2.384Y-1.6407
X2.3902Y-2.8588
X2.4139Y-2.5986
X2.4355Y-3.2781
X2.4371Y-3.3781
X2.4418Y-2.6632
X2.4481Y-3.0293
X2.4556Y-3.2124
X2.4646Y-2.4895
X2.4824Y-3.0766
X2.4883Y-2.6258
X2.5017Y-1.6407
X2.5044Y-2.4895
X2.5048Y-3.8907
X2.5292Y-3.108
X2.569Y-3.001
X2.569Y-3.108
X2.5745Y-3.3533
X2.5749Y-2.4884
X2.5749Y-2.5789
X2.6142Y-2.4884
X2.6142Y-2.5789
X2.6261Y-2.9195
X2.6296Y-3.2695
X2.6536Y-2.4884
X2.6611Y-3.2356
X2.6906Y-2.3907
X2.7091Y-3.2199
X2.7224Y-2.6837
X2.782Y-2.7163
X2.7824Y-2.858
X2.7997Y-2.5935
X2.7997Y-2.6313
X2.8387Y-2.6726
X2.8721Y-2.7163
X2.8721Y-2.8573
X3.0643Y-3.1407
X3.141Y-2.771
X3.2206Y-1.8951
X3.2517Y-1.6407
X3.2525Y-3.8907
X3.2592Y-2.6136
X3.3245Y-1.8415
X3.3257Y-1.7667
X3.3379Y-3.0466
X3.3855Y-1.7852
X3.4166Y-2.7317
X3.4406Y-2.3907
X3.8155Y-3.1403
X4.0017Y-1.6407
X4.1906Y-2.3907
X4.5682Y-3.1407
X4.7517Y-1.6407
X4.9406Y-2.3907
X5.0304Y-3.8907
X5.319Y-3.1407
X5.5017Y-1.6407
X5.6906Y-2.3907
X5.8765Y-3.8907
X6.0651Y-3.1403
X6.2517Y-1.6407
X6.4406Y-2.3907
X6.8139Y-3.1407
X6.9993Y-3.8907
X7.0017Y-1.6407
X7.1906Y-2.3907
X7.5568Y-3.1407
X7.7517Y-1.6407
X7.9406Y-2.3907
X8.3182Y-3.1407
X8.4926Y-3.8903
X8.5017Y-1.6407
X8.6906Y-2.3907
X9.2517Y-1.6407
X9.2521Y-3.8907
X9.2973Y-3.1407
X9.704Y-1.4718
X9.7162Y-3.1407
X9.7206Y-2.3903
X9.8462Y-1.5254
X9.9143Y-1.5116
X10.0001Y-1.6486
X10.0036Y-3.8903
X10.2501Y-1.6679
X10.3265Y-1.5423
T2
X2.7165Y-2.6124
T3
X1.675Y-2.8594
X1.675Y-3.0469
X1.725Y-2.8594
X1.725Y-3.0469
T4
X1.7125Y-1.3531
X1.7125Y-3.6031
X1.8062Y-2.1031
X1.9625Y-1.2531
X1.9625Y-3.5031
X1.9937Y-2.8531
X2.0562Y-2.0031
X2.2437Y-2.7531
X2.4625Y-1.3531
X2.4625Y-3.6031
X2.65Y-2.1031
X2.65Y-3.6031
X2.7125Y-1.2531
X2.7125Y-3.5031
X2.9Y-2.0031
X2.9Y-3.5031
X3.025Y-2.8531
X3.2125Y-1.3531
X3.2125Y-3.6031
X3.275Y-2.7531
X3.4Y-2.1031
X3.4625Y-1.2531
X3.4625Y-3.5031
X3.5875Y-3.6031
X3.65Y-2.0031
X3.775Y-2.8531
X3.8375Y-3.5031
X3.9625Y-1.3531
X4.025Y-2.7531
X4.15Y-2.1031
X4.2125Y-1.2531
X4.4Y-2.0031
X4.525Y-2.8531
X4.7125Y-1.3531
X4.7125Y-3.6031
X4.775Y-2.7531
X4.9Y-2.1031
X4.9625Y-1.2531
X4.9625Y-3.5031
X4.9937Y-3.6031
X5.15Y-2.0031
X5.2437Y-3.5031
X5.275Y-2.8531
X5.4625Y-1.3531
X5.525Y-2.7531
X5.65Y-2.1031
X5.7125Y-1.2531
X5.8375Y-3.6031
X5.9Y-2.0031
X6.025Y-2.8531
X6.0875Y-3.5031
X6.2125Y-1.3531
X6.275Y-2.7531
X6.4Y-2.1031
X6.4625Y-1.2531
X6.65Y-2.0031
X6.775Y-2.8531
X6.8687Y-3.6031
X6.9625Y-1.3531
X6.9625Y-3.6031
X7.025Y-2.7531
X7.1187Y-3.5031
X7.15Y-2.1031
X7.2125Y-1.2531
X7.2125Y-3.5031
X7.4Y-2.0031
X7.525Y-2.8531
X7.7125Y-1.3531
X7.775Y-2.7531
X7.9Y-2.1031
X7.9625Y-1.2531
X8.0875Y-3.6031
X8.15Y-2.0031
X8.275Y-2.8531
X8.3375Y-3.5031
X8.4625Y-1.3531
X8.4625Y-3.6031
X8.525Y-2.7531
X8.65Y-2.1031
X8.7125Y-1.2531
X8.7125Y-3.5031
X8.9Y-2.0031
X9.025Y-2.8531
X9.025Y-3.6031
X9.2125Y-1.3531
X9.2125Y-3.6031
X9.275Y-2.7531
X9.275Y-3.5031
X9.4625Y-1.2531
X9.4625Y-3.5031
X9.4938Y-2.8531
X9.6813Y-2.1031
X9.7438Y-2.7531
X9.8688Y-2.8531
X9.9313Y-2.0031
X9.9625Y-1.3531
X9.9625Y-3.6031
X10.1188Y-2.7531
X10.2125Y-1.2531
X10.2125Y-3.5031
T5
X3.7375Y-3.9781
X3.7375Y-3.9781
X4.1125Y-3.9781
X4.675Y-3.9781
X5.6125Y-3.9781
X5.6125Y-3.9781
X6.3625Y-3.9781
X6.55Y-3.9781
X7.4875Y-3.9781
X7.8625Y-3.9781
X8.2375Y-3.9781
X8.2375Y-3.9781
X9.175Y-3.2281
X10.1125Y-3.2281
T0
M30
