%TF.GenerationSoftware,KiCad,Pcbnew,7.0.6-7.0.6~ubuntu23.04.1*%
%TF.CreationDate,2023-08-05T22:50:07-04:00*%
%TF.ProjectId,Koneko40Stagger,4b6f6e65-6b6f-4343-9053-746167676572,rev?*%
%TF.SameCoordinates,Original*%
%TF.FileFunction,Soldermask,Top*%
%TF.FilePolarity,Negative*%
%FSLAX46Y46*%
G04 Gerber Fmt 4.6, Leading zero omitted, Abs format (unit mm)*
G04 Created by KiCad (PCBNEW 7.0.6-7.0.6~ubuntu23.04.1) date 2023-08-05 22:50:07*
%MOMM*%
%LPD*%
G01*
G04 APERTURE LIST*
%ADD10C,1.750000*%
%ADD11C,3.987800*%
%ADD12C,1.500000*%
%ADD13C,0.990600*%
G04 APERTURE END LIST*
D10*
%TO.C,SW32*%
X208915000Y-75009375D03*
D11*
X213995000Y-75009375D03*
D10*
X219075000Y-75009375D03*
%TD*%
%TO.C,SW39*%
X89852500Y-94059375D03*
D11*
X94932500Y-94059375D03*
D10*
X100012500Y-94059375D03*
%TD*%
D11*
%TO.C,S2*%
X209232500Y-85804375D03*
X94932500Y-85804375D03*
%TD*%
D10*
%TO.C,SW16*%
X104140000Y-55959375D03*
D11*
X109220000Y-55959375D03*
D10*
X114300000Y-55959375D03*
%TD*%
%TO.C,SW46*%
X175577500Y-94059375D03*
D11*
X180657500Y-94059375D03*
D10*
X185737500Y-94059375D03*
%TD*%
%TO.C,SW11*%
X232727500Y-36909375D03*
D11*
X237807500Y-36909375D03*
D10*
X242887500Y-36909375D03*
%TD*%
D11*
%TO.C,SW44*%
X256857500Y-36909375D03*
D12*
X260357500Y-40909375D03*
X260357500Y-38409375D03*
X253357500Y-38409375D03*
X253357500Y-40909375D03*
%TD*%
D10*
%TO.C,SW8*%
X175577500Y-36909375D03*
D11*
X180657500Y-36909375D03*
D10*
X185737500Y-36909375D03*
%TD*%
%TO.C,SW22*%
X218440000Y-55959375D03*
D11*
X223520000Y-55959375D03*
D10*
X228600000Y-55959375D03*
%TD*%
%TO.C,SW28*%
X132715000Y-75009375D03*
D11*
X137795000Y-75009375D03*
D10*
X142875000Y-75009375D03*
%TD*%
%TO.C,SW49*%
X227965000Y-94059375D03*
D11*
X233045000Y-94059375D03*
D10*
X238125000Y-94059375D03*
%TD*%
%TO.C,SW48*%
X232727500Y-94059375D03*
D11*
X237807500Y-94059375D03*
D10*
X242887500Y-94059375D03*
%TD*%
D11*
%TO.C,S1*%
X209232500Y-85804375D03*
X94932500Y-85804375D03*
%TD*%
D10*
%TO.C,SW45*%
X173196250Y-94059375D03*
D11*
X178276250Y-94059375D03*
D10*
X183356250Y-94059375D03*
%TD*%
%TO.C,SW10*%
X213677500Y-36909375D03*
D11*
X218757500Y-36909375D03*
D10*
X223837500Y-36909375D03*
%TD*%
D11*
%TO.C,S3*%
X199707500Y-85804375D03*
X161607500Y-85804375D03*
%TD*%
D10*
%TO.C,SW34*%
X249396250Y-75009375D03*
D11*
X254476250Y-75009375D03*
D10*
X259556250Y-75009375D03*
%TD*%
%TO.C,SW29*%
X151765000Y-75009375D03*
D11*
X156845000Y-75009375D03*
D10*
X161925000Y-75009375D03*
%TD*%
%TO.C,SW19*%
X161290000Y-55959375D03*
D11*
X166370000Y-55959375D03*
D10*
X171450000Y-55959375D03*
%TD*%
%TO.C,SW4*%
X99377500Y-36909375D03*
D11*
X104457500Y-36909375D03*
D10*
X109537500Y-36909375D03*
%TD*%
%TO.C,SW47*%
X204152500Y-94059375D03*
D11*
X209232500Y-94059375D03*
D10*
X214312500Y-94059375D03*
%TD*%
%TO.C,SW9*%
X194627500Y-36909375D03*
D11*
X199707500Y-36909375D03*
D10*
X204787500Y-36909375D03*
%TD*%
D11*
%TO.C,S4*%
X190182500Y-85804375D03*
X166370000Y-85804375D03*
%TD*%
D10*
%TO.C,SW1*%
X42227500Y-36909375D03*
D11*
X47307500Y-36909375D03*
D10*
X52387500Y-36909375D03*
%TD*%
%TO.C,SW36*%
X61277500Y-94059375D03*
D11*
X66357500Y-94059375D03*
D10*
X71437500Y-94059375D03*
%TD*%
%TO.C,SW33*%
X227965000Y-75009375D03*
D11*
X233045000Y-75009375D03*
D10*
X238125000Y-75009375D03*
%TD*%
%TO.C,SW52*%
X239871250Y-75009375D03*
D11*
X244951250Y-75009375D03*
D10*
X250031250Y-75009375D03*
%TD*%
%TO.C,SW3*%
X80327500Y-36909375D03*
D11*
X85407500Y-36909375D03*
D10*
X90487500Y-36909375D03*
%TD*%
D11*
%TO.C,S41*%
X142557500Y-85804375D03*
X118745000Y-85804375D03*
%TD*%
%TO.C,S40*%
X142557500Y-85804375D03*
X104457500Y-85804375D03*
%TD*%
D10*
%TO.C,SW27*%
X113665000Y-75009375D03*
D11*
X118745000Y-75009375D03*
D10*
X123825000Y-75009375D03*
%TD*%
%TO.C,SW12*%
X251777500Y-36909375D03*
D11*
X256857500Y-36909375D03*
D10*
X261937500Y-36909375D03*
%TD*%
%TO.C,SW50*%
X213677500Y-94059375D03*
D11*
X218757500Y-94059375D03*
D10*
X223837500Y-94059375D03*
%TD*%
%TO.C,SW35*%
X42227500Y-94059375D03*
D11*
X47307500Y-94059375D03*
D10*
X52387500Y-94059375D03*
%TD*%
%TO.C,SW13*%
X44608750Y-55959375D03*
D11*
X49688750Y-55959375D03*
D10*
X54768750Y-55959375D03*
%TD*%
%TO.C,SW38*%
X80327500Y-94059375D03*
D11*
X85407500Y-94059375D03*
D10*
X90487500Y-94059375D03*
%TD*%
%TO.C,SW31*%
X189865000Y-75009375D03*
D11*
X194945000Y-75009375D03*
D10*
X200025000Y-75009375D03*
%TD*%
%TO.C,SW51*%
X251777500Y-94059375D03*
D11*
X256857500Y-94059375D03*
D10*
X261937500Y-94059375D03*
%TD*%
%TO.C,SW23*%
X244633750Y-55959375D03*
D11*
X249713750Y-55959375D03*
D10*
X254793750Y-55959375D03*
%TD*%
%TO.C,SW17*%
X123190000Y-55959375D03*
D11*
X128270000Y-55959375D03*
D10*
X133350000Y-55959375D03*
%TD*%
D11*
%TO.C,S35*%
X256857500Y-66754375D03*
X233045000Y-66754375D03*
%TD*%
D10*
%TO.C,SW25*%
X75565000Y-75009375D03*
D11*
X80645000Y-75009375D03*
D10*
X85725000Y-75009375D03*
%TD*%
%TO.C,SW5*%
X118427500Y-36909375D03*
D11*
X123507500Y-36909375D03*
D10*
X128587500Y-36909375D03*
%TD*%
D11*
%TO.C,SW43*%
X47307500Y-36909375D03*
D12*
X50807500Y-40909375D03*
X50807500Y-38409375D03*
X43807500Y-38409375D03*
X43807500Y-40909375D03*
%TD*%
D10*
%TO.C,SW7*%
X156527500Y-36909375D03*
D11*
X161607500Y-36909375D03*
D10*
X166687500Y-36909375D03*
%TD*%
%TO.C,SW30*%
X170815000Y-75009375D03*
D11*
X175895000Y-75009375D03*
D10*
X180975000Y-75009375D03*
%TD*%
%TO.C,SW2*%
X61277500Y-36909375D03*
D11*
X66357500Y-36909375D03*
D10*
X71437500Y-36909375D03*
%TD*%
%TO.C,SW42*%
X147002500Y-94059375D03*
D11*
X152082500Y-94059375D03*
D10*
X157162500Y-94059375D03*
%TD*%
%TO.C,SW15*%
X85090000Y-55959375D03*
D11*
X90170000Y-55959375D03*
D10*
X95250000Y-55959375D03*
%TD*%
%TO.C,SW24*%
X49371250Y-75009375D03*
D11*
X54451250Y-75009375D03*
D10*
X59531250Y-75009375D03*
%TD*%
%TO.C,SW18*%
X142240000Y-55959375D03*
D11*
X147320000Y-55959375D03*
D10*
X152400000Y-55959375D03*
%TD*%
%TO.C,SW21*%
X199390000Y-55959375D03*
D11*
X204470000Y-55959375D03*
D10*
X209550000Y-55959375D03*
%TD*%
%TO.C,SW40*%
X118427500Y-94059375D03*
D11*
X123507500Y-94059375D03*
D10*
X128587500Y-94059375D03*
%TD*%
%TO.C,SW26*%
X94615000Y-75009375D03*
D11*
X99695000Y-75009375D03*
D10*
X104775000Y-75009375D03*
%TD*%
%TO.C,SW41*%
X125571250Y-94059375D03*
D11*
X130651250Y-94059375D03*
D10*
X135731250Y-94059375D03*
%TD*%
%TO.C,SW37*%
X66040000Y-94059375D03*
D11*
X71120000Y-94059375D03*
D10*
X76200000Y-94059375D03*
%TD*%
%TO.C,SW20*%
X180340000Y-55959375D03*
D11*
X185420000Y-55959375D03*
D10*
X190500000Y-55959375D03*
%TD*%
%TO.C,SW6*%
X137477500Y-36909375D03*
D11*
X142557500Y-36909375D03*
D10*
X147637500Y-36909375D03*
%TD*%
%TO.C,SW14*%
X66040000Y-55959375D03*
D11*
X71120000Y-55959375D03*
D10*
X76200000Y-55959375D03*
%TD*%
D13*
%TO.C,J4*%
X80645000Y-58340625D03*
X81661000Y-63420625D03*
X79629000Y-63420625D03*
%TD*%
M02*
