%TF.GenerationSoftware,KiCad,Pcbnew,7.99.0-unknown-e01ef0a38d~172~ubuntu23.04.1*%
%TF.CreationDate,2023-10-19T21:10:57-04:00*%
%TF.ProjectId,Koneko40Stagger,4b6f6e65-6b6f-4343-9053-746167676572,rev?*%
%TF.SameCoordinates,Original*%
%TF.FileFunction,Soldermask,Bot*%
%TF.FilePolarity,Negative*%
%FSLAX46Y46*%
G04 Gerber Fmt 4.6, Leading zero omitted, Abs format (unit mm)*
G04 Created by KiCad (PCBNEW 7.99.0-unknown-e01ef0a38d~172~ubuntu23.04.1) date 2023-10-19 21:10:57*
%MOMM*%
%LPD*%
G01*
G04 APERTURE LIST*
G04 Aperture macros list*
%AMRoundRect*
0 Rectangle with rounded corners*
0 $1 Rounding radius*
0 $2 $3 $4 $5 $6 $7 $8 $9 X,Y pos of 4 corners*
0 Add a 4 corners polygon primitive as box body*
4,1,4,$2,$3,$4,$5,$6,$7,$8,$9,$2,$3,0*
0 Add four circle primitives for the rounded corners*
1,1,$1+$1,$2,$3*
1,1,$1+$1,$4,$5*
1,1,$1+$1,$6,$7*
1,1,$1+$1,$8,$9*
0 Add four rect primitives between the rounded corners*
20,1,$1+$1,$2,$3,$4,$5,0*
20,1,$1+$1,$4,$5,$6,$7,0*
20,1,$1+$1,$6,$7,$8,$9,0*
20,1,$1+$1,$8,$9,$2,$3,0*%
%AMFreePoly0*
4,1,18,-0.350000,0.510000,-0.339343,0.563576,-0.308995,0.608995,-0.263576,0.639343,-0.210000,0.650000,0.210000,0.650000,0.263576,0.639343,0.308995,0.608995,0.339343,0.563576,0.350000,0.510000,0.350000,-0.510000,0.339343,-0.563576,0.308995,-0.608995,0.263576,-0.639343,0.210000,-0.650000,-0.210000,-0.650000,-0.350000,-0.510000,-0.350000,0.510000,-0.350000,0.510000,$1*%
G04 Aperture macros list end*
%ADD10C,1.750000*%
%ADD11C,3.987800*%
%ADD12C,2.300000*%
%ADD13C,4.000000*%
%ADD14RoundRect,0.225000X-0.225000X-0.375000X0.225000X-0.375000X0.225000X0.375000X-0.225000X0.375000X0*%
%ADD15RoundRect,0.140000X0.170000X-0.140000X0.170000X0.140000X-0.170000X0.140000X-0.170000X-0.140000X0*%
%ADD16R,1.220000X0.650000*%
%ADD17RoundRect,0.135000X0.185000X-0.135000X0.185000X0.135000X-0.185000X0.135000X-0.185000X-0.135000X0*%
%ADD18RoundRect,0.140000X-0.170000X0.140000X-0.170000X-0.140000X0.170000X-0.140000X0.170000X0.140000X0*%
%ADD19R,0.700000X0.450000*%
%ADD20RoundRect,0.140000X0.140000X0.170000X-0.140000X0.170000X-0.140000X-0.170000X0.140000X-0.170000X0*%
%ADD21RoundRect,0.135000X0.135000X0.185000X-0.135000X0.185000X-0.135000X-0.185000X0.135000X-0.185000X0*%
%ADD22R,1.000000X1.000000*%
%ADD23O,1.000000X1.000000*%
%ADD24RoundRect,0.140000X-0.140000X-0.170000X0.140000X-0.170000X0.140000X0.170000X-0.140000X0.170000X0*%
%ADD25RoundRect,0.045000X0.045000X-0.055000X0.045000X0.055000X-0.045000X0.055000X-0.045000X-0.055000X0*%
%ADD26C,0.500000*%
%ADD27FreePoly0,90.000000*%
%ADD28RoundRect,0.135000X-0.135000X-0.185000X0.135000X-0.185000X0.135000X0.185000X-0.135000X0.185000X0*%
%ADD29R,1.000000X1.150000*%
%ADD30C,0.990600*%
%ADD31C,0.787400*%
%ADD32RoundRect,0.050000X0.387500X0.050000X-0.387500X0.050000X-0.387500X-0.050000X0.387500X-0.050000X0*%
%ADD33RoundRect,0.050000X0.050000X0.387500X-0.050000X0.387500X-0.050000X-0.387500X0.050000X-0.387500X0*%
%ADD34R,3.200000X3.200000*%
%ADD35RoundRect,0.150000X-0.625000X0.150000X-0.625000X-0.150000X0.625000X-0.150000X0.625000X0.150000X0*%
%ADD36RoundRect,0.250000X-0.650000X0.350000X-0.650000X-0.350000X0.650000X-0.350000X0.650000X0.350000X0*%
G04 APERTURE END LIST*
D10*
%TO.C,SW32*%
X208915000Y-75009375D03*
D11*
X213995000Y-75009375D03*
D10*
X219075000Y-75009375D03*
D12*
X210185000Y-72469375D03*
X216535000Y-69929375D03*
%TD*%
D10*
%TO.C,SW39*%
X89852500Y-94059375D03*
D11*
X94932500Y-94059375D03*
D10*
X100012500Y-94059375D03*
D12*
X91122500Y-91519375D03*
X97472500Y-88979375D03*
%TD*%
D13*
%TO.C,S2*%
X209232500Y-101044375D03*
D11*
X209232500Y-85804375D03*
D13*
X94932500Y-101044375D03*
D11*
X94932500Y-85804375D03*
%TD*%
D10*
%TO.C,SW16*%
X104140000Y-55959375D03*
D11*
X109220000Y-55959375D03*
D10*
X114300000Y-55959375D03*
D12*
X105410000Y-53419375D03*
X111760000Y-50879375D03*
%TD*%
D10*
%TO.C,SW46*%
X175577500Y-94059375D03*
D11*
X180657500Y-94059375D03*
D10*
X185737500Y-94059375D03*
D12*
X176847500Y-91519375D03*
X183197500Y-88979375D03*
%TD*%
D10*
%TO.C,SW11*%
X232727500Y-36909375D03*
D11*
X237807500Y-36909375D03*
D10*
X242887500Y-36909375D03*
D12*
X233997500Y-34369375D03*
X240347500Y-31829375D03*
%TD*%
D11*
%TO.C,SW44*%
X256857500Y-36909375D03*
%TD*%
D10*
%TO.C,SW8*%
X175577500Y-36909375D03*
D11*
X180657500Y-36909375D03*
D10*
X185737500Y-36909375D03*
D12*
X176847500Y-34369375D03*
X183197500Y-31829375D03*
%TD*%
D10*
%TO.C,SW22*%
X218440000Y-55959375D03*
D11*
X223520000Y-55959375D03*
D10*
X228600000Y-55959375D03*
D12*
X219710000Y-53419375D03*
X226060000Y-50879375D03*
%TD*%
D10*
%TO.C,SW28*%
X132715000Y-75009375D03*
D11*
X137795000Y-75009375D03*
D10*
X142875000Y-75009375D03*
D12*
X133985000Y-72469375D03*
X140335000Y-69929375D03*
%TD*%
D10*
%TO.C,SW49*%
X227965000Y-94059375D03*
D11*
X233045000Y-94059375D03*
D10*
X238125000Y-94059375D03*
D12*
X229235000Y-91519375D03*
X235585000Y-88979375D03*
%TD*%
D10*
%TO.C,SW48*%
X232727500Y-94059375D03*
D11*
X237807500Y-94059375D03*
D10*
X242887500Y-94059375D03*
D12*
X233997500Y-91519375D03*
X240347500Y-88979375D03*
%TD*%
D13*
%TO.C,S1*%
X209232500Y-101044375D03*
D11*
X209232500Y-85804375D03*
D13*
X94932500Y-101044375D03*
D11*
X94932500Y-85804375D03*
%TD*%
D10*
%TO.C,SW45*%
X173196250Y-94059375D03*
D11*
X178276250Y-94059375D03*
D10*
X183356250Y-94059375D03*
D12*
X174466250Y-91519375D03*
X180816250Y-88979375D03*
%TD*%
D10*
%TO.C,SW10*%
X213677500Y-36909375D03*
D11*
X218757500Y-36909375D03*
D10*
X223837500Y-36909375D03*
D12*
X214947500Y-34369375D03*
X221297500Y-31829375D03*
%TD*%
D13*
%TO.C,S3*%
X199707500Y-101044375D03*
D11*
X199707500Y-85804375D03*
D13*
X161607500Y-101044375D03*
D11*
X161607500Y-85804375D03*
%TD*%
D10*
%TO.C,SW34*%
X249396250Y-75009375D03*
D11*
X254476250Y-75009375D03*
D10*
X259556250Y-75009375D03*
D12*
X250666250Y-72469375D03*
X257016250Y-69929375D03*
%TD*%
D10*
%TO.C,SW29*%
X151765000Y-75009375D03*
D11*
X156845000Y-75009375D03*
D10*
X161925000Y-75009375D03*
D12*
X153035000Y-72469375D03*
X159385000Y-69929375D03*
%TD*%
D10*
%TO.C,SW19*%
X161290000Y-55959375D03*
D11*
X166370000Y-55959375D03*
D10*
X171450000Y-55959375D03*
D12*
X162560000Y-53419375D03*
X168910000Y-50879375D03*
%TD*%
D10*
%TO.C,SW4*%
X99377500Y-36909375D03*
D11*
X104457500Y-36909375D03*
D10*
X109537500Y-36909375D03*
D12*
X100647500Y-34369375D03*
X106997500Y-31829375D03*
%TD*%
D10*
%TO.C,SW47*%
X204152500Y-94059375D03*
D11*
X209232500Y-94059375D03*
D10*
X214312500Y-94059375D03*
D12*
X205422500Y-91519375D03*
X211772500Y-88979375D03*
%TD*%
D10*
%TO.C,SW9*%
X194627500Y-36909375D03*
D11*
X199707500Y-36909375D03*
D10*
X204787500Y-36909375D03*
D12*
X195897500Y-34369375D03*
X202247500Y-31829375D03*
%TD*%
D13*
%TO.C,S4*%
X190182500Y-101044375D03*
D11*
X190182500Y-85804375D03*
D13*
X166370000Y-101044375D03*
D11*
X166370000Y-85804375D03*
%TD*%
D10*
%TO.C,SW1*%
X42227500Y-36909375D03*
D11*
X47307500Y-36909375D03*
D10*
X52387500Y-36909375D03*
D12*
X43497500Y-34369375D03*
X49847500Y-31829375D03*
%TD*%
D10*
%TO.C,SW36*%
X61277500Y-94059375D03*
D11*
X66357500Y-94059375D03*
D10*
X71437500Y-94059375D03*
D12*
X62547500Y-91519375D03*
X68897500Y-88979375D03*
%TD*%
D10*
%TO.C,SW33*%
X227965000Y-75009375D03*
D11*
X233045000Y-75009375D03*
D10*
X238125000Y-75009375D03*
D12*
X229235000Y-72469375D03*
X235585000Y-69929375D03*
%TD*%
D10*
%TO.C,SW52*%
X239871250Y-75009375D03*
D11*
X244951250Y-75009375D03*
D10*
X250031250Y-75009375D03*
D12*
X241141250Y-72469375D03*
X247491250Y-69929375D03*
%TD*%
D10*
%TO.C,SW3*%
X80327500Y-36909375D03*
D11*
X85407500Y-36909375D03*
D10*
X90487500Y-36909375D03*
D12*
X81597500Y-34369375D03*
X87947500Y-31829375D03*
%TD*%
D13*
%TO.C,S41*%
X142557500Y-101044375D03*
D11*
X142557500Y-85804375D03*
D13*
X118745000Y-101044375D03*
D11*
X118745000Y-85804375D03*
%TD*%
D13*
%TO.C,S40*%
X142557500Y-101044375D03*
D11*
X142557500Y-85804375D03*
D13*
X104457500Y-101044375D03*
D11*
X104457500Y-85804375D03*
%TD*%
D10*
%TO.C,SW27*%
X113665000Y-75009375D03*
D11*
X118745000Y-75009375D03*
D10*
X123825000Y-75009375D03*
D12*
X114935000Y-72469375D03*
X121285000Y-69929375D03*
%TD*%
D10*
%TO.C,SW12*%
X251777500Y-36909375D03*
D11*
X256857500Y-36909375D03*
D10*
X261937500Y-36909375D03*
D12*
X253047500Y-34369375D03*
X259397500Y-31829375D03*
%TD*%
D10*
%TO.C,SW50*%
X213677500Y-94059375D03*
D11*
X218757500Y-94059375D03*
D10*
X223837500Y-94059375D03*
D12*
X214947500Y-91519375D03*
X221297500Y-88979375D03*
%TD*%
D10*
%TO.C,SW35*%
X42227500Y-94059375D03*
D11*
X47307500Y-94059375D03*
D10*
X52387500Y-94059375D03*
D12*
X43497500Y-91519375D03*
X49847500Y-88979375D03*
%TD*%
D10*
%TO.C,SW13*%
X44608750Y-55959375D03*
D11*
X49688750Y-55959375D03*
D10*
X54768750Y-55959375D03*
D12*
X45878750Y-53419375D03*
X52228750Y-50879375D03*
%TD*%
D10*
%TO.C,SW38*%
X80327500Y-94059375D03*
D11*
X85407500Y-94059375D03*
D10*
X90487500Y-94059375D03*
D12*
X81597500Y-91519375D03*
X87947500Y-88979375D03*
%TD*%
D10*
%TO.C,SW31*%
X189865000Y-75009375D03*
D11*
X194945000Y-75009375D03*
D10*
X200025000Y-75009375D03*
D12*
X191135000Y-72469375D03*
X197485000Y-69929375D03*
%TD*%
D10*
%TO.C,SW51*%
X251777500Y-94059375D03*
D11*
X256857500Y-94059375D03*
D10*
X261937500Y-94059375D03*
D12*
X253047500Y-91519375D03*
X259397500Y-88979375D03*
%TD*%
D10*
%TO.C,SW23*%
X244633750Y-55959375D03*
D11*
X249713750Y-55959375D03*
D10*
X254793750Y-55959375D03*
D12*
X245903750Y-53419375D03*
X252253750Y-50879375D03*
%TD*%
D10*
%TO.C,SW17*%
X123190000Y-55959375D03*
D11*
X128270000Y-55959375D03*
D10*
X133350000Y-55959375D03*
D12*
X124460000Y-53419375D03*
X130810000Y-50879375D03*
%TD*%
D13*
%TO.C,S35*%
X256857500Y-81994375D03*
D11*
X256857500Y-66754375D03*
D13*
X233045000Y-81994375D03*
D11*
X233045000Y-66754375D03*
%TD*%
D10*
%TO.C,SW25*%
X75565000Y-75009375D03*
D11*
X80645000Y-75009375D03*
D10*
X85725000Y-75009375D03*
D12*
X76835000Y-72469375D03*
X83185000Y-69929375D03*
%TD*%
D10*
%TO.C,SW5*%
X118427500Y-36909375D03*
D11*
X123507500Y-36909375D03*
D10*
X128587500Y-36909375D03*
D12*
X119697500Y-34369375D03*
X126047500Y-31829375D03*
%TD*%
D11*
%TO.C,SW43*%
X47307500Y-36909375D03*
%TD*%
D10*
%TO.C,SW7*%
X156527500Y-36909375D03*
D11*
X161607500Y-36909375D03*
D10*
X166687500Y-36909375D03*
D12*
X157797500Y-34369375D03*
X164147500Y-31829375D03*
%TD*%
D10*
%TO.C,SW30*%
X170815000Y-75009375D03*
D11*
X175895000Y-75009375D03*
D10*
X180975000Y-75009375D03*
D12*
X172085000Y-72469375D03*
X178435000Y-69929375D03*
%TD*%
D10*
%TO.C,SW2*%
X61277500Y-36909375D03*
D11*
X66357500Y-36909375D03*
D10*
X71437500Y-36909375D03*
D12*
X62547500Y-34369375D03*
X68897500Y-31829375D03*
%TD*%
D10*
%TO.C,SW42*%
X147002500Y-94059375D03*
D11*
X152082500Y-94059375D03*
D10*
X157162500Y-94059375D03*
D12*
X148272500Y-91519375D03*
X154622500Y-88979375D03*
%TD*%
D10*
%TO.C,SW15*%
X85090000Y-55959375D03*
D11*
X90170000Y-55959375D03*
D10*
X95250000Y-55959375D03*
D12*
X86360000Y-53419375D03*
X92710000Y-50879375D03*
%TD*%
D10*
%TO.C,SW24*%
X49371250Y-75009375D03*
D11*
X54451250Y-75009375D03*
D10*
X59531250Y-75009375D03*
D12*
X50641250Y-72469375D03*
X56991250Y-69929375D03*
%TD*%
D10*
%TO.C,SW18*%
X142240000Y-55959375D03*
D11*
X147320000Y-55959375D03*
D10*
X152400000Y-55959375D03*
D12*
X143510000Y-53419375D03*
X149860000Y-50879375D03*
%TD*%
D10*
%TO.C,SW21*%
X199390000Y-55959375D03*
D11*
X204470000Y-55959375D03*
D10*
X209550000Y-55959375D03*
D12*
X200660000Y-53419375D03*
X207010000Y-50879375D03*
%TD*%
D10*
%TO.C,SW40*%
X118427500Y-94059375D03*
D11*
X123507500Y-94059375D03*
D10*
X128587500Y-94059375D03*
D12*
X119697500Y-91519375D03*
X126047500Y-88979375D03*
%TD*%
D10*
%TO.C,SW26*%
X94615000Y-75009375D03*
D11*
X99695000Y-75009375D03*
D10*
X104775000Y-75009375D03*
D12*
X95885000Y-72469375D03*
X102235000Y-69929375D03*
%TD*%
D10*
%TO.C,SW41*%
X125571250Y-94059375D03*
D11*
X130651250Y-94059375D03*
D10*
X135731250Y-94059375D03*
D12*
X126841250Y-91519375D03*
X133191250Y-88979375D03*
%TD*%
D10*
%TO.C,SW37*%
X66040000Y-94059375D03*
D11*
X71120000Y-94059375D03*
D10*
X76200000Y-94059375D03*
D12*
X67310000Y-91519375D03*
X73660000Y-88979375D03*
%TD*%
D10*
%TO.C,SW20*%
X180340000Y-55959375D03*
D11*
X185420000Y-55959375D03*
D10*
X190500000Y-55959375D03*
D12*
X181610000Y-53419375D03*
X187960000Y-50879375D03*
%TD*%
D10*
%TO.C,SW6*%
X137477500Y-36909375D03*
D11*
X142557500Y-36909375D03*
D10*
X147637500Y-36909375D03*
D12*
X138747500Y-34369375D03*
X145097500Y-31829375D03*
%TD*%
D10*
%TO.C,SW14*%
X66040000Y-55959375D03*
D11*
X71120000Y-55959375D03*
D10*
X76200000Y-55959375D03*
D12*
X67310000Y-53419375D03*
X73660000Y-50879375D03*
%TD*%
D14*
%TO.C,D37*%
X83757500Y-98821875D03*
X87057500Y-98821875D03*
%TD*%
D15*
%TO.C,C6*%
X62591875Y-64874375D03*
X62591875Y-63914375D03*
%TD*%
D16*
%TO.C,U3*%
X83237700Y-44874775D03*
X83237700Y-46774775D03*
X80617700Y-45824775D03*
%TD*%
D15*
%TO.C,C10*%
X63601875Y-64884375D03*
X63601875Y-63924375D03*
%TD*%
D14*
%TO.C,D27*%
X117095000Y-79771875D03*
X120395000Y-79771875D03*
%TD*%
D17*
%TO.C,R4*%
X64001875Y-81814375D03*
X64001875Y-80794375D03*
%TD*%
D14*
%TO.C,D13*%
X48038750Y-60721875D03*
X51338750Y-60721875D03*
%TD*%
%TO.C,D10*%
X217107500Y-41671875D03*
X220407500Y-41671875D03*
%TD*%
%TO.C,D22*%
X221870000Y-60721875D03*
X225170000Y-60721875D03*
%TD*%
D17*
%TO.C,R1*%
X65001875Y-61614375D03*
X65001875Y-60594375D03*
%TD*%
D14*
%TO.C,D30*%
X174245000Y-79771875D03*
X177545000Y-79771875D03*
%TD*%
D18*
%TO.C,C13*%
X68171875Y-80824375D03*
X68171875Y-81784375D03*
%TD*%
D14*
%TO.C,D18*%
X145670000Y-60721875D03*
X148970000Y-60721875D03*
%TD*%
D15*
%TO.C,C1*%
X65401875Y-64884375D03*
X65401875Y-63924375D03*
%TD*%
D19*
%TO.C,Q3*%
X41782500Y-41504375D03*
X41782500Y-42804375D03*
X39782500Y-42154375D03*
%TD*%
D20*
%TO.C,C8*%
X60060000Y-72614375D03*
X59100000Y-72614375D03*
%TD*%
D18*
%TO.C,C9*%
X64251875Y-77324375D03*
X64251875Y-78284375D03*
%TD*%
D17*
%TO.C,R2*%
X64001875Y-61614375D03*
X64001875Y-60594375D03*
%TD*%
D14*
%TO.C,D2*%
X64707500Y-41671875D03*
X68007500Y-41671875D03*
%TD*%
%TO.C,D19*%
X164720000Y-60721875D03*
X168020000Y-60721875D03*
%TD*%
D21*
%TO.C,R5*%
X41292500Y-40154375D03*
X40272500Y-40154375D03*
%TD*%
D14*
%TO.C,D32*%
X212345000Y-79771875D03*
X215645000Y-79771875D03*
%TD*%
%TO.C,D8*%
X179007500Y-41671875D03*
X182307500Y-41671875D03*
%TD*%
%TO.C,D42*%
X236157500Y-98821875D03*
X239457500Y-98821875D03*
%TD*%
%TO.C,D31*%
X193295000Y-79771875D03*
X196595000Y-79771875D03*
%TD*%
D15*
%TO.C,C16*%
X85212500Y-46314375D03*
X85212500Y-45354375D03*
%TD*%
D14*
%TO.C,D41*%
X179007500Y-98821875D03*
X182307500Y-98821875D03*
%TD*%
D22*
%TO.C,JP1*%
X42545000Y-72628125D03*
D23*
X43815000Y-72628125D03*
%TD*%
D14*
%TO.C,D25*%
X78995000Y-79771875D03*
X82295000Y-79771875D03*
%TD*%
%TO.C,D23*%
X248063750Y-60721875D03*
X251363750Y-60721875D03*
%TD*%
%TO.C,D40*%
X150432500Y-98821875D03*
X153732500Y-98821875D03*
%TD*%
%TO.C,D14*%
X69470000Y-60721875D03*
X72770000Y-60721875D03*
%TD*%
D18*
%TO.C,C12*%
X70421875Y-65874107D03*
X70421875Y-66834107D03*
%TD*%
D14*
%TO.C,D44*%
X255207500Y-98821875D03*
X258507500Y-98821875D03*
%TD*%
D22*
%TO.C,JP2*%
X42545000Y-77390625D03*
D23*
X43815000Y-77390625D03*
%TD*%
D14*
%TO.C,D34*%
X248063750Y-79771875D03*
X251363750Y-79771875D03*
%TD*%
%TO.C,D39*%
X217107500Y-98821875D03*
X220407500Y-98821875D03*
%TD*%
D24*
%TO.C,C5*%
X71331875Y-69004375D03*
X72291875Y-69004375D03*
%TD*%
D25*
%TO.C,U1*%
X69598224Y-67004106D03*
X69198224Y-67004107D03*
X68798224Y-67004107D03*
X68398224Y-67004106D03*
X68398224Y-65704108D03*
X68798224Y-65704107D03*
X69198224Y-65704107D03*
X69598224Y-65704108D03*
D26*
X68998224Y-66354107D03*
D27*
X68998224Y-66354107D03*
%TD*%
D18*
%TO.C,C3*%
X65251875Y-77324375D03*
X65251875Y-78284375D03*
%TD*%
D14*
%TO.C,D16*%
X107570000Y-60721875D03*
X110870000Y-60721875D03*
%TD*%
%TO.C,D7*%
X159957500Y-41671875D03*
X163257500Y-41671875D03*
%TD*%
D28*
%TO.C,R3*%
X70391875Y-67874375D03*
X71411875Y-67874375D03*
%TD*%
D14*
%TO.C,D3*%
X83757500Y-41671875D03*
X87057500Y-41671875D03*
%TD*%
%TO.C,D11*%
X236157500Y-41671875D03*
X239457500Y-41671875D03*
%TD*%
%TO.C,D29*%
X155195000Y-79771875D03*
X158495000Y-79771875D03*
%TD*%
D29*
%TO.C,Y1*%
X66791875Y-80429375D03*
X66791875Y-82179375D03*
X65391875Y-82179375D03*
X65391875Y-80429375D03*
%TD*%
D14*
%TO.C,D1*%
X45657500Y-41671875D03*
X48957500Y-41671875D03*
%TD*%
%TO.C,D38*%
X129001250Y-98821875D03*
X132301250Y-98821875D03*
%TD*%
%TO.C,D21*%
X202820000Y-60721875D03*
X206120000Y-60721875D03*
%TD*%
%TO.C,D24*%
X52801250Y-79771875D03*
X56101250Y-79771875D03*
%TD*%
%TO.C,D35*%
X45657500Y-98821875D03*
X48957500Y-98821875D03*
%TD*%
D24*
%TO.C,C15*%
X80172500Y-48124375D03*
X81132500Y-48124375D03*
%TD*%
D15*
%TO.C,C7*%
X62021875Y-66974375D03*
X62021875Y-66014375D03*
%TD*%
D21*
%TO.C,R6*%
X248292500Y-37384375D03*
X247272500Y-37384375D03*
%TD*%
D14*
%TO.C,D15*%
X88520000Y-60721875D03*
X91820000Y-60721875D03*
%TD*%
D19*
%TO.C,Q2*%
X248782500Y-38734375D03*
X248782500Y-40034375D03*
X246782500Y-39384375D03*
%TD*%
D14*
%TO.C,D20*%
X183770000Y-60721875D03*
X187070000Y-60721875D03*
%TD*%
D15*
%TO.C,C11*%
X67401875Y-64884375D03*
X67401875Y-63924375D03*
%TD*%
D14*
%TO.C,D5*%
X121857500Y-41671875D03*
X125157500Y-41671875D03*
%TD*%
D15*
%TO.C,C2*%
X66401875Y-64884375D03*
X66401875Y-63924375D03*
%TD*%
D30*
%TO.C,J2*%
X60404375Y-81994375D03*
X61420375Y-87074375D03*
X59388375Y-87074375D03*
D31*
X61039375Y-83264375D03*
X59769375Y-83264375D03*
X61039375Y-84534375D03*
X59769375Y-84534375D03*
X61039375Y-85804375D03*
X59769375Y-85804375D03*
%TD*%
D18*
%TO.C,C14*%
X65391875Y-83554375D03*
X65391875Y-84514375D03*
%TD*%
D14*
%TO.C,D17*%
X126620000Y-60721875D03*
X129920000Y-60721875D03*
%TD*%
%TO.C,D36*%
X64707500Y-98821875D03*
X68007500Y-98821875D03*
%TD*%
%TO.C,D33*%
X237348125Y-79771875D03*
X240648125Y-79771875D03*
%TD*%
%TO.C,D9*%
X198057500Y-41671875D03*
X201357500Y-41671875D03*
%TD*%
D32*
%TO.C,U2*%
X69130000Y-69004375D03*
X69130000Y-69404376D03*
X69130000Y-69804375D03*
X69130000Y-70204375D03*
X69130000Y-70604375D03*
X69130000Y-71004374D03*
X69130000Y-71404375D03*
X69130000Y-71804375D03*
X69130000Y-72204376D03*
X69130000Y-72604375D03*
X69130000Y-73004375D03*
X69130000Y-73404375D03*
X69130000Y-73804374D03*
X69130000Y-74204375D03*
D33*
X68292500Y-75041875D03*
X67892499Y-75041875D03*
X67492500Y-75041875D03*
X67092500Y-75041875D03*
X66692500Y-75041875D03*
X66292501Y-75041875D03*
X65892500Y-75041875D03*
X65492500Y-75041875D03*
X65092499Y-75041875D03*
X64692500Y-75041875D03*
X64292500Y-75041875D03*
X63892500Y-75041875D03*
X63492501Y-75041875D03*
X63092500Y-75041875D03*
D32*
X62255000Y-74204375D03*
X62255000Y-73804374D03*
X62255000Y-73404375D03*
X62255000Y-73004375D03*
X62255000Y-72604375D03*
X62255000Y-72204376D03*
X62255000Y-71804375D03*
X62255000Y-71404375D03*
X62255000Y-71004374D03*
X62255000Y-70604375D03*
X62255000Y-70204375D03*
X62255000Y-69804375D03*
X62255000Y-69404376D03*
X62255000Y-69004375D03*
D33*
X63092500Y-68166875D03*
X63492501Y-68166875D03*
X63892500Y-68166875D03*
X64292500Y-68166875D03*
X64692500Y-68166875D03*
X65092499Y-68166875D03*
X65492500Y-68166875D03*
X65892500Y-68166875D03*
X66292501Y-68166875D03*
X66692500Y-68166875D03*
X67092500Y-68166875D03*
X67492500Y-68166875D03*
X67892499Y-68166875D03*
X68292500Y-68166875D03*
D34*
X65692500Y-71604375D03*
%TD*%
D14*
%TO.C,D12*%
X255207500Y-41671875D03*
X258507500Y-41671875D03*
%TD*%
%TO.C,D26*%
X98045000Y-79771875D03*
X101345000Y-79771875D03*
%TD*%
%TO.C,D4*%
X102807500Y-41671875D03*
X106107500Y-41671875D03*
%TD*%
D35*
%TO.C,J1*%
X73882500Y-42553125D03*
X73882500Y-43553125D03*
X73882500Y-44553125D03*
X73882500Y-45553125D03*
D36*
X77757500Y-41253125D03*
X77757500Y-46853125D03*
%TD*%
D24*
%TO.C,C4*%
X71331875Y-72594375D03*
X72291875Y-72594375D03*
%TD*%
D14*
%TO.C,D28*%
X136145000Y-79771875D03*
X139445000Y-79771875D03*
%TD*%
%TO.C,D6*%
X140907500Y-41671875D03*
X144207500Y-41671875D03*
%TD*%
M02*
