%TF.GenerationSoftware,KiCad,Pcbnew,7.99.0-unknown-e01ef0a38d~172~ubuntu23.04.1*%
%TF.CreationDate,2023-10-19T21:10:57-04:00*%
%TF.ProjectId,Koneko40Stagger,4b6f6e65-6b6f-4343-9053-746167676572,rev?*%
%TF.SameCoordinates,Original*%
%TF.FileFunction,Profile,NP*%
%FSLAX46Y46*%
G04 Gerber Fmt 4.6, Leading zero omitted, Abs format (unit mm)*
G04 Created by KiCad (PCBNEW 7.99.0-unknown-e01ef0a38d~172~ubuntu23.04.1) date 2023-10-19 21:10:57*
%MOMM*%
%LPD*%
G01*
G04 APERTURE LIST*
%TA.AperFunction,Profile*%
%ADD10C,0.250000*%
%TD*%
G04 APERTURE END LIST*
D10*
X225879592Y-101872837D02*
G75*
G02*
X232185408Y-101872837I3152908J-2461537D01*
G01*
X232185408Y-29095913D02*
G75*
G02*
X225879592Y-29095913I-3152908J2461537D01*
G01*
X85996714Y-103634375D02*
X218168286Y-103634375D01*
X71979592Y-101872837D02*
G75*
G02*
X78285408Y-101872837I3152908J-2461537D01*
G01*
X80255975Y-102834375D02*
X84368286Y-102834375D01*
X70009025Y-28134375D02*
G75*
G02*
X71979586Y-29095918I75J-2499825D01*
G01*
X265632500Y-97834375D02*
X265632500Y-33134375D01*
X219796714Y-102834375D02*
X223909025Y-102834375D01*
X232185409Y-29095913D02*
G75*
G02*
X234155975Y-28134408I1970391J-1538187D01*
G01*
X223909025Y-28134375D02*
G75*
G02*
X225879613Y-29095897I-125J-2500325D01*
G01*
X225879592Y-101872837D02*
G75*
G02*
X223909025Y-102834404I-1970592J1538437D01*
G01*
X219089607Y-103127268D02*
G75*
G02*
X219796714Y-102834351I707193J-707232D01*
G01*
X85075393Y-103127268D02*
X85289607Y-103341482D01*
X38532500Y-33134375D02*
G75*
G02*
X43532500Y-28134370I4999990J15D01*
G01*
X70009025Y-28134375D02*
X43532500Y-28134375D01*
X223909025Y-28134375D02*
X80255975Y-28134375D01*
X84368286Y-102834375D02*
G75*
G02*
X85075405Y-103127256I14J-1000025D01*
G01*
X234155975Y-102834375D02*
G75*
G02*
X232185402Y-101872841I125J2500275D01*
G01*
X265632500Y-97834375D02*
G75*
G02*
X260632500Y-102834400I-5000100J75D01*
G01*
X219089607Y-103127268D02*
X218875393Y-103341482D01*
X71979592Y-101872837D02*
G75*
G02*
X70009025Y-102834406I-1970692J1538637D01*
G01*
X234155975Y-102834375D02*
X260632500Y-102834375D01*
X218875392Y-103341481D02*
G75*
G02*
X218168286Y-103634372I-707092J707081D01*
G01*
X43532500Y-102834375D02*
G75*
G02*
X38532525Y-97834375I0J4999975D01*
G01*
X260632500Y-28134375D02*
X234155975Y-28134375D01*
X78285409Y-29095913D02*
G75*
G02*
X80255975Y-28134406I1970491J-1538387D01*
G01*
X80255975Y-102834375D02*
G75*
G02*
X78285430Y-101872820I-75J2499775D01*
G01*
X38532500Y-33134375D02*
X38532500Y-97834375D01*
X78285408Y-29095913D02*
G75*
G02*
X71979592Y-29095913I-3152908J2461537D01*
G01*
X43532500Y-102834375D02*
X70009025Y-102834375D01*
X85996714Y-103634375D02*
G75*
G02*
X85289605Y-103341484I-14J999975D01*
G01*
X260632500Y-28134375D02*
G75*
G02*
X265632525Y-33134375I100J-4999925D01*
G01*
M02*
