%TF.GenerationSoftware,KiCad,Pcbnew,7.99.0-unknown-e01ef0a38d~172~ubuntu23.04.1*%
%TF.CreationDate,2023-10-19T21:10:57-04:00*%
%TF.ProjectId,Koneko40Stagger,4b6f6e65-6b6f-4343-9053-746167676572,rev?*%
%TF.SameCoordinates,Original*%
%TF.FileFunction,Legend,Top*%
%TF.FilePolarity,Positive*%
%FSLAX46Y46*%
G04 Gerber Fmt 4.6, Leading zero omitted, Abs format (unit mm)*
G04 Created by KiCad (PCBNEW 7.99.0-unknown-e01ef0a38d~172~ubuntu23.04.1) date 2023-10-19 21:10:57*
%MOMM*%
%LPD*%
G01*
G04 APERTURE LIST*
%ADD10C,0.000000*%
%ADD11C,1.750000*%
%ADD12C,3.987800*%
%ADD13C,1.500000*%
%ADD14R,1.000000X1.000000*%
%ADD15O,1.000000X1.000000*%
%ADD16C,0.990600*%
G04 APERTURE END LIST*
%LPC*%
D10*
%TO.C,REF\u002A\u002A*%
G36*
X232944110Y-54644254D02*
G01*
X232950022Y-54644704D01*
X232955848Y-54645444D01*
X232961581Y-54646468D01*
X232967213Y-54647768D01*
X232972738Y-54649336D01*
X232978147Y-54651167D01*
X232983434Y-54653251D01*
X232988591Y-54655583D01*
X232993610Y-54658154D01*
X232998485Y-54660957D01*
X233003209Y-54663985D01*
X233007773Y-54667231D01*
X233012171Y-54670687D01*
X233016395Y-54674346D01*
X233020438Y-54678200D01*
X233024293Y-54682243D01*
X233027952Y-54686467D01*
X233031408Y-54690865D01*
X233034654Y-54695430D01*
X233037682Y-54700153D01*
X233040485Y-54705028D01*
X233043056Y-54710048D01*
X233045387Y-54715205D01*
X233047472Y-54720491D01*
X233049302Y-54725900D01*
X233050871Y-54731425D01*
X233052171Y-54737057D01*
X233053194Y-54742790D01*
X233053935Y-54748616D01*
X233054384Y-54754528D01*
X233054536Y-54760519D01*
X233054536Y-55183852D01*
X233054384Y-55189843D01*
X233053935Y-55195755D01*
X233053194Y-55201582D01*
X233052171Y-55207314D01*
X233050871Y-55212947D01*
X233049302Y-55218471D01*
X233047472Y-55223880D01*
X233045387Y-55229167D01*
X233043056Y-55234324D01*
X233040485Y-55239344D01*
X233037682Y-55244219D01*
X233034654Y-55248942D01*
X233031408Y-55253506D01*
X233027952Y-55257904D01*
X233024293Y-55262128D01*
X233020438Y-55266171D01*
X233016395Y-55270026D01*
X233012171Y-55273685D01*
X233007773Y-55277141D01*
X233003209Y-55280387D01*
X232998485Y-55283415D01*
X232993610Y-55286218D01*
X232988591Y-55288789D01*
X232983434Y-55291121D01*
X232978147Y-55293205D01*
X232972738Y-55295035D01*
X232967213Y-55296604D01*
X232961581Y-55297904D01*
X232955848Y-55298928D01*
X232950022Y-55299668D01*
X232944110Y-55300118D01*
X232938119Y-55300269D01*
X232514786Y-55300269D01*
X232508795Y-55300118D01*
X232502883Y-55299668D01*
X232497057Y-55298928D01*
X232491324Y-55297904D01*
X232485691Y-55296604D01*
X232480167Y-55295035D01*
X232474758Y-55293205D01*
X232469471Y-55291121D01*
X232464314Y-55288789D01*
X232459295Y-55286218D01*
X232454420Y-55283415D01*
X232449696Y-55280387D01*
X232445132Y-55277141D01*
X232440734Y-55273685D01*
X232436510Y-55270026D01*
X232432467Y-55266171D01*
X232428612Y-55262128D01*
X232424953Y-55257904D01*
X232421497Y-55253506D01*
X232418251Y-55248942D01*
X232415223Y-55244219D01*
X232412420Y-55239344D01*
X232409849Y-55234324D01*
X232407518Y-55229167D01*
X232405433Y-55223880D01*
X232403603Y-55218471D01*
X232402034Y-55212947D01*
X232400734Y-55207314D01*
X232399710Y-55201582D01*
X232398970Y-55195755D01*
X232398521Y-55189843D01*
X232398369Y-55183852D01*
X232398369Y-54760519D01*
X232398521Y-54754528D01*
X232398970Y-54748616D01*
X232399710Y-54742790D01*
X232400734Y-54737057D01*
X232402034Y-54731425D01*
X232403603Y-54725900D01*
X232405433Y-54720491D01*
X232407518Y-54715205D01*
X232409849Y-54710048D01*
X232412420Y-54705028D01*
X232415223Y-54700153D01*
X232418251Y-54695430D01*
X232421497Y-54690865D01*
X232424953Y-54686467D01*
X232428612Y-54682243D01*
X232432467Y-54678200D01*
X232436510Y-54674346D01*
X232440734Y-54670687D01*
X232445132Y-54667231D01*
X232449696Y-54663985D01*
X232454420Y-54660957D01*
X232459295Y-54658154D01*
X232464314Y-54655583D01*
X232469471Y-54653251D01*
X232474758Y-54651167D01*
X232480167Y-54649336D01*
X232485691Y-54647768D01*
X232491324Y-54646468D01*
X232497057Y-54645444D01*
X232502883Y-54644704D01*
X232508795Y-54644254D01*
X232514786Y-54644103D01*
X232938119Y-54644103D01*
X232944110Y-54644254D01*
G37*
G36*
X232944110Y-55612629D02*
G01*
X232950022Y-55613079D01*
X232955848Y-55613819D01*
X232961581Y-55614843D01*
X232967213Y-55616143D01*
X232972738Y-55617711D01*
X232978147Y-55619542D01*
X232983434Y-55621626D01*
X232988591Y-55623958D01*
X232993610Y-55626528D01*
X232998485Y-55629332D01*
X233003209Y-55632360D01*
X233007773Y-55635605D01*
X233012171Y-55639061D01*
X233016395Y-55642720D01*
X233020438Y-55646575D01*
X233024293Y-55650618D01*
X233027952Y-55654842D01*
X233031408Y-55659240D01*
X233034654Y-55663805D01*
X233037682Y-55668528D01*
X233040485Y-55673403D01*
X233043056Y-55678423D01*
X233045387Y-55683580D01*
X233047472Y-55688866D01*
X233049302Y-55694275D01*
X233050871Y-55699800D01*
X233052171Y-55705432D01*
X233053194Y-55711165D01*
X233053935Y-55716991D01*
X233054384Y-55722903D01*
X233054536Y-55728894D01*
X233054536Y-56152227D01*
X233054384Y-56158218D01*
X233053935Y-56164130D01*
X233053194Y-56169957D01*
X233052171Y-56175690D01*
X233050871Y-56181322D01*
X233049302Y-56186846D01*
X233047472Y-56192255D01*
X233045387Y-56197542D01*
X233043056Y-56202699D01*
X233040485Y-56207719D01*
X233037682Y-56212594D01*
X233034654Y-56217317D01*
X233031408Y-56221881D01*
X233027952Y-56226279D01*
X233024293Y-56230503D01*
X233020438Y-56234546D01*
X233016395Y-56238401D01*
X233012171Y-56242060D01*
X233007773Y-56245516D01*
X233003209Y-56248762D01*
X232998485Y-56251790D01*
X232993610Y-56254593D01*
X232988591Y-56257164D01*
X232983434Y-56259495D01*
X232978147Y-56261580D01*
X232972738Y-56263410D01*
X232967213Y-56264979D01*
X232961581Y-56266279D01*
X232955848Y-56267303D01*
X232950022Y-56268043D01*
X232944110Y-56268492D01*
X232938119Y-56268644D01*
X232514786Y-56268644D01*
X232508795Y-56268492D01*
X232502883Y-56268043D01*
X232497057Y-56267303D01*
X232491324Y-56266279D01*
X232485691Y-56264979D01*
X232480167Y-56263410D01*
X232474758Y-56261580D01*
X232469471Y-56259495D01*
X232464314Y-56257164D01*
X232459295Y-56254593D01*
X232454420Y-56251790D01*
X232449696Y-56248762D01*
X232445132Y-56245516D01*
X232440734Y-56242060D01*
X232436510Y-56238401D01*
X232432467Y-56234546D01*
X232428612Y-56230503D01*
X232424953Y-56226279D01*
X232421497Y-56221881D01*
X232418251Y-56217317D01*
X232415223Y-56212594D01*
X232412420Y-56207719D01*
X232409849Y-56202699D01*
X232407518Y-56197542D01*
X232405433Y-56192255D01*
X232403603Y-56186846D01*
X232402034Y-56181322D01*
X232400734Y-56175690D01*
X232399710Y-56169957D01*
X232398970Y-56164130D01*
X232398521Y-56158218D01*
X232398369Y-56152227D01*
X232398369Y-55728894D01*
X232398521Y-55722903D01*
X232398970Y-55716991D01*
X232399710Y-55711165D01*
X232400734Y-55705432D01*
X232402034Y-55699800D01*
X232403603Y-55694275D01*
X232405433Y-55688866D01*
X232407518Y-55683580D01*
X232409849Y-55678423D01*
X232412420Y-55673403D01*
X232415223Y-55668528D01*
X232418251Y-55663805D01*
X232421497Y-55659240D01*
X232424953Y-55654842D01*
X232428612Y-55650618D01*
X232432467Y-55646575D01*
X232436510Y-55642720D01*
X232440734Y-55639061D01*
X232445132Y-55635605D01*
X232449696Y-55632360D01*
X232454420Y-55629332D01*
X232459295Y-55626528D01*
X232464314Y-55623958D01*
X232469471Y-55621626D01*
X232474758Y-55619542D01*
X232480167Y-55617711D01*
X232485691Y-55616143D01*
X232491324Y-55614843D01*
X232497057Y-55613819D01*
X232502883Y-55613079D01*
X232508795Y-55612629D01*
X232514786Y-55612478D01*
X232938119Y-55612478D01*
X232944110Y-55612629D01*
G37*
G36*
X232944110Y-57530858D02*
G01*
X232950022Y-57531308D01*
X232955848Y-57532048D01*
X232961581Y-57533072D01*
X232967213Y-57534372D01*
X232972738Y-57535940D01*
X232978147Y-57537771D01*
X232983434Y-57539855D01*
X232988591Y-57542186D01*
X232993610Y-57544757D01*
X232998485Y-57547561D01*
X233003209Y-57550589D01*
X233007773Y-57553834D01*
X233012171Y-57557290D01*
X233016395Y-57560949D01*
X233020438Y-57564804D01*
X233024293Y-57568847D01*
X233027952Y-57573071D01*
X233031408Y-57577469D01*
X233034654Y-57582034D01*
X233037682Y-57586757D01*
X233040485Y-57591632D01*
X233043056Y-57596652D01*
X233045387Y-57601809D01*
X233047472Y-57607095D01*
X233049302Y-57612505D01*
X233050871Y-57618029D01*
X233052171Y-57623661D01*
X233053194Y-57629394D01*
X233053935Y-57635220D01*
X233054384Y-57641133D01*
X233054536Y-57647123D01*
X233054536Y-58070456D01*
X233054384Y-58076447D01*
X233053935Y-58082359D01*
X233053194Y-58088185D01*
X233052171Y-58093918D01*
X233050871Y-58099550D01*
X233049302Y-58105075D01*
X233047472Y-58110484D01*
X233045387Y-58115771D01*
X233043056Y-58120928D01*
X233040485Y-58125947D01*
X233037682Y-58130822D01*
X233034654Y-58135546D01*
X233031408Y-58140110D01*
X233027952Y-58144508D01*
X233024293Y-58148732D01*
X233020438Y-58152775D01*
X233016395Y-58156630D01*
X233012171Y-58160289D01*
X233007773Y-58163745D01*
X233003209Y-58166991D01*
X232998485Y-58170019D01*
X232993610Y-58172822D01*
X232988591Y-58175393D01*
X232983434Y-58177724D01*
X232978147Y-58179809D01*
X232972738Y-58181639D01*
X232967213Y-58183208D01*
X232961581Y-58184508D01*
X232955848Y-58185532D01*
X232950022Y-58186272D01*
X232944110Y-58186722D01*
X232938119Y-58186873D01*
X232514786Y-58186873D01*
X232508795Y-58186722D01*
X232502883Y-58186272D01*
X232497057Y-58185532D01*
X232491324Y-58184508D01*
X232485691Y-58183208D01*
X232480167Y-58181639D01*
X232474758Y-58179809D01*
X232469471Y-58177724D01*
X232464314Y-58175393D01*
X232459295Y-58172822D01*
X232454420Y-58170019D01*
X232449696Y-58166991D01*
X232445132Y-58163745D01*
X232440734Y-58160289D01*
X232436510Y-58156630D01*
X232432467Y-58152775D01*
X232428612Y-58148732D01*
X232424953Y-58144508D01*
X232421497Y-58140110D01*
X232418251Y-58135546D01*
X232415223Y-58130822D01*
X232412420Y-58125947D01*
X232409849Y-58120928D01*
X232407518Y-58115771D01*
X232405433Y-58110484D01*
X232403603Y-58105075D01*
X232402034Y-58099550D01*
X232400734Y-58093918D01*
X232399710Y-58088185D01*
X232398970Y-58082359D01*
X232398521Y-58076447D01*
X232398369Y-58070456D01*
X232398369Y-57647123D01*
X232398521Y-57641133D01*
X232398970Y-57635220D01*
X232399710Y-57629394D01*
X232400734Y-57623661D01*
X232402034Y-57618029D01*
X232403603Y-57612505D01*
X232405433Y-57607095D01*
X232407518Y-57601809D01*
X232409849Y-57596652D01*
X232412420Y-57591632D01*
X232415223Y-57586757D01*
X232418251Y-57582034D01*
X232421497Y-57577469D01*
X232424953Y-57573071D01*
X232428612Y-57568847D01*
X232432467Y-57564804D01*
X232436510Y-57560949D01*
X232440734Y-57557290D01*
X232445132Y-57553834D01*
X232449696Y-57550589D01*
X232454420Y-57547561D01*
X232459295Y-57544757D01*
X232464314Y-57542186D01*
X232469471Y-57539855D01*
X232474758Y-57537771D01*
X232480167Y-57535940D01*
X232485691Y-57534372D01*
X232491324Y-57533072D01*
X232497057Y-57532048D01*
X232502883Y-57531308D01*
X232508795Y-57530858D01*
X232514786Y-57530706D01*
X232938119Y-57530706D01*
X232944110Y-57530858D01*
G37*
G36*
X232944110Y-57544088D02*
G01*
X232950022Y-57544537D01*
X232955848Y-57545278D01*
X232961581Y-57546301D01*
X232967213Y-57547601D01*
X232972738Y-57549170D01*
X232978147Y-57551000D01*
X232983434Y-57553085D01*
X232988591Y-57555416D01*
X232993610Y-57557987D01*
X232998485Y-57560790D01*
X233003209Y-57563818D01*
X233007773Y-57567064D01*
X233012171Y-57570520D01*
X233016395Y-57574179D01*
X233020438Y-57578034D01*
X233024293Y-57582077D01*
X233027952Y-57586301D01*
X233031408Y-57590699D01*
X233034654Y-57595263D01*
X233037682Y-57599986D01*
X233040485Y-57604862D01*
X233043056Y-57609881D01*
X233045387Y-57615038D01*
X233047472Y-57620325D01*
X233049302Y-57625734D01*
X233050871Y-57631258D01*
X233052171Y-57636891D01*
X233053194Y-57642624D01*
X233053935Y-57648450D01*
X233054384Y-57654362D01*
X233054536Y-57660353D01*
X233054536Y-58083686D01*
X233054384Y-58089677D01*
X233053935Y-58095589D01*
X233053194Y-58101415D01*
X233052171Y-58107148D01*
X233050871Y-58112780D01*
X233049302Y-58118305D01*
X233047472Y-58123714D01*
X233045387Y-58129001D01*
X233043056Y-58134157D01*
X233040485Y-58139177D01*
X233037682Y-58144052D01*
X233034654Y-58148776D01*
X233031408Y-58153340D01*
X233027952Y-58157738D01*
X233024293Y-58161962D01*
X233020438Y-58166005D01*
X233016395Y-58169860D01*
X233012171Y-58173519D01*
X233007773Y-58176975D01*
X233003209Y-58180220D01*
X232998485Y-58183248D01*
X232993610Y-58186052D01*
X232988591Y-58188623D01*
X232983434Y-58190954D01*
X232978147Y-58193038D01*
X232972738Y-58194869D01*
X232967213Y-58196437D01*
X232961581Y-58197737D01*
X232955848Y-58198761D01*
X232950022Y-58199501D01*
X232944110Y-58199951D01*
X232938119Y-58200102D01*
X232514786Y-58200102D01*
X232508795Y-58199951D01*
X232502883Y-58199501D01*
X232497057Y-58198761D01*
X232491324Y-58197737D01*
X232485691Y-58196437D01*
X232480167Y-58194869D01*
X232474758Y-58193038D01*
X232469471Y-58190954D01*
X232464314Y-58188623D01*
X232459295Y-58186052D01*
X232454420Y-58183248D01*
X232449696Y-58180220D01*
X232445132Y-58176975D01*
X232440734Y-58173519D01*
X232436510Y-58169860D01*
X232432467Y-58166005D01*
X232428612Y-58161962D01*
X232424953Y-58157738D01*
X232421497Y-58153340D01*
X232418251Y-58148776D01*
X232415223Y-58144052D01*
X232412420Y-58139177D01*
X232409849Y-58134157D01*
X232407518Y-58129001D01*
X232405433Y-58123714D01*
X232403603Y-58118305D01*
X232402034Y-58112780D01*
X232400734Y-58107148D01*
X232399710Y-58101415D01*
X232398970Y-58095589D01*
X232398521Y-58089677D01*
X232398369Y-58083686D01*
X232398369Y-57660353D01*
X232398521Y-57654362D01*
X232398970Y-57648450D01*
X232399710Y-57642624D01*
X232400734Y-57636891D01*
X232402034Y-57631258D01*
X232403603Y-57625734D01*
X232405433Y-57620325D01*
X232407518Y-57615038D01*
X232409849Y-57609881D01*
X232412420Y-57604862D01*
X232415223Y-57599986D01*
X232418251Y-57595263D01*
X232421497Y-57590699D01*
X232424953Y-57586301D01*
X232428612Y-57582077D01*
X232432467Y-57578034D01*
X232436510Y-57574179D01*
X232440734Y-57570520D01*
X232445132Y-57567064D01*
X232449696Y-57563818D01*
X232454420Y-57560790D01*
X232459295Y-57557987D01*
X232464314Y-57555416D01*
X232469471Y-57553085D01*
X232474758Y-57551000D01*
X232480167Y-57549170D01*
X232485691Y-57547601D01*
X232491324Y-57546301D01*
X232497057Y-57545278D01*
X232502883Y-57544537D01*
X232508795Y-57544088D01*
X232514786Y-57543936D01*
X232938119Y-57543936D01*
X232944110Y-57544088D01*
G37*
G36*
X233915131Y-54644254D02*
G01*
X233921043Y-54644704D01*
X233926869Y-54645444D01*
X233932602Y-54646468D01*
X233938234Y-54647768D01*
X233943759Y-54649336D01*
X233949168Y-54651167D01*
X233954455Y-54653251D01*
X233959611Y-54655583D01*
X233964631Y-54658154D01*
X233969506Y-54660957D01*
X233974230Y-54663985D01*
X233978794Y-54667231D01*
X233983192Y-54670687D01*
X233987416Y-54674346D01*
X233991459Y-54678200D01*
X233995314Y-54682243D01*
X233998973Y-54686467D01*
X234002429Y-54690865D01*
X234005675Y-54695430D01*
X234008703Y-54700153D01*
X234011506Y-54705028D01*
X234014077Y-54710048D01*
X234016408Y-54715205D01*
X234018492Y-54720491D01*
X234020323Y-54725900D01*
X234021892Y-54731425D01*
X234023191Y-54737057D01*
X234024215Y-54742790D01*
X234024956Y-54748616D01*
X234025405Y-54754528D01*
X234025557Y-54760519D01*
X234025557Y-55183852D01*
X234025405Y-55189843D01*
X234024956Y-55195755D01*
X234024215Y-55201582D01*
X234023191Y-55207314D01*
X234021892Y-55212947D01*
X234020323Y-55218471D01*
X234018492Y-55223880D01*
X234016408Y-55229167D01*
X234014077Y-55234324D01*
X234011506Y-55239344D01*
X234008703Y-55244219D01*
X234005675Y-55248942D01*
X234002429Y-55253506D01*
X233998973Y-55257904D01*
X233995314Y-55262128D01*
X233991459Y-55266171D01*
X233987416Y-55270026D01*
X233983192Y-55273685D01*
X233978794Y-55277141D01*
X233974230Y-55280387D01*
X233969506Y-55283415D01*
X233964631Y-55286218D01*
X233959611Y-55288789D01*
X233954455Y-55291121D01*
X233949168Y-55293205D01*
X233943759Y-55295035D01*
X233938234Y-55296604D01*
X233932602Y-55297904D01*
X233926869Y-55298928D01*
X233921043Y-55299668D01*
X233915131Y-55300118D01*
X233909140Y-55300269D01*
X233485807Y-55300269D01*
X233479816Y-55300118D01*
X233473904Y-55299668D01*
X233468078Y-55298928D01*
X233462345Y-55297904D01*
X233456712Y-55296604D01*
X233451188Y-55295035D01*
X233445779Y-55293205D01*
X233440492Y-55291121D01*
X233435335Y-55288789D01*
X233430316Y-55286218D01*
X233425440Y-55283415D01*
X233420717Y-55280387D01*
X233416153Y-55277141D01*
X233411755Y-55273685D01*
X233407531Y-55270026D01*
X233403488Y-55266171D01*
X233399633Y-55262128D01*
X233395974Y-55257904D01*
X233392518Y-55253506D01*
X233389272Y-55248942D01*
X233386244Y-55244219D01*
X233383441Y-55239344D01*
X233380870Y-55234324D01*
X233378539Y-55229167D01*
X233376454Y-55223880D01*
X233374624Y-55218471D01*
X233373055Y-55212947D01*
X233371755Y-55207314D01*
X233370731Y-55201582D01*
X233369991Y-55195755D01*
X233369541Y-55189843D01*
X233369390Y-55183852D01*
X233369390Y-54760519D01*
X233369541Y-54754528D01*
X233369991Y-54748616D01*
X233370731Y-54742790D01*
X233371755Y-54737057D01*
X233373055Y-54731425D01*
X233374624Y-54725900D01*
X233376454Y-54720491D01*
X233378539Y-54715205D01*
X233380870Y-54710048D01*
X233383441Y-54705028D01*
X233386244Y-54700153D01*
X233389272Y-54695430D01*
X233392518Y-54690865D01*
X233395974Y-54686467D01*
X233399633Y-54682243D01*
X233403488Y-54678200D01*
X233407531Y-54674346D01*
X233411755Y-54670687D01*
X233416153Y-54667231D01*
X233420717Y-54663985D01*
X233425440Y-54660957D01*
X233430316Y-54658154D01*
X233435335Y-54655583D01*
X233440492Y-54653251D01*
X233445779Y-54651167D01*
X233451188Y-54649336D01*
X233456712Y-54647768D01*
X233462345Y-54646468D01*
X233468078Y-54645444D01*
X233473904Y-54644704D01*
X233479816Y-54644254D01*
X233485807Y-54644103D01*
X233909140Y-54644103D01*
X233915131Y-54644254D01*
G37*
G36*
X233915131Y-55612629D02*
G01*
X233921043Y-55613079D01*
X233926869Y-55613819D01*
X233932602Y-55614843D01*
X233938234Y-55616143D01*
X233943759Y-55617711D01*
X233949168Y-55619542D01*
X233954455Y-55621626D01*
X233959611Y-55623958D01*
X233964631Y-55626528D01*
X233969506Y-55629332D01*
X233974230Y-55632360D01*
X233978794Y-55635605D01*
X233983192Y-55639061D01*
X233987416Y-55642720D01*
X233991459Y-55646575D01*
X233995314Y-55650618D01*
X233998973Y-55654842D01*
X234002429Y-55659240D01*
X234005675Y-55663805D01*
X234008703Y-55668528D01*
X234011506Y-55673403D01*
X234014077Y-55678423D01*
X234016408Y-55683580D01*
X234018492Y-55688866D01*
X234020323Y-55694275D01*
X234021892Y-55699800D01*
X234023191Y-55705432D01*
X234024215Y-55711165D01*
X234024956Y-55716991D01*
X234025405Y-55722903D01*
X234025557Y-55728894D01*
X234025557Y-56152227D01*
X234025405Y-56158218D01*
X234024956Y-56164130D01*
X234024215Y-56169957D01*
X234023191Y-56175690D01*
X234021892Y-56181322D01*
X234020323Y-56186846D01*
X234018492Y-56192255D01*
X234016408Y-56197542D01*
X234014077Y-56202699D01*
X234011506Y-56207719D01*
X234008703Y-56212594D01*
X234005675Y-56217317D01*
X234002429Y-56221881D01*
X233998973Y-56226279D01*
X233995314Y-56230503D01*
X233991459Y-56234546D01*
X233987416Y-56238401D01*
X233983192Y-56242060D01*
X233978794Y-56245516D01*
X233974230Y-56248762D01*
X233969506Y-56251790D01*
X233964631Y-56254593D01*
X233959611Y-56257164D01*
X233954455Y-56259495D01*
X233949168Y-56261580D01*
X233943759Y-56263410D01*
X233938234Y-56264979D01*
X233932602Y-56266279D01*
X233926869Y-56267303D01*
X233921043Y-56268043D01*
X233915131Y-56268492D01*
X233909140Y-56268644D01*
X233485807Y-56268644D01*
X233479816Y-56268492D01*
X233473904Y-56268043D01*
X233468078Y-56267303D01*
X233462345Y-56266279D01*
X233456712Y-56264979D01*
X233451188Y-56263410D01*
X233445779Y-56261580D01*
X233440492Y-56259495D01*
X233435335Y-56257164D01*
X233430316Y-56254593D01*
X233425440Y-56251790D01*
X233420717Y-56248762D01*
X233416153Y-56245516D01*
X233411755Y-56242060D01*
X233407531Y-56238401D01*
X233403488Y-56234546D01*
X233399633Y-56230503D01*
X233395974Y-56226279D01*
X233392518Y-56221881D01*
X233389272Y-56217317D01*
X233386244Y-56212594D01*
X233383441Y-56207719D01*
X233380870Y-56202699D01*
X233378539Y-56197542D01*
X233376454Y-56192255D01*
X233374624Y-56186846D01*
X233373055Y-56181322D01*
X233371755Y-56175690D01*
X233370731Y-56169957D01*
X233369991Y-56164130D01*
X233369541Y-56158218D01*
X233369390Y-56152227D01*
X233369390Y-55728894D01*
X233369541Y-55722903D01*
X233369991Y-55716991D01*
X233370731Y-55711165D01*
X233371755Y-55705432D01*
X233373055Y-55699800D01*
X233374624Y-55694275D01*
X233376454Y-55688866D01*
X233378539Y-55683580D01*
X233380870Y-55678423D01*
X233383441Y-55673403D01*
X233386244Y-55668528D01*
X233389272Y-55663805D01*
X233392518Y-55659240D01*
X233395974Y-55654842D01*
X233399633Y-55650618D01*
X233403488Y-55646575D01*
X233407531Y-55642720D01*
X233411755Y-55639061D01*
X233416153Y-55635605D01*
X233420717Y-55632360D01*
X233425440Y-55629332D01*
X233430316Y-55626528D01*
X233435335Y-55623958D01*
X233440492Y-55621626D01*
X233445779Y-55619542D01*
X233451188Y-55617711D01*
X233456712Y-55616143D01*
X233462345Y-55614843D01*
X233468078Y-55613819D01*
X233473904Y-55613079D01*
X233479816Y-55612629D01*
X233485807Y-55612478D01*
X233909140Y-55612478D01*
X233915131Y-55612629D01*
G37*
G36*
X233915131Y-57530858D02*
G01*
X233921043Y-57531308D01*
X233926869Y-57532048D01*
X233932602Y-57533072D01*
X233938234Y-57534372D01*
X233943759Y-57535940D01*
X233949168Y-57537771D01*
X233954455Y-57539855D01*
X233959611Y-57542186D01*
X233964631Y-57544757D01*
X233969506Y-57547561D01*
X233974230Y-57550589D01*
X233978794Y-57553834D01*
X233983192Y-57557290D01*
X233987416Y-57560949D01*
X233991459Y-57564804D01*
X233995314Y-57568847D01*
X233998973Y-57573071D01*
X234002429Y-57577469D01*
X234005675Y-57582034D01*
X234008703Y-57586757D01*
X234011506Y-57591632D01*
X234014077Y-57596652D01*
X234016408Y-57601809D01*
X234018492Y-57607095D01*
X234020323Y-57612505D01*
X234021892Y-57618029D01*
X234023191Y-57623661D01*
X234024215Y-57629394D01*
X234024956Y-57635220D01*
X234025405Y-57641133D01*
X234025557Y-57647123D01*
X234025557Y-58070456D01*
X234025405Y-58076447D01*
X234024956Y-58082359D01*
X234024215Y-58088185D01*
X234023191Y-58093918D01*
X234021892Y-58099550D01*
X234020323Y-58105075D01*
X234018492Y-58110484D01*
X234016408Y-58115771D01*
X234014077Y-58120928D01*
X234011506Y-58125947D01*
X234008703Y-58130822D01*
X234005675Y-58135546D01*
X234002429Y-58140110D01*
X233998973Y-58144508D01*
X233995314Y-58148732D01*
X233991459Y-58152775D01*
X233987416Y-58156630D01*
X233983192Y-58160289D01*
X233978794Y-58163745D01*
X233974230Y-58166991D01*
X233969506Y-58170019D01*
X233964631Y-58172822D01*
X233959611Y-58175393D01*
X233954455Y-58177724D01*
X233949168Y-58179809D01*
X233943759Y-58181639D01*
X233938234Y-58183208D01*
X233932602Y-58184508D01*
X233926869Y-58185532D01*
X233921043Y-58186272D01*
X233915131Y-58186722D01*
X233909140Y-58186873D01*
X233485807Y-58186873D01*
X233479816Y-58186722D01*
X233473904Y-58186272D01*
X233468078Y-58185532D01*
X233462345Y-58184508D01*
X233456712Y-58183208D01*
X233451188Y-58181639D01*
X233445779Y-58179809D01*
X233440492Y-58177724D01*
X233435335Y-58175393D01*
X233430316Y-58172822D01*
X233425440Y-58170019D01*
X233420717Y-58166991D01*
X233416153Y-58163745D01*
X233411755Y-58160289D01*
X233407531Y-58156630D01*
X233403488Y-58152775D01*
X233399633Y-58148732D01*
X233395974Y-58144508D01*
X233392518Y-58140110D01*
X233389272Y-58135546D01*
X233386244Y-58130822D01*
X233383441Y-58125947D01*
X233380870Y-58120928D01*
X233378539Y-58115771D01*
X233376454Y-58110484D01*
X233374624Y-58105075D01*
X233373055Y-58099550D01*
X233371755Y-58093918D01*
X233370731Y-58088185D01*
X233369991Y-58082359D01*
X233369541Y-58076447D01*
X233369390Y-58070456D01*
X233369390Y-57647123D01*
X233369541Y-57641133D01*
X233369991Y-57635220D01*
X233370731Y-57629394D01*
X233371755Y-57623661D01*
X233373055Y-57618029D01*
X233374624Y-57612505D01*
X233376454Y-57607095D01*
X233378539Y-57601809D01*
X233380870Y-57596652D01*
X233383441Y-57591632D01*
X233386244Y-57586757D01*
X233389272Y-57582034D01*
X233392518Y-57577469D01*
X233395974Y-57573071D01*
X233399633Y-57568847D01*
X233403488Y-57564804D01*
X233407531Y-57560949D01*
X233411755Y-57557290D01*
X233416153Y-57553834D01*
X233420717Y-57550589D01*
X233425440Y-57547561D01*
X233430316Y-57544757D01*
X233435335Y-57542186D01*
X233440492Y-57539855D01*
X233445779Y-57537771D01*
X233451188Y-57535940D01*
X233456712Y-57534372D01*
X233462345Y-57533072D01*
X233468078Y-57532048D01*
X233473904Y-57531308D01*
X233479816Y-57530858D01*
X233485807Y-57530706D01*
X233909140Y-57530706D01*
X233915131Y-57530858D01*
G37*
G36*
X233915131Y-57544088D02*
G01*
X233921043Y-57544537D01*
X233926869Y-57545278D01*
X233932602Y-57546301D01*
X233938234Y-57547601D01*
X233943759Y-57549170D01*
X233949168Y-57551000D01*
X233954455Y-57553085D01*
X233959611Y-57555416D01*
X233964631Y-57557987D01*
X233969506Y-57560790D01*
X233974230Y-57563818D01*
X233978794Y-57567064D01*
X233983192Y-57570520D01*
X233987416Y-57574179D01*
X233991459Y-57578034D01*
X233995314Y-57582077D01*
X233998973Y-57586301D01*
X234002429Y-57590699D01*
X234005675Y-57595263D01*
X234008703Y-57599986D01*
X234011506Y-57604862D01*
X234014077Y-57609881D01*
X234016408Y-57615038D01*
X234018492Y-57620325D01*
X234020323Y-57625734D01*
X234021892Y-57631258D01*
X234023191Y-57636891D01*
X234024215Y-57642624D01*
X234024956Y-57648450D01*
X234025405Y-57654362D01*
X234025557Y-57660353D01*
X234025557Y-58083686D01*
X234025405Y-58089677D01*
X234024956Y-58095589D01*
X234024215Y-58101415D01*
X234023191Y-58107148D01*
X234021892Y-58112780D01*
X234020323Y-58118305D01*
X234018492Y-58123714D01*
X234016408Y-58129001D01*
X234014077Y-58134157D01*
X234011506Y-58139177D01*
X234008703Y-58144052D01*
X234005675Y-58148776D01*
X234002429Y-58153340D01*
X233998973Y-58157738D01*
X233995314Y-58161962D01*
X233991459Y-58166005D01*
X233987416Y-58169860D01*
X233983192Y-58173519D01*
X233978794Y-58176975D01*
X233974230Y-58180220D01*
X233969506Y-58183248D01*
X233964631Y-58186052D01*
X233959611Y-58188623D01*
X233954455Y-58190954D01*
X233949168Y-58193038D01*
X233943759Y-58194869D01*
X233938234Y-58196437D01*
X233932602Y-58197737D01*
X233926869Y-58198761D01*
X233921043Y-58199501D01*
X233915131Y-58199951D01*
X233909140Y-58200102D01*
X233485807Y-58200102D01*
X233479816Y-58199951D01*
X233473904Y-58199501D01*
X233468078Y-58198761D01*
X233462345Y-58197737D01*
X233456712Y-58196437D01*
X233451188Y-58194869D01*
X233445779Y-58193038D01*
X233440492Y-58190954D01*
X233435335Y-58188623D01*
X233430316Y-58186052D01*
X233425440Y-58183248D01*
X233420717Y-58180220D01*
X233416153Y-58176975D01*
X233411755Y-58173519D01*
X233407531Y-58169860D01*
X233403488Y-58166005D01*
X233399633Y-58161962D01*
X233395974Y-58157738D01*
X233392518Y-58153340D01*
X233389272Y-58148776D01*
X233386244Y-58144052D01*
X233383441Y-58139177D01*
X233380870Y-58134157D01*
X233378539Y-58129001D01*
X233376454Y-58123714D01*
X233374624Y-58118305D01*
X233373055Y-58112780D01*
X233371755Y-58107148D01*
X233370731Y-58101415D01*
X233369991Y-58095589D01*
X233369541Y-58089677D01*
X233369390Y-58083686D01*
X233369390Y-57660353D01*
X233369541Y-57654362D01*
X233369991Y-57648450D01*
X233370731Y-57642624D01*
X233371755Y-57636891D01*
X233373055Y-57631258D01*
X233374624Y-57625734D01*
X233376454Y-57620325D01*
X233378539Y-57615038D01*
X233380870Y-57609881D01*
X233383441Y-57604862D01*
X233386244Y-57599986D01*
X233389272Y-57595263D01*
X233392518Y-57590699D01*
X233395974Y-57586301D01*
X233399633Y-57582077D01*
X233403488Y-57578034D01*
X233407531Y-57574179D01*
X233411755Y-57570520D01*
X233416153Y-57567064D01*
X233420717Y-57563818D01*
X233425440Y-57560790D01*
X233430316Y-57557987D01*
X233435335Y-57555416D01*
X233440492Y-57553085D01*
X233445779Y-57551000D01*
X233451188Y-57549170D01*
X233456712Y-57547601D01*
X233462345Y-57546301D01*
X233468078Y-57545278D01*
X233473904Y-57544537D01*
X233479816Y-57544088D01*
X233485807Y-57543936D01*
X233909140Y-57543936D01*
X233915131Y-57544088D01*
G37*
G36*
X234878214Y-54644254D02*
G01*
X234884126Y-54644704D01*
X234889952Y-54645444D01*
X234895685Y-54646468D01*
X234901317Y-54647768D01*
X234906842Y-54649336D01*
X234912251Y-54651167D01*
X234917538Y-54653251D01*
X234922695Y-54655583D01*
X234927714Y-54658154D01*
X234932589Y-54660957D01*
X234937313Y-54663985D01*
X234941877Y-54667231D01*
X234946275Y-54670687D01*
X234950499Y-54674346D01*
X234954542Y-54678200D01*
X234958397Y-54682243D01*
X234962056Y-54686467D01*
X234965512Y-54690865D01*
X234968758Y-54695430D01*
X234971786Y-54700153D01*
X234974589Y-54705028D01*
X234977160Y-54710048D01*
X234979491Y-54715205D01*
X234981576Y-54720491D01*
X234983406Y-54725900D01*
X234984975Y-54731425D01*
X234986275Y-54737057D01*
X234987298Y-54742790D01*
X234988039Y-54748616D01*
X234988488Y-54754528D01*
X234988640Y-54760519D01*
X234988640Y-55183852D01*
X234988488Y-55189843D01*
X234988039Y-55195755D01*
X234987298Y-55201582D01*
X234986275Y-55207314D01*
X234984975Y-55212947D01*
X234983406Y-55218471D01*
X234981576Y-55223880D01*
X234979491Y-55229167D01*
X234977160Y-55234324D01*
X234974589Y-55239344D01*
X234971786Y-55244219D01*
X234968758Y-55248942D01*
X234965512Y-55253506D01*
X234962056Y-55257904D01*
X234958397Y-55262128D01*
X234954542Y-55266171D01*
X234950499Y-55270026D01*
X234946275Y-55273685D01*
X234941877Y-55277141D01*
X234937313Y-55280387D01*
X234932589Y-55283415D01*
X234927714Y-55286218D01*
X234922695Y-55288789D01*
X234917538Y-55291121D01*
X234912251Y-55293205D01*
X234906842Y-55295035D01*
X234901317Y-55296604D01*
X234895685Y-55297904D01*
X234889952Y-55298928D01*
X234884126Y-55299668D01*
X234878214Y-55300118D01*
X234872223Y-55300269D01*
X234448890Y-55300269D01*
X234442899Y-55300118D01*
X234436987Y-55299668D01*
X234431161Y-55298928D01*
X234425428Y-55297904D01*
X234419795Y-55296604D01*
X234414271Y-55295035D01*
X234408862Y-55293205D01*
X234403575Y-55291121D01*
X234398418Y-55288789D01*
X234393399Y-55286218D01*
X234388524Y-55283415D01*
X234383800Y-55280387D01*
X234379236Y-55277141D01*
X234374838Y-55273685D01*
X234370614Y-55270026D01*
X234366571Y-55266171D01*
X234362716Y-55262128D01*
X234359057Y-55257904D01*
X234355601Y-55253506D01*
X234352355Y-55248942D01*
X234349327Y-55244219D01*
X234346524Y-55239344D01*
X234343953Y-55234324D01*
X234341622Y-55229167D01*
X234339537Y-55223880D01*
X234337707Y-55218471D01*
X234336138Y-55212947D01*
X234334838Y-55207314D01*
X234333815Y-55201582D01*
X234333074Y-55195755D01*
X234332625Y-55189843D01*
X234332473Y-55183852D01*
X234332473Y-54760519D01*
X234332625Y-54754528D01*
X234333074Y-54748616D01*
X234333815Y-54742790D01*
X234334838Y-54737057D01*
X234336138Y-54731425D01*
X234337707Y-54725900D01*
X234339537Y-54720491D01*
X234341622Y-54715205D01*
X234343953Y-54710048D01*
X234346524Y-54705028D01*
X234349327Y-54700153D01*
X234352355Y-54695430D01*
X234355601Y-54690865D01*
X234359057Y-54686467D01*
X234362716Y-54682243D01*
X234366571Y-54678200D01*
X234370614Y-54674346D01*
X234374838Y-54670687D01*
X234379236Y-54667231D01*
X234383800Y-54663985D01*
X234388524Y-54660957D01*
X234393399Y-54658154D01*
X234398418Y-54655583D01*
X234403575Y-54653251D01*
X234408862Y-54651167D01*
X234414271Y-54649336D01*
X234419795Y-54647768D01*
X234425428Y-54646468D01*
X234431161Y-54645444D01*
X234436987Y-54644704D01*
X234442899Y-54644254D01*
X234448890Y-54644103D01*
X234872223Y-54644103D01*
X234878214Y-54644254D01*
G37*
G36*
X234878214Y-55612629D02*
G01*
X234884126Y-55613079D01*
X234889952Y-55613819D01*
X234895685Y-55614843D01*
X234901317Y-55616143D01*
X234906842Y-55617711D01*
X234912251Y-55619542D01*
X234917538Y-55621626D01*
X234922695Y-55623958D01*
X234927714Y-55626528D01*
X234932589Y-55629332D01*
X234937313Y-55632360D01*
X234941877Y-55635605D01*
X234946275Y-55639061D01*
X234950499Y-55642720D01*
X234954542Y-55646575D01*
X234958397Y-55650618D01*
X234962056Y-55654842D01*
X234965512Y-55659240D01*
X234968758Y-55663805D01*
X234971786Y-55668528D01*
X234974589Y-55673403D01*
X234977160Y-55678423D01*
X234979491Y-55683580D01*
X234981576Y-55688866D01*
X234983406Y-55694275D01*
X234984975Y-55699800D01*
X234986275Y-55705432D01*
X234987298Y-55711165D01*
X234988039Y-55716991D01*
X234988488Y-55722903D01*
X234988640Y-55728894D01*
X234988640Y-56152227D01*
X234988488Y-56158218D01*
X234988039Y-56164130D01*
X234987298Y-56169957D01*
X234986275Y-56175690D01*
X234984975Y-56181322D01*
X234983406Y-56186846D01*
X234981576Y-56192255D01*
X234979491Y-56197542D01*
X234977160Y-56202699D01*
X234974589Y-56207719D01*
X234971786Y-56212594D01*
X234968758Y-56217317D01*
X234965512Y-56221881D01*
X234962056Y-56226279D01*
X234958397Y-56230503D01*
X234954542Y-56234546D01*
X234950499Y-56238401D01*
X234946275Y-56242060D01*
X234941877Y-56245516D01*
X234937313Y-56248762D01*
X234932589Y-56251790D01*
X234927714Y-56254593D01*
X234922695Y-56257164D01*
X234917538Y-56259495D01*
X234912251Y-56261580D01*
X234906842Y-56263410D01*
X234901317Y-56264979D01*
X234895685Y-56266279D01*
X234889952Y-56267303D01*
X234884126Y-56268043D01*
X234878214Y-56268492D01*
X234872223Y-56268644D01*
X234448890Y-56268644D01*
X234442899Y-56268492D01*
X234436987Y-56268043D01*
X234431161Y-56267303D01*
X234425428Y-56266279D01*
X234419795Y-56264979D01*
X234414271Y-56263410D01*
X234408862Y-56261580D01*
X234403575Y-56259495D01*
X234398418Y-56257164D01*
X234393399Y-56254593D01*
X234388524Y-56251790D01*
X234383800Y-56248762D01*
X234379236Y-56245516D01*
X234374838Y-56242060D01*
X234370614Y-56238401D01*
X234366571Y-56234546D01*
X234362716Y-56230503D01*
X234359057Y-56226279D01*
X234355601Y-56221881D01*
X234352355Y-56217317D01*
X234349327Y-56212594D01*
X234346524Y-56207719D01*
X234343953Y-56202699D01*
X234341622Y-56197542D01*
X234339537Y-56192255D01*
X234337707Y-56186846D01*
X234336138Y-56181322D01*
X234334838Y-56175690D01*
X234333815Y-56169957D01*
X234333074Y-56164130D01*
X234332625Y-56158218D01*
X234332473Y-56152227D01*
X234332473Y-55728894D01*
X234332625Y-55722903D01*
X234333074Y-55716991D01*
X234333815Y-55711165D01*
X234334838Y-55705432D01*
X234336138Y-55699800D01*
X234337707Y-55694275D01*
X234339537Y-55688866D01*
X234341622Y-55683580D01*
X234343953Y-55678423D01*
X234346524Y-55673403D01*
X234349327Y-55668528D01*
X234352355Y-55663805D01*
X234355601Y-55659240D01*
X234359057Y-55654842D01*
X234362716Y-55650618D01*
X234366571Y-55646575D01*
X234370614Y-55642720D01*
X234374838Y-55639061D01*
X234379236Y-55635605D01*
X234383800Y-55632360D01*
X234388524Y-55629332D01*
X234393399Y-55626528D01*
X234398418Y-55623958D01*
X234403575Y-55621626D01*
X234408862Y-55619542D01*
X234414271Y-55617711D01*
X234419795Y-55616143D01*
X234425428Y-55614843D01*
X234431161Y-55613819D01*
X234436987Y-55613079D01*
X234442899Y-55612629D01*
X234448890Y-55612478D01*
X234872223Y-55612478D01*
X234878214Y-55612629D01*
G37*
G36*
X234878214Y-56578358D02*
G01*
X234884126Y-56578808D01*
X234889952Y-56579548D01*
X234895685Y-56580572D01*
X234901317Y-56581872D01*
X234906842Y-56583440D01*
X234912251Y-56585271D01*
X234917538Y-56587355D01*
X234922695Y-56589687D01*
X234927714Y-56592257D01*
X234932589Y-56595061D01*
X234937313Y-56598089D01*
X234941877Y-56601335D01*
X234946275Y-56604791D01*
X234950499Y-56608450D01*
X234954542Y-56612304D01*
X234958397Y-56616347D01*
X234962056Y-56620572D01*
X234965512Y-56624969D01*
X234968758Y-56629534D01*
X234971786Y-56634257D01*
X234974589Y-56639132D01*
X234977160Y-56644152D01*
X234979491Y-56649309D01*
X234981576Y-56654595D01*
X234983406Y-56660005D01*
X234984975Y-56665529D01*
X234986275Y-56671161D01*
X234987298Y-56676894D01*
X234988039Y-56682721D01*
X234988488Y-56688633D01*
X234988640Y-56694624D01*
X234988640Y-57117956D01*
X234988488Y-57123947D01*
X234988039Y-57129859D01*
X234987298Y-57135685D01*
X234986275Y-57141418D01*
X234984975Y-57147051D01*
X234983406Y-57152575D01*
X234981576Y-57157984D01*
X234979491Y-57163271D01*
X234977160Y-57168428D01*
X234974589Y-57173447D01*
X234971786Y-57178323D01*
X234968758Y-57183046D01*
X234965512Y-57187610D01*
X234962056Y-57192008D01*
X234958397Y-57196232D01*
X234954542Y-57200275D01*
X234950499Y-57204130D01*
X234946275Y-57207789D01*
X234941877Y-57211245D01*
X234937313Y-57214491D01*
X234932589Y-57217519D01*
X234927714Y-57220322D01*
X234922695Y-57222893D01*
X234917538Y-57225225D01*
X234912251Y-57227309D01*
X234906842Y-57229139D01*
X234901317Y-57230708D01*
X234895685Y-57232008D01*
X234889952Y-57233032D01*
X234884126Y-57233772D01*
X234878214Y-57234222D01*
X234872223Y-57234373D01*
X234448890Y-57234373D01*
X234442899Y-57234222D01*
X234436987Y-57233772D01*
X234431161Y-57233032D01*
X234425428Y-57232008D01*
X234419795Y-57230708D01*
X234414271Y-57229139D01*
X234408862Y-57227309D01*
X234403575Y-57225225D01*
X234398418Y-57222893D01*
X234393399Y-57220322D01*
X234388524Y-57217519D01*
X234383800Y-57214491D01*
X234379236Y-57211245D01*
X234374838Y-57207789D01*
X234370614Y-57204130D01*
X234366571Y-57200275D01*
X234362716Y-57196232D01*
X234359057Y-57192008D01*
X234355601Y-57187610D01*
X234352355Y-57183046D01*
X234349327Y-57178323D01*
X234346524Y-57173447D01*
X234343953Y-57168428D01*
X234341622Y-57163271D01*
X234339537Y-57157984D01*
X234337707Y-57152575D01*
X234336138Y-57147051D01*
X234334838Y-57141418D01*
X234333815Y-57135685D01*
X234333074Y-57129859D01*
X234332625Y-57123947D01*
X234332473Y-57117956D01*
X234332473Y-56694624D01*
X234332625Y-56688633D01*
X234333074Y-56682721D01*
X234333815Y-56676894D01*
X234334838Y-56671161D01*
X234336138Y-56665529D01*
X234337707Y-56660005D01*
X234339537Y-56654595D01*
X234341622Y-56649309D01*
X234343953Y-56644152D01*
X234346524Y-56639132D01*
X234349327Y-56634257D01*
X234352355Y-56629534D01*
X234355601Y-56624969D01*
X234359057Y-56620572D01*
X234362716Y-56616347D01*
X234366571Y-56612304D01*
X234370614Y-56608450D01*
X234374838Y-56604791D01*
X234379236Y-56601335D01*
X234383800Y-56598089D01*
X234388524Y-56595061D01*
X234393399Y-56592257D01*
X234398418Y-56589687D01*
X234403575Y-56587355D01*
X234408862Y-56585271D01*
X234414271Y-56583440D01*
X234419795Y-56581872D01*
X234425428Y-56580572D01*
X234431161Y-56579548D01*
X234436987Y-56578808D01*
X234442899Y-56578358D01*
X234448890Y-56578207D01*
X234872223Y-56578207D01*
X234878214Y-56578358D01*
G37*
G36*
X234878214Y-56578358D02*
G01*
X234884126Y-56578808D01*
X234889952Y-56579548D01*
X234895685Y-56580572D01*
X234901317Y-56581872D01*
X234906842Y-56583440D01*
X234912251Y-56585271D01*
X234917538Y-56587355D01*
X234922695Y-56589687D01*
X234927714Y-56592257D01*
X234932589Y-56595061D01*
X234937313Y-56598089D01*
X234941877Y-56601335D01*
X234946275Y-56604791D01*
X234950499Y-56608450D01*
X234954542Y-56612304D01*
X234958397Y-56616347D01*
X234962056Y-56620572D01*
X234965512Y-56624969D01*
X234968758Y-56629534D01*
X234971786Y-56634257D01*
X234974589Y-56639132D01*
X234977160Y-56644152D01*
X234979491Y-56649309D01*
X234981576Y-56654595D01*
X234983406Y-56660005D01*
X234984975Y-56665529D01*
X234986275Y-56671161D01*
X234987298Y-56676894D01*
X234988039Y-56682721D01*
X234988488Y-56688633D01*
X234988640Y-56694624D01*
X234988640Y-57117956D01*
X234988488Y-57123947D01*
X234988039Y-57129859D01*
X234987298Y-57135685D01*
X234986275Y-57141418D01*
X234984975Y-57147051D01*
X234983406Y-57152575D01*
X234981576Y-57157984D01*
X234979491Y-57163271D01*
X234977160Y-57168428D01*
X234974589Y-57173447D01*
X234971786Y-57178323D01*
X234968758Y-57183046D01*
X234965512Y-57187610D01*
X234962056Y-57192008D01*
X234958397Y-57196232D01*
X234954542Y-57200275D01*
X234950499Y-57204130D01*
X234946275Y-57207789D01*
X234941877Y-57211245D01*
X234937313Y-57214491D01*
X234932589Y-57217519D01*
X234927714Y-57220322D01*
X234922695Y-57222893D01*
X234917538Y-57225225D01*
X234912251Y-57227309D01*
X234906842Y-57229139D01*
X234901317Y-57230708D01*
X234895685Y-57232008D01*
X234889952Y-57233032D01*
X234884126Y-57233772D01*
X234878214Y-57234222D01*
X234872223Y-57234373D01*
X234448890Y-57234373D01*
X234442899Y-57234222D01*
X234436987Y-57233772D01*
X234431161Y-57233032D01*
X234425428Y-57232008D01*
X234419795Y-57230708D01*
X234414271Y-57229139D01*
X234408862Y-57227309D01*
X234403575Y-57225225D01*
X234398418Y-57222893D01*
X234393399Y-57220322D01*
X234388524Y-57217519D01*
X234383800Y-57214491D01*
X234379236Y-57211245D01*
X234374838Y-57207789D01*
X234370614Y-57204130D01*
X234366571Y-57200275D01*
X234362716Y-57196232D01*
X234359057Y-57192008D01*
X234355601Y-57187610D01*
X234352355Y-57183046D01*
X234349327Y-57178323D01*
X234346524Y-57173447D01*
X234343953Y-57168428D01*
X234341622Y-57163271D01*
X234339537Y-57157984D01*
X234337707Y-57152575D01*
X234336138Y-57147051D01*
X234334838Y-57141418D01*
X234333815Y-57135685D01*
X234333074Y-57129859D01*
X234332625Y-57123947D01*
X234332473Y-57117956D01*
X234332473Y-56694624D01*
X234332625Y-56688633D01*
X234333074Y-56682721D01*
X234333815Y-56676894D01*
X234334838Y-56671161D01*
X234336138Y-56665529D01*
X234337707Y-56660005D01*
X234339537Y-56654595D01*
X234341622Y-56649309D01*
X234343953Y-56644152D01*
X234346524Y-56639132D01*
X234349327Y-56634257D01*
X234352355Y-56629534D01*
X234355601Y-56624969D01*
X234359057Y-56620572D01*
X234362716Y-56616347D01*
X234366571Y-56612304D01*
X234370614Y-56608450D01*
X234374838Y-56604791D01*
X234379236Y-56601335D01*
X234383800Y-56598089D01*
X234388524Y-56595061D01*
X234393399Y-56592257D01*
X234398418Y-56589687D01*
X234403575Y-56587355D01*
X234408862Y-56585271D01*
X234414271Y-56583440D01*
X234419795Y-56581872D01*
X234425428Y-56580572D01*
X234431161Y-56579548D01*
X234436987Y-56578808D01*
X234442899Y-56578358D01*
X234448890Y-56578207D01*
X234872223Y-56578207D01*
X234878214Y-56578358D01*
G37*
G36*
X235843943Y-54644254D02*
G01*
X235849855Y-54644704D01*
X235855681Y-54645444D01*
X235861414Y-54646468D01*
X235867046Y-54647768D01*
X235872571Y-54649336D01*
X235877980Y-54651167D01*
X235883267Y-54653251D01*
X235888423Y-54655583D01*
X235893443Y-54658154D01*
X235898318Y-54660957D01*
X235903042Y-54663985D01*
X235907606Y-54667231D01*
X235912004Y-54670687D01*
X235916228Y-54674346D01*
X235920271Y-54678200D01*
X235924126Y-54682243D01*
X235927785Y-54686467D01*
X235931241Y-54690865D01*
X235934487Y-54695430D01*
X235937515Y-54700153D01*
X235940318Y-54705028D01*
X235942889Y-54710048D01*
X235945220Y-54715205D01*
X235947305Y-54720491D01*
X235949135Y-54725900D01*
X235950704Y-54731425D01*
X235952004Y-54737057D01*
X235953027Y-54742790D01*
X235953768Y-54748616D01*
X235954217Y-54754528D01*
X235954369Y-54760519D01*
X235954369Y-55183852D01*
X235954217Y-55189843D01*
X235953768Y-55195755D01*
X235953027Y-55201582D01*
X235952004Y-55207314D01*
X235950704Y-55212947D01*
X235949135Y-55218471D01*
X235947305Y-55223880D01*
X235945220Y-55229167D01*
X235942889Y-55234324D01*
X235940318Y-55239344D01*
X235937515Y-55244219D01*
X235934487Y-55248942D01*
X235931241Y-55253506D01*
X235927785Y-55257904D01*
X235924126Y-55262128D01*
X235920271Y-55266171D01*
X235916228Y-55270026D01*
X235912004Y-55273685D01*
X235907606Y-55277141D01*
X235903042Y-55280387D01*
X235898318Y-55283415D01*
X235893443Y-55286218D01*
X235888423Y-55288789D01*
X235883267Y-55291121D01*
X235877980Y-55293205D01*
X235872571Y-55295035D01*
X235867046Y-55296604D01*
X235861414Y-55297904D01*
X235855681Y-55298928D01*
X235849855Y-55299668D01*
X235843943Y-55300118D01*
X235837952Y-55300269D01*
X235414619Y-55300269D01*
X235408628Y-55300118D01*
X235402716Y-55299668D01*
X235396890Y-55298928D01*
X235391157Y-55297904D01*
X235385525Y-55296604D01*
X235380000Y-55295035D01*
X235374591Y-55293205D01*
X235369304Y-55291121D01*
X235364148Y-55288789D01*
X235359128Y-55286218D01*
X235354253Y-55283415D01*
X235349529Y-55280387D01*
X235344965Y-55277141D01*
X235340567Y-55273685D01*
X235336343Y-55270026D01*
X235332300Y-55266171D01*
X235328445Y-55262128D01*
X235324786Y-55257904D01*
X235321330Y-55253506D01*
X235318084Y-55248942D01*
X235315056Y-55244219D01*
X235312253Y-55239344D01*
X235309682Y-55234324D01*
X235307351Y-55229167D01*
X235305266Y-55223880D01*
X235303436Y-55218471D01*
X235301867Y-55212947D01*
X235300567Y-55207314D01*
X235299544Y-55201582D01*
X235298803Y-55195755D01*
X235298354Y-55189843D01*
X235298202Y-55183852D01*
X235298202Y-54760519D01*
X235298354Y-54754528D01*
X235298803Y-54748616D01*
X235299544Y-54742790D01*
X235300567Y-54737057D01*
X235301867Y-54731425D01*
X235303436Y-54725900D01*
X235305266Y-54720491D01*
X235307351Y-54715205D01*
X235309682Y-54710048D01*
X235312253Y-54705028D01*
X235315056Y-54700153D01*
X235318084Y-54695430D01*
X235321330Y-54690865D01*
X235324786Y-54686467D01*
X235328445Y-54682243D01*
X235332300Y-54678200D01*
X235336343Y-54674346D01*
X235340567Y-54670687D01*
X235344965Y-54667231D01*
X235349529Y-54663985D01*
X235354253Y-54660957D01*
X235359128Y-54658154D01*
X235364148Y-54655583D01*
X235369304Y-54653251D01*
X235374591Y-54651167D01*
X235380000Y-54649336D01*
X235385525Y-54647768D01*
X235391157Y-54646468D01*
X235396890Y-54645444D01*
X235402716Y-54644704D01*
X235408628Y-54644254D01*
X235414619Y-54644103D01*
X235837952Y-54644103D01*
X235843943Y-54644254D01*
G37*
G36*
X235843943Y-55612629D02*
G01*
X235849855Y-55613079D01*
X235855681Y-55613819D01*
X235861414Y-55614843D01*
X235867046Y-55616143D01*
X235872571Y-55617711D01*
X235877980Y-55619542D01*
X235883267Y-55621626D01*
X235888423Y-55623958D01*
X235893443Y-55626528D01*
X235898318Y-55629332D01*
X235903042Y-55632360D01*
X235907606Y-55635605D01*
X235912004Y-55639061D01*
X235916228Y-55642720D01*
X235920271Y-55646575D01*
X235924126Y-55650618D01*
X235927785Y-55654842D01*
X235931241Y-55659240D01*
X235934487Y-55663805D01*
X235937515Y-55668528D01*
X235940318Y-55673403D01*
X235942889Y-55678423D01*
X235945220Y-55683580D01*
X235947305Y-55688866D01*
X235949135Y-55694275D01*
X235950704Y-55699800D01*
X235952004Y-55705432D01*
X235953027Y-55711165D01*
X235953768Y-55716991D01*
X235954217Y-55722903D01*
X235954369Y-55728894D01*
X235954369Y-56152227D01*
X235954217Y-56158218D01*
X235953768Y-56164130D01*
X235953027Y-56169957D01*
X235952004Y-56175690D01*
X235950704Y-56181322D01*
X235949135Y-56186846D01*
X235947305Y-56192255D01*
X235945220Y-56197542D01*
X235942889Y-56202699D01*
X235940318Y-56207719D01*
X235937515Y-56212594D01*
X235934487Y-56217317D01*
X235931241Y-56221881D01*
X235927785Y-56226279D01*
X235924126Y-56230503D01*
X235920271Y-56234546D01*
X235916228Y-56238401D01*
X235912004Y-56242060D01*
X235907606Y-56245516D01*
X235903042Y-56248762D01*
X235898318Y-56251790D01*
X235893443Y-56254593D01*
X235888423Y-56257164D01*
X235883267Y-56259495D01*
X235877980Y-56261580D01*
X235872571Y-56263410D01*
X235867046Y-56264979D01*
X235861414Y-56266279D01*
X235855681Y-56267303D01*
X235849855Y-56268043D01*
X235843943Y-56268492D01*
X235837952Y-56268644D01*
X235414619Y-56268644D01*
X235408628Y-56268492D01*
X235402716Y-56268043D01*
X235396890Y-56267303D01*
X235391157Y-56266279D01*
X235385525Y-56264979D01*
X235380000Y-56263410D01*
X235374591Y-56261580D01*
X235369304Y-56259495D01*
X235364148Y-56257164D01*
X235359128Y-56254593D01*
X235354253Y-56251790D01*
X235349529Y-56248762D01*
X235344965Y-56245516D01*
X235340567Y-56242060D01*
X235336343Y-56238401D01*
X235332300Y-56234546D01*
X235328445Y-56230503D01*
X235324786Y-56226279D01*
X235321330Y-56221881D01*
X235318084Y-56217317D01*
X235315056Y-56212594D01*
X235312253Y-56207719D01*
X235309682Y-56202699D01*
X235307351Y-56197542D01*
X235305266Y-56192255D01*
X235303436Y-56186846D01*
X235301867Y-56181322D01*
X235300567Y-56175690D01*
X235299544Y-56169957D01*
X235298803Y-56164130D01*
X235298354Y-56158218D01*
X235298202Y-56152227D01*
X235298202Y-55728894D01*
X235298354Y-55722903D01*
X235298803Y-55716991D01*
X235299544Y-55711165D01*
X235300567Y-55705432D01*
X235301867Y-55699800D01*
X235303436Y-55694275D01*
X235305266Y-55688866D01*
X235307351Y-55683580D01*
X235309682Y-55678423D01*
X235312253Y-55673403D01*
X235315056Y-55668528D01*
X235318084Y-55663805D01*
X235321330Y-55659240D01*
X235324786Y-55654842D01*
X235328445Y-55650618D01*
X235332300Y-55646575D01*
X235336343Y-55642720D01*
X235340567Y-55639061D01*
X235344965Y-55635605D01*
X235349529Y-55632360D01*
X235354253Y-55629332D01*
X235359128Y-55626528D01*
X235364148Y-55623958D01*
X235369304Y-55621626D01*
X235374591Y-55619542D01*
X235380000Y-55617711D01*
X235385525Y-55616143D01*
X235391157Y-55614843D01*
X235396890Y-55613819D01*
X235402716Y-55613079D01*
X235408628Y-55612629D01*
X235414619Y-55612478D01*
X235837952Y-55612478D01*
X235843943Y-55612629D01*
G37*
G36*
X235843943Y-56578358D02*
G01*
X235849855Y-56578808D01*
X235855681Y-56579548D01*
X235861414Y-56580572D01*
X235867046Y-56581872D01*
X235872571Y-56583440D01*
X235877980Y-56585271D01*
X235883267Y-56587355D01*
X235888423Y-56589687D01*
X235893443Y-56592257D01*
X235898318Y-56595061D01*
X235903042Y-56598089D01*
X235907606Y-56601335D01*
X235912004Y-56604791D01*
X235916228Y-56608450D01*
X235920271Y-56612304D01*
X235924126Y-56616347D01*
X235927785Y-56620572D01*
X235931241Y-56624969D01*
X235934487Y-56629534D01*
X235937515Y-56634257D01*
X235940318Y-56639132D01*
X235942889Y-56644152D01*
X235945220Y-56649309D01*
X235947305Y-56654595D01*
X235949135Y-56660005D01*
X235950704Y-56665529D01*
X235952004Y-56671161D01*
X235953027Y-56676894D01*
X235953768Y-56682721D01*
X235954217Y-56688633D01*
X235954369Y-56694624D01*
X235954369Y-57117956D01*
X235954217Y-57123947D01*
X235953768Y-57129859D01*
X235953027Y-57135685D01*
X235952004Y-57141418D01*
X235950704Y-57147051D01*
X235949135Y-57152575D01*
X235947305Y-57157984D01*
X235945220Y-57163271D01*
X235942889Y-57168428D01*
X235940318Y-57173447D01*
X235937515Y-57178323D01*
X235934487Y-57183046D01*
X235931241Y-57187610D01*
X235927785Y-57192008D01*
X235924126Y-57196232D01*
X235920271Y-57200275D01*
X235916228Y-57204130D01*
X235912004Y-57207789D01*
X235907606Y-57211245D01*
X235903042Y-57214491D01*
X235898318Y-57217519D01*
X235893443Y-57220322D01*
X235888423Y-57222893D01*
X235883267Y-57225225D01*
X235877980Y-57227309D01*
X235872571Y-57229139D01*
X235867046Y-57230708D01*
X235861414Y-57232008D01*
X235855681Y-57233032D01*
X235849855Y-57233772D01*
X235843943Y-57234222D01*
X235837952Y-57234373D01*
X235414619Y-57234373D01*
X235408628Y-57234222D01*
X235402716Y-57233772D01*
X235396890Y-57233032D01*
X235391157Y-57232008D01*
X235385525Y-57230708D01*
X235380000Y-57229139D01*
X235374591Y-57227309D01*
X235369304Y-57225225D01*
X235364148Y-57222893D01*
X235359128Y-57220322D01*
X235354253Y-57217519D01*
X235349529Y-57214491D01*
X235344965Y-57211245D01*
X235340567Y-57207789D01*
X235336343Y-57204130D01*
X235332300Y-57200275D01*
X235328445Y-57196232D01*
X235324786Y-57192008D01*
X235321330Y-57187610D01*
X235318084Y-57183046D01*
X235315056Y-57178323D01*
X235312253Y-57173447D01*
X235309682Y-57168428D01*
X235307351Y-57163271D01*
X235305266Y-57157984D01*
X235303436Y-57152575D01*
X235301867Y-57147051D01*
X235300567Y-57141418D01*
X235299544Y-57135685D01*
X235298803Y-57129859D01*
X235298354Y-57123947D01*
X235298202Y-57117956D01*
X235298202Y-56694624D01*
X235298354Y-56688633D01*
X235298803Y-56682721D01*
X235299544Y-56676894D01*
X235300567Y-56671161D01*
X235301867Y-56665529D01*
X235303436Y-56660005D01*
X235305266Y-56654595D01*
X235307351Y-56649309D01*
X235309682Y-56644152D01*
X235312253Y-56639132D01*
X235315056Y-56634257D01*
X235318084Y-56629534D01*
X235321330Y-56624969D01*
X235324786Y-56620572D01*
X235328445Y-56616347D01*
X235332300Y-56612304D01*
X235336343Y-56608450D01*
X235340567Y-56604791D01*
X235344965Y-56601335D01*
X235349529Y-56598089D01*
X235354253Y-56595061D01*
X235359128Y-56592257D01*
X235364148Y-56589687D01*
X235369304Y-56587355D01*
X235374591Y-56585271D01*
X235380000Y-56583440D01*
X235385525Y-56581872D01*
X235391157Y-56580572D01*
X235396890Y-56579548D01*
X235402716Y-56578808D01*
X235408628Y-56578358D01*
X235414619Y-56578207D01*
X235837952Y-56578207D01*
X235843943Y-56578358D01*
G37*
G36*
X236807026Y-54644254D02*
G01*
X236812938Y-54644704D01*
X236818764Y-54645444D01*
X236824497Y-54646468D01*
X236830130Y-54647768D01*
X236835654Y-54649336D01*
X236841063Y-54651167D01*
X236846350Y-54653251D01*
X236851507Y-54655583D01*
X236856526Y-54658154D01*
X236861402Y-54660957D01*
X236866125Y-54663985D01*
X236870689Y-54667231D01*
X236875087Y-54670687D01*
X236879311Y-54674346D01*
X236883354Y-54678200D01*
X236887209Y-54682243D01*
X236890868Y-54686467D01*
X236894324Y-54690865D01*
X236897570Y-54695430D01*
X236900598Y-54700153D01*
X236903401Y-54705028D01*
X236905972Y-54710048D01*
X236908304Y-54715205D01*
X236910388Y-54720491D01*
X236912218Y-54725900D01*
X236913787Y-54731425D01*
X236915087Y-54737057D01*
X236916111Y-54742790D01*
X236916851Y-54748616D01*
X236917301Y-54754528D01*
X236917452Y-54760519D01*
X236917452Y-55183852D01*
X236917301Y-55189843D01*
X236916851Y-55195755D01*
X236916111Y-55201582D01*
X236915087Y-55207314D01*
X236913787Y-55212947D01*
X236912218Y-55218471D01*
X236910388Y-55223880D01*
X236908304Y-55229167D01*
X236905972Y-55234324D01*
X236903401Y-55239344D01*
X236900598Y-55244219D01*
X236897570Y-55248942D01*
X236894324Y-55253506D01*
X236890868Y-55257904D01*
X236887209Y-55262128D01*
X236883354Y-55266171D01*
X236879311Y-55270026D01*
X236875087Y-55273685D01*
X236870689Y-55277141D01*
X236866125Y-55280387D01*
X236861402Y-55283415D01*
X236856526Y-55286218D01*
X236851507Y-55288789D01*
X236846350Y-55291121D01*
X236841063Y-55293205D01*
X236835654Y-55295035D01*
X236830130Y-55296604D01*
X236824497Y-55297904D01*
X236818764Y-55298928D01*
X236812938Y-55299668D01*
X236807026Y-55300118D01*
X236801035Y-55300269D01*
X236377702Y-55300269D01*
X236371711Y-55300118D01*
X236365799Y-55299668D01*
X236359973Y-55298928D01*
X236354240Y-55297904D01*
X236348608Y-55296604D01*
X236343083Y-55295035D01*
X236337674Y-55293205D01*
X236332387Y-55291121D01*
X236327231Y-55288789D01*
X236322211Y-55286218D01*
X236317336Y-55283415D01*
X236312612Y-55280387D01*
X236308048Y-55277141D01*
X236303650Y-55273685D01*
X236299426Y-55270026D01*
X236295383Y-55266171D01*
X236291528Y-55262128D01*
X236287869Y-55257904D01*
X236284413Y-55253506D01*
X236281168Y-55248942D01*
X236278140Y-55244219D01*
X236275336Y-55239344D01*
X236272765Y-55234324D01*
X236270434Y-55229167D01*
X236268350Y-55223880D01*
X236266519Y-55218471D01*
X236264951Y-55212947D01*
X236263651Y-55207314D01*
X236262627Y-55201582D01*
X236261887Y-55195755D01*
X236261437Y-55189843D01*
X236261286Y-55183852D01*
X236261286Y-54760519D01*
X236261437Y-54754528D01*
X236261887Y-54748616D01*
X236262627Y-54742790D01*
X236263651Y-54737057D01*
X236264951Y-54731425D01*
X236266519Y-54725900D01*
X236268350Y-54720491D01*
X236270434Y-54715205D01*
X236272765Y-54710048D01*
X236275336Y-54705028D01*
X236278140Y-54700153D01*
X236281168Y-54695430D01*
X236284413Y-54690865D01*
X236287869Y-54686467D01*
X236291528Y-54682243D01*
X236295383Y-54678200D01*
X236299426Y-54674346D01*
X236303650Y-54670687D01*
X236308048Y-54667231D01*
X236312612Y-54663985D01*
X236317336Y-54660957D01*
X236322211Y-54658154D01*
X236327231Y-54655583D01*
X236332387Y-54653251D01*
X236337674Y-54651167D01*
X236343083Y-54649336D01*
X236348608Y-54647768D01*
X236354240Y-54646468D01*
X236359973Y-54645444D01*
X236365799Y-54644704D01*
X236371711Y-54644254D01*
X236377702Y-54644103D01*
X236801035Y-54644103D01*
X236807026Y-54644254D01*
G37*
G36*
X236807026Y-55612629D02*
G01*
X236812938Y-55613079D01*
X236818764Y-55613819D01*
X236824497Y-55614843D01*
X236830130Y-55616143D01*
X236835654Y-55617711D01*
X236841063Y-55619542D01*
X236846350Y-55621626D01*
X236851507Y-55623958D01*
X236856526Y-55626528D01*
X236861402Y-55629332D01*
X236866125Y-55632360D01*
X236870689Y-55635605D01*
X236875087Y-55639061D01*
X236879311Y-55642720D01*
X236883354Y-55646575D01*
X236887209Y-55650618D01*
X236890868Y-55654842D01*
X236894324Y-55659240D01*
X236897570Y-55663805D01*
X236900598Y-55668528D01*
X236903401Y-55673403D01*
X236905972Y-55678423D01*
X236908304Y-55683580D01*
X236910388Y-55688866D01*
X236912218Y-55694275D01*
X236913787Y-55699800D01*
X236915087Y-55705432D01*
X236916111Y-55711165D01*
X236916851Y-55716991D01*
X236917301Y-55722903D01*
X236917452Y-55728894D01*
X236917452Y-56152227D01*
X236917301Y-56158218D01*
X236916851Y-56164130D01*
X236916111Y-56169957D01*
X236915087Y-56175690D01*
X236913787Y-56181322D01*
X236912218Y-56186846D01*
X236910388Y-56192255D01*
X236908304Y-56197542D01*
X236905972Y-56202699D01*
X236903401Y-56207719D01*
X236900598Y-56212594D01*
X236897570Y-56217317D01*
X236894324Y-56221881D01*
X236890868Y-56226279D01*
X236887209Y-56230503D01*
X236883354Y-56234546D01*
X236879311Y-56238401D01*
X236875087Y-56242060D01*
X236870689Y-56245516D01*
X236866125Y-56248762D01*
X236861402Y-56251790D01*
X236856526Y-56254593D01*
X236851507Y-56257164D01*
X236846350Y-56259495D01*
X236841063Y-56261580D01*
X236835654Y-56263410D01*
X236830130Y-56264979D01*
X236824497Y-56266279D01*
X236818764Y-56267303D01*
X236812938Y-56268043D01*
X236807026Y-56268492D01*
X236801035Y-56268644D01*
X236377702Y-56268644D01*
X236371711Y-56268492D01*
X236365799Y-56268043D01*
X236359973Y-56267303D01*
X236354240Y-56266279D01*
X236348608Y-56264979D01*
X236343083Y-56263410D01*
X236337674Y-56261580D01*
X236332387Y-56259495D01*
X236327231Y-56257164D01*
X236322211Y-56254593D01*
X236317336Y-56251790D01*
X236312612Y-56248762D01*
X236308048Y-56245516D01*
X236303650Y-56242060D01*
X236299426Y-56238401D01*
X236295383Y-56234546D01*
X236291528Y-56230503D01*
X236287869Y-56226279D01*
X236284413Y-56221881D01*
X236281168Y-56217317D01*
X236278140Y-56212594D01*
X236275336Y-56207719D01*
X236272765Y-56202699D01*
X236270434Y-56197542D01*
X236268350Y-56192255D01*
X236266519Y-56186846D01*
X236264951Y-56181322D01*
X236263651Y-56175690D01*
X236262627Y-56169957D01*
X236261887Y-56164130D01*
X236261437Y-56158218D01*
X236261286Y-56152227D01*
X236261286Y-55728894D01*
X236261437Y-55722903D01*
X236261887Y-55716991D01*
X236262627Y-55711165D01*
X236263651Y-55705432D01*
X236264951Y-55699800D01*
X236266519Y-55694275D01*
X236268350Y-55688866D01*
X236270434Y-55683580D01*
X236272765Y-55678423D01*
X236275336Y-55673403D01*
X236278140Y-55668528D01*
X236281168Y-55663805D01*
X236284413Y-55659240D01*
X236287869Y-55654842D01*
X236291528Y-55650618D01*
X236295383Y-55646575D01*
X236299426Y-55642720D01*
X236303650Y-55639061D01*
X236308048Y-55635605D01*
X236312612Y-55632360D01*
X236317336Y-55629332D01*
X236322211Y-55626528D01*
X236327231Y-55623958D01*
X236332387Y-55621626D01*
X236337674Y-55619542D01*
X236343083Y-55617711D01*
X236348608Y-55616143D01*
X236354240Y-55614843D01*
X236359973Y-55613819D01*
X236365799Y-55613079D01*
X236371711Y-55612629D01*
X236377702Y-55612478D01*
X236801035Y-55612478D01*
X236807026Y-55612629D01*
G37*
G36*
X236807026Y-56578358D02*
G01*
X236812938Y-56578808D01*
X236818764Y-56579548D01*
X236824497Y-56580572D01*
X236830130Y-56581872D01*
X236835654Y-56583440D01*
X236841063Y-56585271D01*
X236846350Y-56587355D01*
X236851507Y-56589687D01*
X236856526Y-56592257D01*
X236861402Y-56595061D01*
X236866125Y-56598089D01*
X236870689Y-56601335D01*
X236875087Y-56604791D01*
X236879311Y-56608450D01*
X236883354Y-56612304D01*
X236887209Y-56616347D01*
X236890868Y-56620572D01*
X236894324Y-56624969D01*
X236897570Y-56629534D01*
X236900598Y-56634257D01*
X236903401Y-56639132D01*
X236905972Y-56644152D01*
X236908304Y-56649309D01*
X236910388Y-56654595D01*
X236912218Y-56660005D01*
X236913787Y-56665529D01*
X236915087Y-56671161D01*
X236916111Y-56676894D01*
X236916851Y-56682721D01*
X236917301Y-56688633D01*
X236917452Y-56694624D01*
X236917452Y-57117956D01*
X236917301Y-57123947D01*
X236916851Y-57129859D01*
X236916111Y-57135685D01*
X236915087Y-57141418D01*
X236913787Y-57147051D01*
X236912218Y-57152575D01*
X236910388Y-57157984D01*
X236908304Y-57163271D01*
X236905972Y-57168428D01*
X236903401Y-57173447D01*
X236900598Y-57178323D01*
X236897570Y-57183046D01*
X236894324Y-57187610D01*
X236890868Y-57192008D01*
X236887209Y-57196232D01*
X236883354Y-57200275D01*
X236879311Y-57204130D01*
X236875087Y-57207789D01*
X236870689Y-57211245D01*
X236866125Y-57214491D01*
X236861402Y-57217519D01*
X236856526Y-57220322D01*
X236851507Y-57222893D01*
X236846350Y-57225225D01*
X236841063Y-57227309D01*
X236835654Y-57229139D01*
X236830130Y-57230708D01*
X236824497Y-57232008D01*
X236818764Y-57233032D01*
X236812938Y-57233772D01*
X236807026Y-57234222D01*
X236801035Y-57234373D01*
X236377702Y-57234373D01*
X236371711Y-57234222D01*
X236365799Y-57233772D01*
X236359973Y-57233032D01*
X236354240Y-57232008D01*
X236348608Y-57230708D01*
X236343083Y-57229139D01*
X236337674Y-57227309D01*
X236332387Y-57225225D01*
X236327231Y-57222893D01*
X236322211Y-57220322D01*
X236317336Y-57217519D01*
X236312612Y-57214491D01*
X236308048Y-57211245D01*
X236303650Y-57207789D01*
X236299426Y-57204130D01*
X236295383Y-57200275D01*
X236291528Y-57196232D01*
X236287869Y-57192008D01*
X236284413Y-57187610D01*
X236281168Y-57183046D01*
X236278140Y-57178323D01*
X236275336Y-57173447D01*
X236272765Y-57168428D01*
X236270434Y-57163271D01*
X236268350Y-57157984D01*
X236266519Y-57152575D01*
X236264951Y-57147051D01*
X236263651Y-57141418D01*
X236262627Y-57135685D01*
X236261887Y-57129859D01*
X236261437Y-57123947D01*
X236261286Y-57117956D01*
X236261286Y-56694624D01*
X236261437Y-56688633D01*
X236261887Y-56682721D01*
X236262627Y-56676894D01*
X236263651Y-56671161D01*
X236264951Y-56665529D01*
X236266519Y-56660005D01*
X236268350Y-56654595D01*
X236270434Y-56649309D01*
X236272765Y-56644152D01*
X236275336Y-56639132D01*
X236278140Y-56634257D01*
X236281168Y-56629534D01*
X236284413Y-56624969D01*
X236287869Y-56620572D01*
X236291528Y-56616347D01*
X236295383Y-56612304D01*
X236299426Y-56608450D01*
X236303650Y-56604791D01*
X236308048Y-56601335D01*
X236312612Y-56598089D01*
X236317336Y-56595061D01*
X236322211Y-56592257D01*
X236327231Y-56589687D01*
X236332387Y-56587355D01*
X236337674Y-56585271D01*
X236343083Y-56583440D01*
X236348608Y-56581872D01*
X236354240Y-56580572D01*
X236359973Y-56579548D01*
X236365799Y-56578808D01*
X236371711Y-56578358D01*
X236377702Y-56578207D01*
X236801035Y-56578207D01*
X236807026Y-56578358D01*
G37*
G36*
X237778047Y-54644254D02*
G01*
X237783959Y-54644704D01*
X237789785Y-54645444D01*
X237795518Y-54646468D01*
X237801150Y-54647768D01*
X237806675Y-54649336D01*
X237812084Y-54651167D01*
X237817371Y-54653251D01*
X237822527Y-54655583D01*
X237827547Y-54658154D01*
X237832422Y-54660957D01*
X237837146Y-54663985D01*
X237841710Y-54667231D01*
X237846108Y-54670687D01*
X237850332Y-54674346D01*
X237854375Y-54678200D01*
X237858230Y-54682243D01*
X237861889Y-54686467D01*
X237865345Y-54690865D01*
X237868591Y-54695430D01*
X237871619Y-54700153D01*
X237874422Y-54705028D01*
X237876993Y-54710048D01*
X237879324Y-54715205D01*
X237881409Y-54720491D01*
X237883239Y-54725900D01*
X237884808Y-54731425D01*
X237886108Y-54737057D01*
X237887131Y-54742790D01*
X237887872Y-54748616D01*
X237888321Y-54754528D01*
X237888473Y-54760519D01*
X237888473Y-55183852D01*
X237888321Y-55189843D01*
X237887872Y-55195755D01*
X237887131Y-55201582D01*
X237886108Y-55207314D01*
X237884808Y-55212947D01*
X237883239Y-55218471D01*
X237881409Y-55223880D01*
X237879324Y-55229167D01*
X237876993Y-55234324D01*
X237874422Y-55239344D01*
X237871619Y-55244219D01*
X237868591Y-55248942D01*
X237865345Y-55253506D01*
X237861889Y-55257904D01*
X237858230Y-55262128D01*
X237854375Y-55266171D01*
X237850332Y-55270026D01*
X237846108Y-55273685D01*
X237841710Y-55277141D01*
X237837146Y-55280387D01*
X237832422Y-55283415D01*
X237827547Y-55286218D01*
X237822527Y-55288789D01*
X237817371Y-55291121D01*
X237812084Y-55293205D01*
X237806675Y-55295035D01*
X237801150Y-55296604D01*
X237795518Y-55297904D01*
X237789785Y-55298928D01*
X237783959Y-55299668D01*
X237778047Y-55300118D01*
X237772056Y-55300269D01*
X237348723Y-55300269D01*
X237342732Y-55300118D01*
X237336820Y-55299668D01*
X237330994Y-55298928D01*
X237325261Y-55297904D01*
X237319629Y-55296604D01*
X237314104Y-55295035D01*
X237308695Y-55293205D01*
X237303408Y-55291121D01*
X237298252Y-55288789D01*
X237293232Y-55286218D01*
X237288357Y-55283415D01*
X237283633Y-55280387D01*
X237279069Y-55277141D01*
X237274671Y-55273685D01*
X237270447Y-55270026D01*
X237266404Y-55266171D01*
X237262549Y-55262128D01*
X237258890Y-55257904D01*
X237255434Y-55253506D01*
X237252188Y-55248942D01*
X237249160Y-55244219D01*
X237246357Y-55239344D01*
X237243786Y-55234324D01*
X237241455Y-55229167D01*
X237239370Y-55223880D01*
X237237540Y-55218471D01*
X237235971Y-55212947D01*
X237234671Y-55207314D01*
X237233648Y-55201582D01*
X237232907Y-55195755D01*
X237232458Y-55189843D01*
X237232306Y-55183852D01*
X237232306Y-54760519D01*
X237232458Y-54754528D01*
X237232907Y-54748616D01*
X237233648Y-54742790D01*
X237234671Y-54737057D01*
X237235971Y-54731425D01*
X237237540Y-54725900D01*
X237239370Y-54720491D01*
X237241455Y-54715205D01*
X237243786Y-54710048D01*
X237246357Y-54705028D01*
X237249160Y-54700153D01*
X237252188Y-54695430D01*
X237255434Y-54690865D01*
X237258890Y-54686467D01*
X237262549Y-54682243D01*
X237266404Y-54678200D01*
X237270447Y-54674346D01*
X237274671Y-54670687D01*
X237279069Y-54667231D01*
X237283633Y-54663985D01*
X237288357Y-54660957D01*
X237293232Y-54658154D01*
X237298252Y-54655583D01*
X237303408Y-54653251D01*
X237308695Y-54651167D01*
X237314104Y-54649336D01*
X237319629Y-54647768D01*
X237325261Y-54646468D01*
X237330994Y-54645444D01*
X237336820Y-54644704D01*
X237342732Y-54644254D01*
X237348723Y-54644103D01*
X237772056Y-54644103D01*
X237778047Y-54644254D01*
G37*
G36*
X237778047Y-55612629D02*
G01*
X237783959Y-55613079D01*
X237789785Y-55613819D01*
X237795518Y-55614843D01*
X237801150Y-55616143D01*
X237806675Y-55617711D01*
X237812084Y-55619542D01*
X237817371Y-55621626D01*
X237822527Y-55623958D01*
X237827547Y-55626528D01*
X237832422Y-55629332D01*
X237837146Y-55632360D01*
X237841710Y-55635605D01*
X237846108Y-55639061D01*
X237850332Y-55642720D01*
X237854375Y-55646575D01*
X237858230Y-55650618D01*
X237861889Y-55654842D01*
X237865345Y-55659240D01*
X237868591Y-55663805D01*
X237871619Y-55668528D01*
X237874422Y-55673403D01*
X237876993Y-55678423D01*
X237879324Y-55683580D01*
X237881409Y-55688866D01*
X237883239Y-55694275D01*
X237884808Y-55699800D01*
X237886108Y-55705432D01*
X237887131Y-55711165D01*
X237887872Y-55716991D01*
X237888321Y-55722903D01*
X237888473Y-55728894D01*
X237888473Y-56152227D01*
X237888321Y-56158218D01*
X237887872Y-56164130D01*
X237887131Y-56169957D01*
X237886108Y-56175690D01*
X237884808Y-56181322D01*
X237883239Y-56186846D01*
X237881409Y-56192255D01*
X237879324Y-56197542D01*
X237876993Y-56202699D01*
X237874422Y-56207719D01*
X237871619Y-56212594D01*
X237868591Y-56217317D01*
X237865345Y-56221881D01*
X237861889Y-56226279D01*
X237858230Y-56230503D01*
X237854375Y-56234546D01*
X237850332Y-56238401D01*
X237846108Y-56242060D01*
X237841710Y-56245516D01*
X237837146Y-56248762D01*
X237832422Y-56251790D01*
X237827547Y-56254593D01*
X237822527Y-56257164D01*
X237817371Y-56259495D01*
X237812084Y-56261580D01*
X237806675Y-56263410D01*
X237801150Y-56264979D01*
X237795518Y-56266279D01*
X237789785Y-56267303D01*
X237783959Y-56268043D01*
X237778047Y-56268492D01*
X237772056Y-56268644D01*
X237348723Y-56268644D01*
X237342732Y-56268492D01*
X237336820Y-56268043D01*
X237330994Y-56267303D01*
X237325261Y-56266279D01*
X237319629Y-56264979D01*
X237314104Y-56263410D01*
X237308695Y-56261580D01*
X237303408Y-56259495D01*
X237298252Y-56257164D01*
X237293232Y-56254593D01*
X237288357Y-56251790D01*
X237283633Y-56248762D01*
X237279069Y-56245516D01*
X237274671Y-56242060D01*
X237270447Y-56238401D01*
X237266404Y-56234546D01*
X237262549Y-56230503D01*
X237258890Y-56226279D01*
X237255434Y-56221881D01*
X237252188Y-56217317D01*
X237249160Y-56212594D01*
X237246357Y-56207719D01*
X237243786Y-56202699D01*
X237241455Y-56197542D01*
X237239370Y-56192255D01*
X237237540Y-56186846D01*
X237235971Y-56181322D01*
X237234671Y-56175690D01*
X237233648Y-56169957D01*
X237232907Y-56164130D01*
X237232458Y-56158218D01*
X237232306Y-56152227D01*
X237232306Y-55728894D01*
X237232458Y-55722903D01*
X237232907Y-55716991D01*
X237233648Y-55711165D01*
X237234671Y-55705432D01*
X237235971Y-55699800D01*
X237237540Y-55694275D01*
X237239370Y-55688866D01*
X237241455Y-55683580D01*
X237243786Y-55678423D01*
X237246357Y-55673403D01*
X237249160Y-55668528D01*
X237252188Y-55663805D01*
X237255434Y-55659240D01*
X237258890Y-55654842D01*
X237262549Y-55650618D01*
X237266404Y-55646575D01*
X237270447Y-55642720D01*
X237274671Y-55639061D01*
X237279069Y-55635605D01*
X237283633Y-55632360D01*
X237288357Y-55629332D01*
X237293232Y-55626528D01*
X237298252Y-55623958D01*
X237303408Y-55621626D01*
X237308695Y-55619542D01*
X237314104Y-55617711D01*
X237319629Y-55616143D01*
X237325261Y-55614843D01*
X237330994Y-55613819D01*
X237336820Y-55613079D01*
X237342732Y-55612629D01*
X237348723Y-55612478D01*
X237772056Y-55612478D01*
X237778047Y-55612629D01*
G37*
G36*
X237778047Y-56578358D02*
G01*
X237783959Y-56578808D01*
X237789785Y-56579548D01*
X237795518Y-56580572D01*
X237801150Y-56581872D01*
X237806675Y-56583440D01*
X237812084Y-56585271D01*
X237817371Y-56587355D01*
X237822527Y-56589687D01*
X237827547Y-56592257D01*
X237832422Y-56595061D01*
X237837146Y-56598089D01*
X237841710Y-56601335D01*
X237846108Y-56604791D01*
X237850332Y-56608450D01*
X237854375Y-56612304D01*
X237858230Y-56616347D01*
X237861889Y-56620572D01*
X237865345Y-56624969D01*
X237868591Y-56629534D01*
X237871619Y-56634257D01*
X237874422Y-56639132D01*
X237876993Y-56644152D01*
X237879324Y-56649309D01*
X237881409Y-56654595D01*
X237883239Y-56660005D01*
X237884808Y-56665529D01*
X237886108Y-56671161D01*
X237887131Y-56676894D01*
X237887872Y-56682721D01*
X237888321Y-56688633D01*
X237888473Y-56694624D01*
X237888473Y-57117956D01*
X237888321Y-57123947D01*
X237887872Y-57129859D01*
X237887131Y-57135685D01*
X237886108Y-57141418D01*
X237884808Y-57147051D01*
X237883239Y-57152575D01*
X237881409Y-57157984D01*
X237879324Y-57163271D01*
X237876993Y-57168428D01*
X237874422Y-57173447D01*
X237871619Y-57178323D01*
X237868591Y-57183046D01*
X237865345Y-57187610D01*
X237861889Y-57192008D01*
X237858230Y-57196232D01*
X237854375Y-57200275D01*
X237850332Y-57204130D01*
X237846108Y-57207789D01*
X237841710Y-57211245D01*
X237837146Y-57214491D01*
X237832422Y-57217519D01*
X237827547Y-57220322D01*
X237822527Y-57222893D01*
X237817371Y-57225225D01*
X237812084Y-57227309D01*
X237806675Y-57229139D01*
X237801150Y-57230708D01*
X237795518Y-57232008D01*
X237789785Y-57233032D01*
X237783959Y-57233772D01*
X237778047Y-57234222D01*
X237772056Y-57234373D01*
X237348723Y-57234373D01*
X237342732Y-57234222D01*
X237336820Y-57233772D01*
X237330994Y-57233032D01*
X237325261Y-57232008D01*
X237319629Y-57230708D01*
X237314104Y-57229139D01*
X237308695Y-57227309D01*
X237303408Y-57225225D01*
X237298252Y-57222893D01*
X237293232Y-57220322D01*
X237288357Y-57217519D01*
X237283633Y-57214491D01*
X237279069Y-57211245D01*
X237274671Y-57207789D01*
X237270447Y-57204130D01*
X237266404Y-57200275D01*
X237262549Y-57196232D01*
X237258890Y-57192008D01*
X237255434Y-57187610D01*
X237252188Y-57183046D01*
X237249160Y-57178323D01*
X237246357Y-57173447D01*
X237243786Y-57168428D01*
X237241455Y-57163271D01*
X237239370Y-57157984D01*
X237237540Y-57152575D01*
X237235971Y-57147051D01*
X237234671Y-57141418D01*
X237233648Y-57135685D01*
X237232907Y-57129859D01*
X237232458Y-57123947D01*
X237232306Y-57117956D01*
X237232306Y-56694624D01*
X237232458Y-56688633D01*
X237232907Y-56682721D01*
X237233648Y-56676894D01*
X237234671Y-56671161D01*
X237235971Y-56665529D01*
X237237540Y-56660005D01*
X237239370Y-56654595D01*
X237241455Y-56649309D01*
X237243786Y-56644152D01*
X237246357Y-56639132D01*
X237249160Y-56634257D01*
X237252188Y-56629534D01*
X237255434Y-56624969D01*
X237258890Y-56620572D01*
X237262549Y-56616347D01*
X237266404Y-56612304D01*
X237270447Y-56608450D01*
X237274671Y-56604791D01*
X237279069Y-56601335D01*
X237283633Y-56598089D01*
X237288357Y-56595061D01*
X237293232Y-56592257D01*
X237298252Y-56589687D01*
X237303408Y-56587355D01*
X237308695Y-56585271D01*
X237314104Y-56583440D01*
X237319629Y-56581872D01*
X237325261Y-56580572D01*
X237330994Y-56579548D01*
X237336820Y-56578808D01*
X237342732Y-56578358D01*
X237348723Y-56578207D01*
X237772056Y-56578207D01*
X237778047Y-56578358D01*
G37*
G36*
X238723635Y-57543274D02*
G01*
X238730260Y-57543718D01*
X238736807Y-57544481D01*
X238743268Y-57545558D01*
X238749633Y-57546941D01*
X238755895Y-57548623D01*
X238762043Y-57550598D01*
X238768069Y-57552856D01*
X238773964Y-57555393D01*
X238779719Y-57558201D01*
X238785325Y-57561272D01*
X238790773Y-57564600D01*
X238796053Y-57568178D01*
X238801158Y-57571998D01*
X238806077Y-57576054D01*
X238810803Y-57580339D01*
X238815325Y-57584844D01*
X238819636Y-57589564D01*
X238823725Y-57594491D01*
X238827585Y-57599619D01*
X238831206Y-57604939D01*
X238834578Y-57610446D01*
X238837694Y-57616132D01*
X238840544Y-57621990D01*
X238843119Y-57628012D01*
X238845410Y-57634193D01*
X238847408Y-57640524D01*
X238849105Y-57646999D01*
X238850490Y-57653611D01*
X238851556Y-57660352D01*
X238851555Y-58086332D01*
X238850489Y-58093073D01*
X238849104Y-58099685D01*
X238847408Y-58106160D01*
X238845409Y-58112491D01*
X238843118Y-58118672D01*
X238840543Y-58124694D01*
X238837694Y-58130552D01*
X238834578Y-58136238D01*
X238831205Y-58141744D01*
X238827585Y-58147065D01*
X238823725Y-58152192D01*
X238819636Y-58157120D01*
X238815325Y-58161840D01*
X238810803Y-58166345D01*
X238806077Y-58170630D01*
X238801158Y-58174685D01*
X238796053Y-58178506D01*
X238790773Y-58182083D01*
X238785325Y-58185411D01*
X238779719Y-58188483D01*
X238773964Y-58191290D01*
X238768069Y-58193827D01*
X238762043Y-58196086D01*
X238755895Y-58198060D01*
X238749634Y-58199742D01*
X238743268Y-58201125D01*
X238736807Y-58202202D01*
X238730260Y-58202966D01*
X238723636Y-58203410D01*
X238716943Y-58203526D01*
X238710192Y-58203308D01*
X238703389Y-58202748D01*
X234470056Y-58202748D01*
X234463254Y-58203308D01*
X234456502Y-58203526D01*
X234449810Y-58203410D01*
X234443185Y-58202966D01*
X234436638Y-58202202D01*
X234430177Y-58201125D01*
X234423812Y-58199742D01*
X234417550Y-58198060D01*
X234411402Y-58196086D01*
X234405376Y-58193827D01*
X234399481Y-58191290D01*
X234393726Y-58188483D01*
X234388120Y-58185411D01*
X234382672Y-58182083D01*
X234377392Y-58178506D01*
X234372287Y-58174685D01*
X234367368Y-58170630D01*
X234362642Y-58166345D01*
X234358120Y-58161840D01*
X234353809Y-58157120D01*
X234349720Y-58152192D01*
X234345860Y-58147065D01*
X234342240Y-58141744D01*
X234338867Y-58136238D01*
X234335751Y-58130552D01*
X234332901Y-58124694D01*
X234330326Y-58118672D01*
X234328035Y-58112491D01*
X234326037Y-58106160D01*
X234324341Y-58099685D01*
X234322955Y-58093073D01*
X234321890Y-58086332D01*
X234321889Y-57660352D01*
X234322955Y-57653611D01*
X234324341Y-57646999D01*
X234326037Y-57640524D01*
X234328035Y-57634193D01*
X234330326Y-57628012D01*
X234332901Y-57621990D01*
X234335751Y-57616132D01*
X234338867Y-57610446D01*
X234342239Y-57604939D01*
X234345860Y-57599619D01*
X234349720Y-57594491D01*
X234353809Y-57589564D01*
X234358120Y-57584844D01*
X234362642Y-57580339D01*
X234367368Y-57576054D01*
X234372287Y-57571998D01*
X234377392Y-57568178D01*
X234382672Y-57564600D01*
X234388120Y-57561272D01*
X234393726Y-57558201D01*
X234399481Y-57555393D01*
X234405376Y-57552856D01*
X234411402Y-57550598D01*
X234417550Y-57548623D01*
X234423812Y-57546941D01*
X234430178Y-57545558D01*
X234436638Y-57544481D01*
X234443186Y-57543718D01*
X234449810Y-57543274D01*
X234456503Y-57543158D01*
X234463254Y-57543376D01*
X234470057Y-57543935D01*
X238703389Y-57543935D01*
X238710191Y-57543376D01*
X238716943Y-57543158D01*
X238723635Y-57543274D01*
G37*
G36*
X238741130Y-54631025D02*
G01*
X238747043Y-54631475D01*
X238752869Y-54632215D01*
X238758602Y-54633239D01*
X238764234Y-54634539D01*
X238769758Y-54636107D01*
X238775168Y-54637938D01*
X238780454Y-54640022D01*
X238785611Y-54642353D01*
X238790631Y-54644924D01*
X238795506Y-54647727D01*
X238800229Y-54650756D01*
X238804794Y-54654001D01*
X238809192Y-54657457D01*
X238813416Y-54661116D01*
X238817459Y-54664971D01*
X238821314Y-54669014D01*
X238824973Y-54673238D01*
X238828429Y-54677636D01*
X238831674Y-54682200D01*
X238834703Y-54686924D01*
X238837506Y-54691799D01*
X238840077Y-54696819D01*
X238842408Y-54701975D01*
X238844492Y-54707262D01*
X238846323Y-54712671D01*
X238847891Y-54718196D01*
X238849191Y-54723828D01*
X238850215Y-54729561D01*
X238850956Y-54735387D01*
X238851405Y-54741299D01*
X238851557Y-54747290D01*
X238851557Y-55170624D01*
X238851405Y-55176614D01*
X238850956Y-55182527D01*
X238850215Y-55188353D01*
X238849191Y-55194086D01*
X238847891Y-55199718D01*
X238846323Y-55205242D01*
X238844492Y-55210652D01*
X238842408Y-55215938D01*
X238840077Y-55221095D01*
X238837506Y-55226115D01*
X238834703Y-55230990D01*
X238831674Y-55235713D01*
X238828429Y-55240278D01*
X238824973Y-55244675D01*
X238821314Y-55248900D01*
X238817459Y-55252943D01*
X238813416Y-55256797D01*
X238809192Y-55260456D01*
X238804794Y-55263912D01*
X238800229Y-55267158D01*
X238795506Y-55270186D01*
X238790631Y-55272989D01*
X238785611Y-55275560D01*
X238780454Y-55277892D01*
X238775168Y-55279976D01*
X238769758Y-55281806D01*
X238764234Y-55283375D01*
X238758602Y-55284675D01*
X238752869Y-55285699D01*
X238747043Y-55286439D01*
X238741130Y-55286889D01*
X238735140Y-55287040D01*
X238311806Y-55287040D01*
X238305816Y-55286889D01*
X238299904Y-55286439D01*
X238294077Y-55285699D01*
X238288344Y-55284675D01*
X238282712Y-55283375D01*
X238277188Y-55281806D01*
X238271778Y-55279976D01*
X238266492Y-55277892D01*
X238261335Y-55275560D01*
X238256315Y-55272989D01*
X238251440Y-55270186D01*
X238246717Y-55267158D01*
X238242153Y-55263912D01*
X238237755Y-55260456D01*
X238233531Y-55256797D01*
X238229488Y-55252943D01*
X238225633Y-55248900D01*
X238221974Y-55244675D01*
X238218518Y-55240278D01*
X238215272Y-55235713D01*
X238212244Y-55230990D01*
X238209441Y-55226115D01*
X238206870Y-55221095D01*
X238204539Y-55215938D01*
X238202454Y-55210652D01*
X238200624Y-55205242D01*
X238199055Y-55199718D01*
X238197755Y-55194086D01*
X238196731Y-55188353D01*
X238195991Y-55182527D01*
X238195541Y-55176614D01*
X238195390Y-55170624D01*
X238195390Y-54747290D01*
X238195541Y-54741299D01*
X238195991Y-54735387D01*
X238196731Y-54729561D01*
X238197755Y-54723828D01*
X238199055Y-54718196D01*
X238200624Y-54712671D01*
X238202454Y-54707262D01*
X238204539Y-54701975D01*
X238206870Y-54696819D01*
X238209441Y-54691799D01*
X238212244Y-54686924D01*
X238215272Y-54682200D01*
X238218518Y-54677636D01*
X238221974Y-54673238D01*
X238225633Y-54669014D01*
X238229488Y-54664971D01*
X238233531Y-54661116D01*
X238237755Y-54657457D01*
X238242153Y-54654001D01*
X238246717Y-54650756D01*
X238251440Y-54647727D01*
X238256315Y-54644924D01*
X238261335Y-54642353D01*
X238266492Y-54640022D01*
X238271778Y-54637938D01*
X238277188Y-54636107D01*
X238282712Y-54634539D01*
X238288344Y-54633239D01*
X238294077Y-54632215D01*
X238299904Y-54631475D01*
X238305816Y-54631025D01*
X238311806Y-54630873D01*
X238735140Y-54630873D01*
X238741130Y-54631025D01*
G37*
G36*
X238741130Y-54644254D02*
G01*
X238747043Y-54644704D01*
X238752869Y-54645444D01*
X238758602Y-54646468D01*
X238764234Y-54647768D01*
X238769758Y-54649336D01*
X238775168Y-54651167D01*
X238780454Y-54653251D01*
X238785611Y-54655583D01*
X238790631Y-54658154D01*
X238795506Y-54660957D01*
X238800229Y-54663985D01*
X238804794Y-54667231D01*
X238809192Y-54670687D01*
X238813416Y-54674346D01*
X238817459Y-54678200D01*
X238821314Y-54682243D01*
X238824973Y-54686467D01*
X238828429Y-54690865D01*
X238831674Y-54695430D01*
X238834703Y-54700153D01*
X238837506Y-54705028D01*
X238840077Y-54710048D01*
X238842408Y-54715205D01*
X238844492Y-54720491D01*
X238846323Y-54725900D01*
X238847891Y-54731425D01*
X238849191Y-54737057D01*
X238850215Y-54742790D01*
X238850956Y-54748616D01*
X238851405Y-54754528D01*
X238851557Y-54760519D01*
X238851557Y-55183852D01*
X238851405Y-55189843D01*
X238850956Y-55195755D01*
X238850215Y-55201582D01*
X238849191Y-55207314D01*
X238847891Y-55212947D01*
X238846323Y-55218471D01*
X238844492Y-55223880D01*
X238842408Y-55229167D01*
X238840077Y-55234324D01*
X238837506Y-55239344D01*
X238834703Y-55244219D01*
X238831674Y-55248942D01*
X238828429Y-55253506D01*
X238824973Y-55257904D01*
X238821314Y-55262128D01*
X238817459Y-55266171D01*
X238813416Y-55270026D01*
X238809192Y-55273685D01*
X238804794Y-55277141D01*
X238800229Y-55280387D01*
X238795506Y-55283415D01*
X238790631Y-55286218D01*
X238785611Y-55288789D01*
X238780454Y-55291121D01*
X238775168Y-55293205D01*
X238769758Y-55295035D01*
X238764234Y-55296604D01*
X238758602Y-55297904D01*
X238752869Y-55298928D01*
X238747043Y-55299668D01*
X238741130Y-55300118D01*
X238735140Y-55300269D01*
X238311806Y-55300269D01*
X238305816Y-55300118D01*
X238299904Y-55299668D01*
X238294077Y-55298928D01*
X238288344Y-55297904D01*
X238282712Y-55296604D01*
X238277188Y-55295035D01*
X238271778Y-55293205D01*
X238266492Y-55291121D01*
X238261335Y-55288789D01*
X238256315Y-55286218D01*
X238251440Y-55283415D01*
X238246717Y-55280387D01*
X238242153Y-55277141D01*
X238237755Y-55273685D01*
X238233531Y-55270026D01*
X238229488Y-55266171D01*
X238225633Y-55262128D01*
X238221974Y-55257904D01*
X238218518Y-55253506D01*
X238215272Y-55248942D01*
X238212244Y-55244219D01*
X238209441Y-55239344D01*
X238206870Y-55234324D01*
X238204539Y-55229167D01*
X238202454Y-55223880D01*
X238200624Y-55218471D01*
X238199055Y-55212947D01*
X238197755Y-55207314D01*
X238196731Y-55201582D01*
X238195991Y-55195755D01*
X238195541Y-55189843D01*
X238195390Y-55183852D01*
X238195390Y-54760519D01*
X238195541Y-54754528D01*
X238195991Y-54748616D01*
X238196731Y-54742790D01*
X238197755Y-54737057D01*
X238199055Y-54731425D01*
X238200624Y-54725900D01*
X238202454Y-54720491D01*
X238204539Y-54715205D01*
X238206870Y-54710048D01*
X238209441Y-54705028D01*
X238212244Y-54700153D01*
X238215272Y-54695430D01*
X238218518Y-54690865D01*
X238221974Y-54686467D01*
X238225633Y-54682243D01*
X238229488Y-54678200D01*
X238233531Y-54674346D01*
X238237755Y-54670687D01*
X238242153Y-54667231D01*
X238246717Y-54663985D01*
X238251440Y-54660957D01*
X238256315Y-54658154D01*
X238261335Y-54655583D01*
X238266492Y-54653251D01*
X238271778Y-54651167D01*
X238277188Y-54649336D01*
X238282712Y-54647768D01*
X238288344Y-54646468D01*
X238294077Y-54645444D01*
X238299904Y-54644704D01*
X238305816Y-54644254D01*
X238311806Y-54644103D01*
X238735140Y-54644103D01*
X238741130Y-54644254D01*
G37*
G36*
X238741130Y-55612629D02*
G01*
X238747043Y-55613079D01*
X238752869Y-55613819D01*
X238758602Y-55614843D01*
X238764234Y-55616143D01*
X238769758Y-55617711D01*
X238775168Y-55619542D01*
X238780454Y-55621626D01*
X238785611Y-55623958D01*
X238790631Y-55626528D01*
X238795506Y-55629332D01*
X238800229Y-55632360D01*
X238804794Y-55635605D01*
X238809192Y-55639061D01*
X238813416Y-55642720D01*
X238817459Y-55646575D01*
X238821314Y-55650618D01*
X238824973Y-55654842D01*
X238828429Y-55659240D01*
X238831674Y-55663805D01*
X238834703Y-55668528D01*
X238837506Y-55673403D01*
X238840077Y-55678423D01*
X238842408Y-55683580D01*
X238844492Y-55688866D01*
X238846323Y-55694275D01*
X238847891Y-55699800D01*
X238849191Y-55705432D01*
X238850215Y-55711165D01*
X238850956Y-55716991D01*
X238851405Y-55722903D01*
X238851557Y-55728894D01*
X238851557Y-56152227D01*
X238851405Y-56158218D01*
X238850956Y-56164130D01*
X238850215Y-56169957D01*
X238849191Y-56175690D01*
X238847891Y-56181322D01*
X238846323Y-56186846D01*
X238844492Y-56192255D01*
X238842408Y-56197542D01*
X238840077Y-56202699D01*
X238837506Y-56207719D01*
X238834703Y-56212594D01*
X238831674Y-56217317D01*
X238828429Y-56221881D01*
X238824973Y-56226279D01*
X238821314Y-56230503D01*
X238817459Y-56234546D01*
X238813416Y-56238401D01*
X238809192Y-56242060D01*
X238804794Y-56245516D01*
X238800229Y-56248762D01*
X238795506Y-56251790D01*
X238790631Y-56254593D01*
X238785611Y-56257164D01*
X238780454Y-56259495D01*
X238775168Y-56261580D01*
X238769758Y-56263410D01*
X238764234Y-56264979D01*
X238758602Y-56266279D01*
X238752869Y-56267303D01*
X238747043Y-56268043D01*
X238741130Y-56268492D01*
X238735140Y-56268644D01*
X238311806Y-56268644D01*
X238305816Y-56268492D01*
X238299904Y-56268043D01*
X238294077Y-56267303D01*
X238288344Y-56266279D01*
X238282712Y-56264979D01*
X238277188Y-56263410D01*
X238271778Y-56261580D01*
X238266492Y-56259495D01*
X238261335Y-56257164D01*
X238256315Y-56254593D01*
X238251440Y-56251790D01*
X238246717Y-56248762D01*
X238242153Y-56245516D01*
X238237755Y-56242060D01*
X238233531Y-56238401D01*
X238229488Y-56234546D01*
X238225633Y-56230503D01*
X238221974Y-56226279D01*
X238218518Y-56221881D01*
X238215272Y-56217317D01*
X238212244Y-56212594D01*
X238209441Y-56207719D01*
X238206870Y-56202699D01*
X238204539Y-56197542D01*
X238202454Y-56192255D01*
X238200624Y-56186846D01*
X238199055Y-56181322D01*
X238197755Y-56175690D01*
X238196731Y-56169957D01*
X238195991Y-56164130D01*
X238195541Y-56158218D01*
X238195390Y-56152227D01*
X238195390Y-55728894D01*
X238195541Y-55722903D01*
X238195991Y-55716991D01*
X238196731Y-55711165D01*
X238197755Y-55705432D01*
X238199055Y-55699800D01*
X238200624Y-55694275D01*
X238202454Y-55688866D01*
X238204539Y-55683580D01*
X238206870Y-55678423D01*
X238209441Y-55673403D01*
X238212244Y-55668528D01*
X238215272Y-55663805D01*
X238218518Y-55659240D01*
X238221974Y-55654842D01*
X238225633Y-55650618D01*
X238229488Y-55646575D01*
X238233531Y-55642720D01*
X238237755Y-55639061D01*
X238242153Y-55635605D01*
X238246717Y-55632360D01*
X238251440Y-55629332D01*
X238256315Y-55626528D01*
X238261335Y-55623958D01*
X238266492Y-55621626D01*
X238271778Y-55619542D01*
X238277188Y-55617711D01*
X238282712Y-55616143D01*
X238288344Y-55614843D01*
X238294077Y-55613819D01*
X238299904Y-55613079D01*
X238305816Y-55612629D01*
X238311806Y-55612478D01*
X238735140Y-55612478D01*
X238741130Y-55612629D01*
G37*
G36*
X238741130Y-56578358D02*
G01*
X238747043Y-56578808D01*
X238752869Y-56579548D01*
X238758602Y-56580572D01*
X238764234Y-56581872D01*
X238769758Y-56583440D01*
X238775168Y-56585271D01*
X238780454Y-56587355D01*
X238785611Y-56589687D01*
X238790631Y-56592257D01*
X238795506Y-56595061D01*
X238800229Y-56598089D01*
X238804794Y-56601335D01*
X238809192Y-56604791D01*
X238813416Y-56608450D01*
X238817459Y-56612304D01*
X238821314Y-56616347D01*
X238824973Y-56620572D01*
X238828429Y-56624969D01*
X238831674Y-56629534D01*
X238834703Y-56634257D01*
X238837506Y-56639132D01*
X238840077Y-56644152D01*
X238842408Y-56649309D01*
X238844492Y-56654595D01*
X238846323Y-56660005D01*
X238847891Y-56665529D01*
X238849191Y-56671161D01*
X238850215Y-56676894D01*
X238850956Y-56682721D01*
X238851405Y-56688633D01*
X238851557Y-56694624D01*
X238851557Y-57117956D01*
X238851405Y-57123947D01*
X238850956Y-57129859D01*
X238850215Y-57135685D01*
X238849191Y-57141418D01*
X238847891Y-57147051D01*
X238846323Y-57152575D01*
X238844492Y-57157984D01*
X238842408Y-57163271D01*
X238840077Y-57168428D01*
X238837506Y-57173447D01*
X238834703Y-57178323D01*
X238831674Y-57183046D01*
X238828429Y-57187610D01*
X238824973Y-57192008D01*
X238821314Y-57196232D01*
X238817459Y-57200275D01*
X238813416Y-57204130D01*
X238809192Y-57207789D01*
X238804794Y-57211245D01*
X238800229Y-57214491D01*
X238795506Y-57217519D01*
X238790631Y-57220322D01*
X238785611Y-57222893D01*
X238780454Y-57225225D01*
X238775168Y-57227309D01*
X238769758Y-57229139D01*
X238764234Y-57230708D01*
X238758602Y-57232008D01*
X238752869Y-57233032D01*
X238747043Y-57233772D01*
X238741130Y-57234222D01*
X238735140Y-57234373D01*
X238311806Y-57234373D01*
X238305816Y-57234222D01*
X238299904Y-57233772D01*
X238294077Y-57233032D01*
X238288344Y-57232008D01*
X238282712Y-57230708D01*
X238277188Y-57229139D01*
X238271778Y-57227309D01*
X238266492Y-57225225D01*
X238261335Y-57222893D01*
X238256315Y-57220322D01*
X238251440Y-57217519D01*
X238246717Y-57214491D01*
X238242153Y-57211245D01*
X238237755Y-57207789D01*
X238233531Y-57204130D01*
X238229488Y-57200275D01*
X238225633Y-57196232D01*
X238221974Y-57192008D01*
X238218518Y-57187610D01*
X238215272Y-57183046D01*
X238212244Y-57178323D01*
X238209441Y-57173447D01*
X238206870Y-57168428D01*
X238204539Y-57163271D01*
X238202454Y-57157984D01*
X238200624Y-57152575D01*
X238199055Y-57147051D01*
X238197755Y-57141418D01*
X238196731Y-57135685D01*
X238195991Y-57129859D01*
X238195541Y-57123947D01*
X238195390Y-57117956D01*
X238195390Y-56694624D01*
X238195541Y-56688633D01*
X238195991Y-56682721D01*
X238196731Y-56676894D01*
X238197755Y-56671161D01*
X238199055Y-56665529D01*
X238200624Y-56660005D01*
X238202454Y-56654595D01*
X238204539Y-56649309D01*
X238206870Y-56644152D01*
X238209441Y-56639132D01*
X238212244Y-56634257D01*
X238215272Y-56629534D01*
X238218518Y-56624969D01*
X238221974Y-56620572D01*
X238225633Y-56616347D01*
X238229488Y-56612304D01*
X238233531Y-56608450D01*
X238237755Y-56604791D01*
X238242153Y-56601335D01*
X238246717Y-56598089D01*
X238251440Y-56595061D01*
X238256315Y-56592257D01*
X238261335Y-56589687D01*
X238266492Y-56587355D01*
X238271778Y-56585271D01*
X238277188Y-56583440D01*
X238282712Y-56581872D01*
X238288344Y-56580572D01*
X238294077Y-56579548D01*
X238299904Y-56578808D01*
X238305816Y-56578358D01*
X238311806Y-56578207D01*
X238735140Y-56578207D01*
X238741130Y-56578358D01*
G37*
G36*
X238741130Y-56578358D02*
G01*
X238747043Y-56578808D01*
X238752869Y-56579548D01*
X238758602Y-56580572D01*
X238764234Y-56581872D01*
X238769758Y-56583440D01*
X238775168Y-56585271D01*
X238780454Y-56587355D01*
X238785611Y-56589687D01*
X238790631Y-56592257D01*
X238795506Y-56595061D01*
X238800229Y-56598089D01*
X238804794Y-56601335D01*
X238809192Y-56604791D01*
X238813416Y-56608450D01*
X238817459Y-56612304D01*
X238821314Y-56616347D01*
X238824973Y-56620572D01*
X238828429Y-56624969D01*
X238831674Y-56629534D01*
X238834703Y-56634257D01*
X238837506Y-56639132D01*
X238840077Y-56644152D01*
X238842408Y-56649309D01*
X238844492Y-56654595D01*
X238846323Y-56660005D01*
X238847891Y-56665529D01*
X238849191Y-56671161D01*
X238850215Y-56676894D01*
X238850956Y-56682721D01*
X238851405Y-56688633D01*
X238851557Y-56694624D01*
X238851557Y-57117956D01*
X238851405Y-57123947D01*
X238850956Y-57129859D01*
X238850215Y-57135685D01*
X238849191Y-57141418D01*
X238847891Y-57147051D01*
X238846323Y-57152575D01*
X238844492Y-57157984D01*
X238842408Y-57163271D01*
X238840077Y-57168428D01*
X238837506Y-57173447D01*
X238834703Y-57178323D01*
X238831674Y-57183046D01*
X238828429Y-57187610D01*
X238824973Y-57192008D01*
X238821314Y-57196232D01*
X238817459Y-57200275D01*
X238813416Y-57204130D01*
X238809192Y-57207789D01*
X238804794Y-57211245D01*
X238800229Y-57214491D01*
X238795506Y-57217519D01*
X238790631Y-57220322D01*
X238785611Y-57222893D01*
X238780454Y-57225225D01*
X238775168Y-57227309D01*
X238769758Y-57229139D01*
X238764234Y-57230708D01*
X238758602Y-57232008D01*
X238752869Y-57233032D01*
X238747043Y-57233772D01*
X238741130Y-57234222D01*
X238735140Y-57234373D01*
X238311806Y-57234373D01*
X238305816Y-57234222D01*
X238299904Y-57233772D01*
X238294077Y-57233032D01*
X238288344Y-57232008D01*
X238282712Y-57230708D01*
X238277188Y-57229139D01*
X238271778Y-57227309D01*
X238266492Y-57225225D01*
X238261335Y-57222893D01*
X238256315Y-57220322D01*
X238251440Y-57217519D01*
X238246717Y-57214491D01*
X238242153Y-57211245D01*
X238237755Y-57207789D01*
X238233531Y-57204130D01*
X238229488Y-57200275D01*
X238225633Y-57196232D01*
X238221974Y-57192008D01*
X238218518Y-57187610D01*
X238215272Y-57183046D01*
X238212244Y-57178323D01*
X238209441Y-57173447D01*
X238206870Y-57168428D01*
X238204539Y-57163271D01*
X238202454Y-57157984D01*
X238200624Y-57152575D01*
X238199055Y-57147051D01*
X238197755Y-57141418D01*
X238196731Y-57135685D01*
X238195991Y-57129859D01*
X238195541Y-57123947D01*
X238195390Y-57117956D01*
X238195390Y-56694624D01*
X238195541Y-56688633D01*
X238195991Y-56682721D01*
X238196731Y-56676894D01*
X238197755Y-56671161D01*
X238199055Y-56665529D01*
X238200624Y-56660005D01*
X238202454Y-56654595D01*
X238204539Y-56649309D01*
X238206870Y-56644152D01*
X238209441Y-56639132D01*
X238212244Y-56634257D01*
X238215272Y-56629534D01*
X238218518Y-56624969D01*
X238221974Y-56620572D01*
X238225633Y-56616347D01*
X238229488Y-56612304D01*
X238233531Y-56608450D01*
X238237755Y-56604791D01*
X238242153Y-56601335D01*
X238246717Y-56598089D01*
X238251440Y-56595061D01*
X238256315Y-56592257D01*
X238261335Y-56589687D01*
X238266492Y-56587355D01*
X238271778Y-56585271D01*
X238277188Y-56583440D01*
X238282712Y-56581872D01*
X238288344Y-56580572D01*
X238294077Y-56579548D01*
X238299904Y-56578808D01*
X238305816Y-56578358D01*
X238311806Y-56578207D01*
X238735140Y-56578207D01*
X238741130Y-56578358D01*
G37*
G36*
X239706859Y-55612629D02*
G01*
X239712771Y-55613079D01*
X239718598Y-55613819D01*
X239724331Y-55614843D01*
X239729963Y-55616143D01*
X239735487Y-55617711D01*
X239740897Y-55619542D01*
X239746183Y-55621626D01*
X239751340Y-55623958D01*
X239756360Y-55626528D01*
X239761235Y-55629332D01*
X239765958Y-55632360D01*
X239770523Y-55635605D01*
X239774921Y-55639061D01*
X239779145Y-55642720D01*
X239783188Y-55646575D01*
X239787042Y-55650618D01*
X239790702Y-55654842D01*
X239794158Y-55659240D01*
X239797403Y-55663805D01*
X239800431Y-55668528D01*
X239803235Y-55673403D01*
X239805805Y-55678423D01*
X239808137Y-55683580D01*
X239810221Y-55688866D01*
X239812051Y-55694275D01*
X239813620Y-55699800D01*
X239814920Y-55705432D01*
X239815944Y-55711165D01*
X239816684Y-55716991D01*
X239817134Y-55722903D01*
X239817285Y-55728894D01*
X239817285Y-56152227D01*
X239817134Y-56158218D01*
X239816684Y-56164130D01*
X239815944Y-56169957D01*
X239814920Y-56175690D01*
X239813620Y-56181322D01*
X239812051Y-56186846D01*
X239810221Y-56192255D01*
X239808137Y-56197542D01*
X239805805Y-56202699D01*
X239803235Y-56207719D01*
X239800431Y-56212594D01*
X239797403Y-56217317D01*
X239794158Y-56221881D01*
X239790702Y-56226279D01*
X239787042Y-56230503D01*
X239783188Y-56234546D01*
X239779145Y-56238401D01*
X239774921Y-56242060D01*
X239770523Y-56245516D01*
X239765958Y-56248762D01*
X239761235Y-56251790D01*
X239756360Y-56254593D01*
X239751340Y-56257164D01*
X239746183Y-56259495D01*
X239740897Y-56261580D01*
X239735487Y-56263410D01*
X239729963Y-56264979D01*
X239724331Y-56266279D01*
X239718598Y-56267303D01*
X239712771Y-56268043D01*
X239706859Y-56268492D01*
X239700868Y-56268644D01*
X239277536Y-56268644D01*
X239271545Y-56268492D01*
X239265633Y-56268043D01*
X239259807Y-56267303D01*
X239254074Y-56266279D01*
X239248441Y-56264979D01*
X239242917Y-56263410D01*
X239237508Y-56261580D01*
X239232221Y-56259495D01*
X239227064Y-56257164D01*
X239222044Y-56254593D01*
X239217169Y-56251790D01*
X239212446Y-56248762D01*
X239207882Y-56245516D01*
X239203484Y-56242060D01*
X239199260Y-56238401D01*
X239195217Y-56234546D01*
X239191362Y-56230503D01*
X239187703Y-56226279D01*
X239184247Y-56221881D01*
X239181001Y-56217317D01*
X239177973Y-56212594D01*
X239175170Y-56207719D01*
X239172599Y-56202699D01*
X239170267Y-56197542D01*
X239168183Y-56192255D01*
X239166353Y-56186846D01*
X239164784Y-56181322D01*
X239163484Y-56175690D01*
X239162460Y-56169957D01*
X239161720Y-56164130D01*
X239161270Y-56158218D01*
X239161119Y-56152227D01*
X239161119Y-55728894D01*
X239161270Y-55722903D01*
X239161720Y-55716991D01*
X239162460Y-55711165D01*
X239163484Y-55705432D01*
X239164784Y-55699800D01*
X239166353Y-55694275D01*
X239168183Y-55688866D01*
X239170267Y-55683580D01*
X239172599Y-55678423D01*
X239175170Y-55673403D01*
X239177973Y-55668528D01*
X239181001Y-55663805D01*
X239184247Y-55659240D01*
X239187703Y-55654842D01*
X239191362Y-55650618D01*
X239195217Y-55646575D01*
X239199260Y-55642720D01*
X239203484Y-55639061D01*
X239207882Y-55635605D01*
X239212446Y-55632360D01*
X239217169Y-55629332D01*
X239222044Y-55626528D01*
X239227064Y-55623958D01*
X239232221Y-55621626D01*
X239237508Y-55619542D01*
X239242917Y-55617711D01*
X239248441Y-55616143D01*
X239254074Y-55614843D01*
X239259807Y-55613819D01*
X239265633Y-55613079D01*
X239271545Y-55612629D01*
X239277536Y-55612478D01*
X239700868Y-55612478D01*
X239706859Y-55612629D01*
G37*
G36*
X239706859Y-57530858D02*
G01*
X239712771Y-57531308D01*
X239718598Y-57532048D01*
X239724331Y-57533072D01*
X239729963Y-57534372D01*
X239735487Y-57535940D01*
X239740897Y-57537771D01*
X239746183Y-57539855D01*
X239751340Y-57542186D01*
X239756360Y-57544757D01*
X239761235Y-57547561D01*
X239765958Y-57550589D01*
X239770523Y-57553834D01*
X239774921Y-57557290D01*
X239779145Y-57560949D01*
X239783188Y-57564804D01*
X239787042Y-57568847D01*
X239790702Y-57573071D01*
X239794158Y-57577469D01*
X239797403Y-57582034D01*
X239800431Y-57586757D01*
X239803235Y-57591632D01*
X239805805Y-57596652D01*
X239808137Y-57601809D01*
X239810221Y-57607095D01*
X239812051Y-57612505D01*
X239813620Y-57618029D01*
X239814920Y-57623661D01*
X239815944Y-57629394D01*
X239816684Y-57635220D01*
X239817134Y-57641133D01*
X239817285Y-57647123D01*
X239817285Y-58070456D01*
X239817134Y-58076447D01*
X239816684Y-58082359D01*
X239815944Y-58088185D01*
X239814920Y-58093918D01*
X239813620Y-58099550D01*
X239812051Y-58105075D01*
X239810221Y-58110484D01*
X239808137Y-58115771D01*
X239805805Y-58120928D01*
X239803235Y-58125947D01*
X239800431Y-58130822D01*
X239797403Y-58135546D01*
X239794158Y-58140110D01*
X239790702Y-58144508D01*
X239787042Y-58148732D01*
X239783188Y-58152775D01*
X239779145Y-58156630D01*
X239774921Y-58160289D01*
X239770523Y-58163745D01*
X239765958Y-58166991D01*
X239761235Y-58170019D01*
X239756360Y-58172822D01*
X239751340Y-58175393D01*
X239746183Y-58177724D01*
X239740897Y-58179809D01*
X239735487Y-58181639D01*
X239729963Y-58183208D01*
X239724331Y-58184508D01*
X239718598Y-58185532D01*
X239712771Y-58186272D01*
X239706859Y-58186722D01*
X239700868Y-58186873D01*
X239277536Y-58186873D01*
X239271545Y-58186722D01*
X239265633Y-58186272D01*
X239259807Y-58185532D01*
X239254074Y-58184508D01*
X239248441Y-58183208D01*
X239242917Y-58181639D01*
X239237508Y-58179809D01*
X239232221Y-58177724D01*
X239227064Y-58175393D01*
X239222044Y-58172822D01*
X239217169Y-58170019D01*
X239212446Y-58166991D01*
X239207882Y-58163745D01*
X239203484Y-58160289D01*
X239199260Y-58156630D01*
X239195217Y-58152775D01*
X239191362Y-58148732D01*
X239187703Y-58144508D01*
X239184247Y-58140110D01*
X239181001Y-58135546D01*
X239177973Y-58130822D01*
X239175170Y-58125947D01*
X239172599Y-58120928D01*
X239170267Y-58115771D01*
X239168183Y-58110484D01*
X239166353Y-58105075D01*
X239164784Y-58099550D01*
X239163484Y-58093918D01*
X239162460Y-58088185D01*
X239161720Y-58082359D01*
X239161270Y-58076447D01*
X239161119Y-58070456D01*
X239161119Y-57647123D01*
X239161270Y-57641133D01*
X239161720Y-57635220D01*
X239162460Y-57629394D01*
X239163484Y-57623661D01*
X239164784Y-57618029D01*
X239166353Y-57612505D01*
X239168183Y-57607095D01*
X239170267Y-57601809D01*
X239172599Y-57596652D01*
X239175170Y-57591632D01*
X239177973Y-57586757D01*
X239181001Y-57582034D01*
X239184247Y-57577469D01*
X239187703Y-57573071D01*
X239191362Y-57568847D01*
X239195217Y-57564804D01*
X239199260Y-57560949D01*
X239203484Y-57557290D01*
X239207882Y-57553834D01*
X239212446Y-57550589D01*
X239217169Y-57547561D01*
X239222044Y-57544757D01*
X239227064Y-57542186D01*
X239232221Y-57539855D01*
X239237508Y-57537771D01*
X239242917Y-57535940D01*
X239248441Y-57534372D01*
X239254074Y-57533072D01*
X239259807Y-57532048D01*
X239265633Y-57531308D01*
X239271545Y-57530858D01*
X239277536Y-57530706D01*
X239700868Y-57530706D01*
X239706859Y-57530858D01*
G37*
G36*
X239706859Y-57544088D02*
G01*
X239712771Y-57544537D01*
X239718598Y-57545278D01*
X239724331Y-57546301D01*
X239729963Y-57547601D01*
X239735487Y-57549170D01*
X239740897Y-57551000D01*
X239746183Y-57553085D01*
X239751340Y-57555416D01*
X239756360Y-57557987D01*
X239761235Y-57560790D01*
X239765958Y-57563818D01*
X239770523Y-57567064D01*
X239774921Y-57570520D01*
X239779145Y-57574179D01*
X239783188Y-57578034D01*
X239787042Y-57582077D01*
X239790702Y-57586301D01*
X239794158Y-57590699D01*
X239797403Y-57595263D01*
X239800431Y-57599986D01*
X239803235Y-57604862D01*
X239805805Y-57609881D01*
X239808137Y-57615038D01*
X239810221Y-57620325D01*
X239812051Y-57625734D01*
X239813620Y-57631258D01*
X239814920Y-57636891D01*
X239815944Y-57642624D01*
X239816684Y-57648450D01*
X239817134Y-57654362D01*
X239817285Y-57660353D01*
X239817285Y-58083686D01*
X239817134Y-58089677D01*
X239816684Y-58095589D01*
X239815944Y-58101415D01*
X239814920Y-58107148D01*
X239813620Y-58112780D01*
X239812051Y-58118305D01*
X239810221Y-58123714D01*
X239808137Y-58129001D01*
X239805805Y-58134157D01*
X239803235Y-58139177D01*
X239800431Y-58144052D01*
X239797403Y-58148776D01*
X239794158Y-58153340D01*
X239790702Y-58157738D01*
X239787042Y-58161962D01*
X239783188Y-58166005D01*
X239779145Y-58169860D01*
X239774921Y-58173519D01*
X239770523Y-58176975D01*
X239765958Y-58180220D01*
X239761235Y-58183248D01*
X239756360Y-58186052D01*
X239751340Y-58188622D01*
X239746183Y-58190954D01*
X239740897Y-58193038D01*
X239735487Y-58194869D01*
X239729963Y-58196437D01*
X239724331Y-58197737D01*
X239718598Y-58198761D01*
X239712771Y-58199501D01*
X239706859Y-58199951D01*
X239700868Y-58200102D01*
X239277536Y-58200102D01*
X239271545Y-58199951D01*
X239265633Y-58199501D01*
X239259807Y-58198761D01*
X239254074Y-58197737D01*
X239248441Y-58196437D01*
X239242917Y-58194869D01*
X239237508Y-58193038D01*
X239232221Y-58190954D01*
X239227064Y-58188622D01*
X239222044Y-58186052D01*
X239217169Y-58183248D01*
X239212446Y-58180220D01*
X239207882Y-58176975D01*
X239203484Y-58173519D01*
X239199260Y-58169860D01*
X239195217Y-58166005D01*
X239191362Y-58161962D01*
X239187703Y-58157738D01*
X239184247Y-58153340D01*
X239181001Y-58148776D01*
X239177973Y-58144052D01*
X239175170Y-58139177D01*
X239172599Y-58134157D01*
X239170267Y-58129001D01*
X239168183Y-58123714D01*
X239166353Y-58118305D01*
X239164784Y-58112780D01*
X239163484Y-58107148D01*
X239162460Y-58101415D01*
X239161720Y-58095589D01*
X239161270Y-58089677D01*
X239161119Y-58083686D01*
X239161119Y-57660353D01*
X239161270Y-57654362D01*
X239161720Y-57648450D01*
X239162460Y-57642624D01*
X239163484Y-57636891D01*
X239164784Y-57631258D01*
X239166353Y-57625734D01*
X239168183Y-57620325D01*
X239170267Y-57615038D01*
X239172599Y-57609881D01*
X239175170Y-57604862D01*
X239177973Y-57599986D01*
X239181001Y-57595263D01*
X239184247Y-57590699D01*
X239187703Y-57586301D01*
X239191362Y-57582077D01*
X239195217Y-57578034D01*
X239199260Y-57574179D01*
X239203484Y-57570520D01*
X239207882Y-57567064D01*
X239212446Y-57563818D01*
X239217169Y-57560790D01*
X239222044Y-57557987D01*
X239227064Y-57555416D01*
X239232221Y-57553085D01*
X239237508Y-57551000D01*
X239242917Y-57549170D01*
X239248441Y-57547601D01*
X239254074Y-57546301D01*
X239259807Y-57545278D01*
X239265633Y-57544537D01*
X239271545Y-57544088D01*
X239277536Y-57543936D01*
X239700868Y-57543936D01*
X239706859Y-57544088D01*
G37*
G36*
X240677881Y-55612629D02*
G01*
X240683793Y-55613079D01*
X240689619Y-55613819D01*
X240695352Y-55614843D01*
X240700984Y-55616143D01*
X240706509Y-55617711D01*
X240711918Y-55619542D01*
X240717204Y-55621626D01*
X240722361Y-55623958D01*
X240727381Y-55626528D01*
X240732256Y-55629332D01*
X240736979Y-55632360D01*
X240741544Y-55635605D01*
X240745941Y-55639061D01*
X240750166Y-55642720D01*
X240754209Y-55646575D01*
X240758063Y-55650618D01*
X240761722Y-55654842D01*
X240765178Y-55659240D01*
X240768424Y-55663805D01*
X240771452Y-55668528D01*
X240774255Y-55673403D01*
X240776826Y-55678423D01*
X240779157Y-55683580D01*
X240781242Y-55688866D01*
X240783072Y-55694275D01*
X240784641Y-55699800D01*
X240785941Y-55705432D01*
X240786965Y-55711165D01*
X240787705Y-55716991D01*
X240788155Y-55722903D01*
X240788306Y-55728894D01*
X240788306Y-56152227D01*
X240788155Y-56158218D01*
X240787705Y-56164130D01*
X240786965Y-56169957D01*
X240785941Y-56175690D01*
X240784641Y-56181322D01*
X240783072Y-56186846D01*
X240781242Y-56192255D01*
X240779157Y-56197542D01*
X240776826Y-56202699D01*
X240774255Y-56207719D01*
X240771452Y-56212594D01*
X240768424Y-56217317D01*
X240765178Y-56221881D01*
X240761722Y-56226279D01*
X240758063Y-56230503D01*
X240754209Y-56234546D01*
X240750166Y-56238401D01*
X240745941Y-56242060D01*
X240741544Y-56245516D01*
X240736979Y-56248762D01*
X240732256Y-56251790D01*
X240727381Y-56254593D01*
X240722361Y-56257164D01*
X240717204Y-56259495D01*
X240711918Y-56261580D01*
X240706509Y-56263410D01*
X240700984Y-56264979D01*
X240695352Y-56266279D01*
X240689619Y-56267303D01*
X240683793Y-56268043D01*
X240677881Y-56268492D01*
X240671890Y-56268644D01*
X240248556Y-56268644D01*
X240242565Y-56268492D01*
X240236653Y-56268043D01*
X240230827Y-56267303D01*
X240225094Y-56266279D01*
X240219462Y-56264979D01*
X240213937Y-56263410D01*
X240208528Y-56261580D01*
X240203242Y-56259495D01*
X240198085Y-56257164D01*
X240193065Y-56254593D01*
X240188190Y-56251790D01*
X240183467Y-56248762D01*
X240178902Y-56245516D01*
X240174505Y-56242060D01*
X240170280Y-56238401D01*
X240166237Y-56234546D01*
X240162383Y-56230503D01*
X240158724Y-56226279D01*
X240155268Y-56221881D01*
X240152022Y-56217317D01*
X240148994Y-56212594D01*
X240146191Y-56207719D01*
X240143620Y-56202699D01*
X240141288Y-56197542D01*
X240139204Y-56192255D01*
X240137374Y-56186846D01*
X240135805Y-56181322D01*
X240134505Y-56175690D01*
X240133481Y-56169957D01*
X240132741Y-56164130D01*
X240132291Y-56158218D01*
X240132140Y-56152227D01*
X240132140Y-55728894D01*
X240132291Y-55722903D01*
X240132741Y-55716991D01*
X240133481Y-55711165D01*
X240134505Y-55705432D01*
X240135805Y-55699800D01*
X240137374Y-55694275D01*
X240139204Y-55688866D01*
X240141288Y-55683580D01*
X240143620Y-55678423D01*
X240146191Y-55673403D01*
X240148994Y-55668528D01*
X240152022Y-55663805D01*
X240155268Y-55659240D01*
X240158724Y-55654842D01*
X240162383Y-55650618D01*
X240166237Y-55646575D01*
X240170280Y-55642720D01*
X240174505Y-55639061D01*
X240178902Y-55635605D01*
X240183467Y-55632360D01*
X240188190Y-55629332D01*
X240193065Y-55626528D01*
X240198085Y-55623958D01*
X240203242Y-55621626D01*
X240208528Y-55619542D01*
X240213937Y-55617711D01*
X240219462Y-55616143D01*
X240225094Y-55614843D01*
X240230827Y-55613819D01*
X240236653Y-55613079D01*
X240242565Y-55612629D01*
X240248556Y-55612478D01*
X240671890Y-55612478D01*
X240677881Y-55612629D01*
G37*
G36*
X240677881Y-57530858D02*
G01*
X240683793Y-57531308D01*
X240689619Y-57532048D01*
X240695352Y-57533072D01*
X240700984Y-57534372D01*
X240706509Y-57535940D01*
X240711918Y-57537771D01*
X240717204Y-57539855D01*
X240722361Y-57542186D01*
X240727381Y-57544757D01*
X240732256Y-57547561D01*
X240736979Y-57550589D01*
X240741544Y-57553834D01*
X240745941Y-57557290D01*
X240750166Y-57560949D01*
X240754209Y-57564804D01*
X240758063Y-57568847D01*
X240761722Y-57573071D01*
X240765178Y-57577469D01*
X240768424Y-57582034D01*
X240771452Y-57586757D01*
X240774255Y-57591632D01*
X240776826Y-57596652D01*
X240779157Y-57601809D01*
X240781242Y-57607095D01*
X240783072Y-57612505D01*
X240784641Y-57618029D01*
X240785941Y-57623661D01*
X240786965Y-57629394D01*
X240787705Y-57635220D01*
X240788155Y-57641133D01*
X240788306Y-57647123D01*
X240788306Y-58070456D01*
X240788155Y-58076447D01*
X240787705Y-58082359D01*
X240786965Y-58088185D01*
X240785941Y-58093918D01*
X240784641Y-58099550D01*
X240783072Y-58105075D01*
X240781242Y-58110484D01*
X240779157Y-58115771D01*
X240776826Y-58120928D01*
X240774255Y-58125947D01*
X240771452Y-58130822D01*
X240768424Y-58135546D01*
X240765178Y-58140110D01*
X240761722Y-58144508D01*
X240758063Y-58148732D01*
X240754209Y-58152775D01*
X240750166Y-58156630D01*
X240745941Y-58160289D01*
X240741544Y-58163745D01*
X240736979Y-58166991D01*
X240732256Y-58170019D01*
X240727381Y-58172822D01*
X240722361Y-58175393D01*
X240717204Y-58177724D01*
X240711918Y-58179809D01*
X240706509Y-58181639D01*
X240700984Y-58183208D01*
X240695352Y-58184508D01*
X240689619Y-58185532D01*
X240683793Y-58186272D01*
X240677881Y-58186722D01*
X240671890Y-58186873D01*
X240248556Y-58186873D01*
X240242565Y-58186722D01*
X240236653Y-58186272D01*
X240230827Y-58185532D01*
X240225094Y-58184508D01*
X240219462Y-58183208D01*
X240213937Y-58181639D01*
X240208528Y-58179809D01*
X240203242Y-58177724D01*
X240198085Y-58175393D01*
X240193065Y-58172822D01*
X240188190Y-58170019D01*
X240183467Y-58166991D01*
X240178902Y-58163745D01*
X240174505Y-58160289D01*
X240170280Y-58156630D01*
X240166237Y-58152775D01*
X240162383Y-58148732D01*
X240158724Y-58144508D01*
X240155268Y-58140110D01*
X240152022Y-58135546D01*
X240148994Y-58130822D01*
X240146191Y-58125947D01*
X240143620Y-58120928D01*
X240141288Y-58115771D01*
X240139204Y-58110484D01*
X240137374Y-58105075D01*
X240135805Y-58099550D01*
X240134505Y-58093918D01*
X240133481Y-58088185D01*
X240132741Y-58082359D01*
X240132291Y-58076447D01*
X240132140Y-58070456D01*
X240132140Y-57647123D01*
X240132291Y-57641133D01*
X240132741Y-57635220D01*
X240133481Y-57629394D01*
X240134505Y-57623661D01*
X240135805Y-57618029D01*
X240137374Y-57612505D01*
X240139204Y-57607095D01*
X240141288Y-57601809D01*
X240143620Y-57596652D01*
X240146191Y-57591632D01*
X240148994Y-57586757D01*
X240152022Y-57582034D01*
X240155268Y-57577469D01*
X240158724Y-57573071D01*
X240162383Y-57568847D01*
X240166237Y-57564804D01*
X240170280Y-57560949D01*
X240174505Y-57557290D01*
X240178902Y-57553834D01*
X240183467Y-57550589D01*
X240188190Y-57547561D01*
X240193065Y-57544757D01*
X240198085Y-57542186D01*
X240203242Y-57539855D01*
X240208528Y-57537771D01*
X240213937Y-57535940D01*
X240219462Y-57534372D01*
X240225094Y-57533072D01*
X240230827Y-57532048D01*
X240236653Y-57531308D01*
X240242565Y-57530858D01*
X240248556Y-57530706D01*
X240671890Y-57530706D01*
X240677881Y-57530858D01*
G37*
G36*
X240677881Y-57544088D02*
G01*
X240683793Y-57544537D01*
X240689619Y-57545278D01*
X240695352Y-57546301D01*
X240700984Y-57547601D01*
X240706509Y-57549170D01*
X240711918Y-57551000D01*
X240717204Y-57553085D01*
X240722361Y-57555416D01*
X240727381Y-57557987D01*
X240732256Y-57560790D01*
X240736979Y-57563818D01*
X240741544Y-57567064D01*
X240745941Y-57570520D01*
X240750166Y-57574179D01*
X240754209Y-57578034D01*
X240758063Y-57582077D01*
X240761722Y-57586301D01*
X240765178Y-57590699D01*
X240768424Y-57595263D01*
X240771452Y-57599986D01*
X240774255Y-57604862D01*
X240776826Y-57609881D01*
X240779157Y-57615038D01*
X240781242Y-57620325D01*
X240783072Y-57625734D01*
X240784641Y-57631258D01*
X240785941Y-57636891D01*
X240786965Y-57642624D01*
X240787705Y-57648450D01*
X240788155Y-57654362D01*
X240788306Y-57660353D01*
X240788306Y-58083686D01*
X240788155Y-58089677D01*
X240787705Y-58095589D01*
X240786965Y-58101415D01*
X240785941Y-58107148D01*
X240784641Y-58112780D01*
X240783072Y-58118305D01*
X240781242Y-58123714D01*
X240779157Y-58129001D01*
X240776826Y-58134157D01*
X240774255Y-58139177D01*
X240771452Y-58144052D01*
X240768424Y-58148776D01*
X240765178Y-58153340D01*
X240761722Y-58157738D01*
X240758063Y-58161962D01*
X240754209Y-58166005D01*
X240750166Y-58169860D01*
X240745941Y-58173519D01*
X240741544Y-58176975D01*
X240736979Y-58180220D01*
X240732256Y-58183248D01*
X240727381Y-58186052D01*
X240722361Y-58188622D01*
X240717204Y-58190954D01*
X240711918Y-58193038D01*
X240706509Y-58194869D01*
X240700984Y-58196437D01*
X240695352Y-58197737D01*
X240689619Y-58198761D01*
X240683793Y-58199501D01*
X240677881Y-58199951D01*
X240671890Y-58200102D01*
X240248556Y-58200102D01*
X240242565Y-58199951D01*
X240236653Y-58199501D01*
X240230827Y-58198761D01*
X240225094Y-58197737D01*
X240219462Y-58196437D01*
X240213937Y-58194869D01*
X240208528Y-58193038D01*
X240203242Y-58190954D01*
X240198085Y-58188622D01*
X240193065Y-58186052D01*
X240188190Y-58183248D01*
X240183467Y-58180220D01*
X240178902Y-58176975D01*
X240174505Y-58173519D01*
X240170280Y-58169860D01*
X240166237Y-58166005D01*
X240162383Y-58161962D01*
X240158724Y-58157738D01*
X240155268Y-58153340D01*
X240152022Y-58148776D01*
X240148994Y-58144052D01*
X240146191Y-58139177D01*
X240143620Y-58134157D01*
X240141288Y-58129001D01*
X240139204Y-58123714D01*
X240137374Y-58118305D01*
X240135805Y-58112780D01*
X240134505Y-58107148D01*
X240133481Y-58101415D01*
X240132741Y-58095589D01*
X240132291Y-58089677D01*
X240132140Y-58083686D01*
X240132140Y-57660353D01*
X240132291Y-57654362D01*
X240132741Y-57648450D01*
X240133481Y-57642624D01*
X240134505Y-57636891D01*
X240135805Y-57631258D01*
X240137374Y-57625734D01*
X240139204Y-57620325D01*
X240141288Y-57615038D01*
X240143620Y-57609881D01*
X240146191Y-57604862D01*
X240148994Y-57599986D01*
X240152022Y-57595263D01*
X240155268Y-57590699D01*
X240158724Y-57586301D01*
X240162383Y-57582077D01*
X240166237Y-57578034D01*
X240170280Y-57574179D01*
X240174505Y-57570520D01*
X240178902Y-57567064D01*
X240183467Y-57563818D01*
X240188190Y-57560790D01*
X240193065Y-57557987D01*
X240198085Y-57555416D01*
X240203242Y-57553085D01*
X240208528Y-57551000D01*
X240213937Y-57549170D01*
X240219462Y-57547601D01*
X240225094Y-57546301D01*
X240230827Y-57545278D01*
X240236653Y-57544537D01*
X240242565Y-57544088D01*
X240248556Y-57543936D01*
X240671890Y-57543936D01*
X240677881Y-57544088D01*
G37*
G36*
X240683756Y-56578272D02*
G01*
X240689635Y-56578754D01*
X240695464Y-56579531D01*
X240701233Y-56580598D01*
X240706929Y-56581951D01*
X240712544Y-56583587D01*
X240718067Y-56585502D01*
X240723486Y-56587692D01*
X240728792Y-56590152D01*
X240733973Y-56592879D01*
X240739020Y-56595868D01*
X240743922Y-56599117D01*
X240748668Y-56602620D01*
X240753248Y-56606374D01*
X240757650Y-56610375D01*
X240761843Y-56614596D01*
X240765797Y-56619004D01*
X240769508Y-56623590D01*
X240772971Y-56628343D01*
X240776182Y-56633252D01*
X240779136Y-56638307D01*
X240781830Y-56643499D01*
X240784258Y-56648816D01*
X240786416Y-56654247D01*
X240788300Y-56659784D01*
X240789905Y-56665415D01*
X240791228Y-56671130D01*
X240792262Y-56676919D01*
X240793005Y-56682771D01*
X240793451Y-56688676D01*
X240793597Y-56694624D01*
X240793597Y-57117957D01*
X240793446Y-57123947D01*
X240792996Y-57129860D01*
X240792256Y-57135686D01*
X240791232Y-57141419D01*
X240789932Y-57147051D01*
X240788363Y-57152576D01*
X240786533Y-57157985D01*
X240784448Y-57163271D01*
X240782117Y-57168428D01*
X240779546Y-57173448D01*
X240776743Y-57178323D01*
X240773715Y-57183047D01*
X240770469Y-57187611D01*
X240767013Y-57192009D01*
X240763354Y-57196233D01*
X240759500Y-57200276D01*
X240755457Y-57204131D01*
X240751232Y-57207790D01*
X240746835Y-57211246D01*
X240742270Y-57214491D01*
X240737547Y-57217520D01*
X240732672Y-57220323D01*
X240727652Y-57222894D01*
X240722495Y-57225225D01*
X240717209Y-57227309D01*
X240711800Y-57229140D01*
X240706275Y-57230709D01*
X240700643Y-57232008D01*
X240694910Y-57233032D01*
X240689084Y-57233773D01*
X240683172Y-57234222D01*
X240677181Y-57234374D01*
X239280181Y-57234374D01*
X239274453Y-57234231D01*
X239268765Y-57233803D01*
X239263127Y-57233093D01*
X239257549Y-57232106D01*
X239252039Y-57230846D01*
X239246608Y-57229317D01*
X239241266Y-57227523D01*
X239236023Y-57225467D01*
X239230887Y-57223155D01*
X239225870Y-57220590D01*
X239220980Y-57217776D01*
X239216227Y-57214718D01*
X239211621Y-57211419D01*
X239207172Y-57207884D01*
X239202889Y-57204117D01*
X239198783Y-57200121D01*
X239194882Y-57195924D01*
X239191214Y-57191556D01*
X239187782Y-57187026D01*
X239184590Y-57182346D01*
X239181642Y-57177524D01*
X239178942Y-57172571D01*
X239176493Y-57167495D01*
X239174299Y-57162308D01*
X239172365Y-57157019D01*
X239170694Y-57151637D01*
X239169290Y-57146173D01*
X239168156Y-57140636D01*
X239167298Y-57135036D01*
X239166718Y-57129383D01*
X239166421Y-57123686D01*
X239166410Y-57117957D01*
X239166410Y-56694623D01*
X239166421Y-56688893D01*
X239166718Y-56683197D01*
X239167298Y-56677544D01*
X239168156Y-56671944D01*
X239169290Y-56666407D01*
X239170694Y-56660943D01*
X239172365Y-56655561D01*
X239174299Y-56650272D01*
X239176493Y-56645084D01*
X239178942Y-56640009D01*
X239181642Y-56635056D01*
X239184590Y-56630234D01*
X239187782Y-56625553D01*
X239191214Y-56621024D01*
X239194882Y-56616656D01*
X239198783Y-56612459D01*
X239202889Y-56608463D01*
X239207172Y-56604695D01*
X239211621Y-56601160D01*
X239216227Y-56597861D01*
X239220980Y-56594803D01*
X239225870Y-56591990D01*
X239230887Y-56589425D01*
X239236023Y-56587112D01*
X239241266Y-56585057D01*
X239246608Y-56583263D01*
X239252039Y-56581734D01*
X239257549Y-56580473D01*
X239263127Y-56579487D01*
X239268765Y-56578777D01*
X239274453Y-56578349D01*
X239280181Y-56578207D01*
X240671889Y-56578207D01*
X240677837Y-56578088D01*
X240683756Y-56578272D01*
G37*
G36*
X240683757Y-54644168D02*
G01*
X240689636Y-54644650D01*
X240695465Y-54645427D01*
X240701233Y-54646494D01*
X240706930Y-54647847D01*
X240712545Y-54649483D01*
X240718067Y-54651398D01*
X240723486Y-54653588D01*
X240728792Y-54656048D01*
X240733974Y-54658775D01*
X240739021Y-54661764D01*
X240743922Y-54665013D01*
X240748668Y-54668516D01*
X240753248Y-54672271D01*
X240757650Y-54676272D01*
X240761843Y-54680492D01*
X240765797Y-54684901D01*
X240769508Y-54689486D01*
X240772971Y-54694239D01*
X240776182Y-54699148D01*
X240779136Y-54704204D01*
X240781830Y-54709395D01*
X240784258Y-54714712D01*
X240786416Y-54720143D01*
X240788300Y-54725680D01*
X240789905Y-54731311D01*
X240791228Y-54737026D01*
X240792262Y-54742815D01*
X240793005Y-54748667D01*
X240793451Y-54754571D01*
X240793597Y-54760519D01*
X240793598Y-55186499D01*
X240793317Y-55192391D01*
X240792749Y-55198201D01*
X240791900Y-55203924D01*
X240790778Y-55209550D01*
X240789390Y-55215075D01*
X240787743Y-55220490D01*
X240785844Y-55225789D01*
X240783699Y-55230965D01*
X240781317Y-55236011D01*
X240778705Y-55240920D01*
X240775868Y-55245686D01*
X240772815Y-55250300D01*
X240769553Y-55254757D01*
X240766088Y-55259049D01*
X240762427Y-55263170D01*
X240758579Y-55267113D01*
X240754549Y-55270869D01*
X240750345Y-55274434D01*
X240745975Y-55277799D01*
X240741444Y-55280959D01*
X240736760Y-55283905D01*
X240731931Y-55286631D01*
X240726963Y-55289130D01*
X240721864Y-55291396D01*
X240716640Y-55293420D01*
X240711298Y-55295197D01*
X240705847Y-55296720D01*
X240700292Y-55297980D01*
X240694640Y-55298973D01*
X240688900Y-55299690D01*
X240683078Y-55300124D01*
X240677181Y-55300270D01*
X239280181Y-55300270D01*
X239274540Y-55300130D01*
X239268936Y-55299713D01*
X239263381Y-55299023D01*
X239257882Y-55298063D01*
X239252450Y-55296838D01*
X239247093Y-55295352D01*
X239241821Y-55293608D01*
X239236643Y-55291609D01*
X239231569Y-55289361D01*
X239226608Y-55286867D01*
X239221769Y-55284130D01*
X239217061Y-55281155D01*
X239212494Y-55277945D01*
X239208078Y-55274505D01*
X239203821Y-55270837D01*
X239199733Y-55266947D01*
X239195843Y-55262859D01*
X239192175Y-55258602D01*
X239188735Y-55254185D01*
X239185525Y-55249619D01*
X239182550Y-55244911D01*
X239179813Y-55240072D01*
X239177319Y-55235111D01*
X239175070Y-55230037D01*
X239173072Y-55224859D01*
X239171328Y-55219587D01*
X239169841Y-55214230D01*
X239168616Y-55208798D01*
X239167657Y-55203299D01*
X239166967Y-55197744D01*
X239166550Y-55192140D01*
X239166410Y-55186499D01*
X239166410Y-54760520D01*
X239166556Y-54754623D01*
X239166990Y-54748801D01*
X239167707Y-54743061D01*
X239168699Y-54737410D01*
X239169960Y-54731855D01*
X239171482Y-54726403D01*
X239173259Y-54721062D01*
X239175284Y-54715838D01*
X239177549Y-54710738D01*
X239180049Y-54705770D01*
X239182775Y-54700941D01*
X239185721Y-54696257D01*
X239188880Y-54691727D01*
X239192245Y-54687356D01*
X239195810Y-54683152D01*
X239199567Y-54679122D01*
X239203509Y-54675274D01*
X239207630Y-54671614D01*
X239211922Y-54668149D01*
X239216379Y-54664886D01*
X239220994Y-54661833D01*
X239225759Y-54658997D01*
X239230668Y-54656384D01*
X239235714Y-54654002D01*
X239240890Y-54651857D01*
X239246190Y-54649958D01*
X239251605Y-54648311D01*
X239257129Y-54646923D01*
X239262756Y-54645801D01*
X239268478Y-54644952D01*
X239274289Y-54644384D01*
X239280181Y-54644103D01*
X240671890Y-54644103D01*
X240677838Y-54643984D01*
X240683757Y-54644168D01*
G37*
G36*
X233906975Y-56578349D02*
G01*
X233912709Y-56578776D01*
X233918393Y-56579482D01*
X233924020Y-56580464D01*
X233929579Y-56581717D01*
X233935060Y-56583238D01*
X233940455Y-56585023D01*
X233945753Y-56587068D01*
X233950945Y-56589368D01*
X233956022Y-56591921D01*
X233960973Y-56594721D01*
X233965790Y-56597766D01*
X233970463Y-56601050D01*
X233974982Y-56604570D01*
X233979338Y-56608323D01*
X233983521Y-56612304D01*
X233987502Y-56616487D01*
X233991254Y-56620843D01*
X233994775Y-56625362D01*
X233998059Y-56630035D01*
X234001104Y-56634852D01*
X234003904Y-56639803D01*
X234006457Y-56644880D01*
X234008757Y-56650072D01*
X234010802Y-56655370D01*
X234012587Y-56660765D01*
X234014108Y-56666247D01*
X234015361Y-56671805D01*
X234016343Y-56677432D01*
X234017049Y-56683117D01*
X234017476Y-56688851D01*
X234017619Y-56694624D01*
X234017619Y-57117957D01*
X234017476Y-57123729D01*
X234017049Y-57129463D01*
X234016343Y-57135148D01*
X234015361Y-57140775D01*
X234014108Y-57146333D01*
X234012587Y-57151815D01*
X234010802Y-57157209D01*
X234008757Y-57162507D01*
X234006457Y-57167700D01*
X234003904Y-57172776D01*
X234001104Y-57177728D01*
X233998060Y-57182545D01*
X233994775Y-57187217D01*
X233991255Y-57191737D01*
X233987502Y-57196092D01*
X233983521Y-57200275D01*
X233979338Y-57204256D01*
X233974982Y-57208009D01*
X233970463Y-57211529D01*
X233965790Y-57214814D01*
X233960973Y-57217858D01*
X233956022Y-57220659D01*
X233950945Y-57223211D01*
X233945753Y-57225512D01*
X233940455Y-57227556D01*
X233935060Y-57229341D01*
X233929579Y-57230863D01*
X233924020Y-57232116D01*
X233918394Y-57233098D01*
X233912709Y-57233804D01*
X233906975Y-57234231D01*
X233901202Y-57234374D01*
X232509494Y-57234374D01*
X232503721Y-57234231D01*
X232497988Y-57233804D01*
X232492303Y-57233098D01*
X232486676Y-57232116D01*
X232481117Y-57230863D01*
X232475636Y-57229341D01*
X232470241Y-57227556D01*
X232464943Y-57225512D01*
X232459751Y-57223211D01*
X232454675Y-57220659D01*
X232449723Y-57217858D01*
X232444906Y-57214814D01*
X232440233Y-57211529D01*
X232435714Y-57208009D01*
X232431358Y-57204256D01*
X232427175Y-57200275D01*
X232423194Y-57196092D01*
X232419442Y-57191737D01*
X232415921Y-57187217D01*
X232412637Y-57182545D01*
X232409592Y-57177728D01*
X232406792Y-57172776D01*
X232404240Y-57167700D01*
X232401939Y-57162507D01*
X232399894Y-57157209D01*
X232398109Y-57151815D01*
X232396588Y-57146333D01*
X232395335Y-57140775D01*
X232394353Y-57135148D01*
X232393647Y-57129463D01*
X232393220Y-57123729D01*
X232393077Y-57117957D01*
X232393077Y-56694623D01*
X232393220Y-56688850D01*
X232393647Y-56683117D01*
X232394353Y-56677432D01*
X232395335Y-56671805D01*
X232396588Y-56666246D01*
X232398109Y-56660765D01*
X232399894Y-56655370D01*
X232401939Y-56650072D01*
X232404239Y-56644880D01*
X232406792Y-56639803D01*
X232409592Y-56634852D01*
X232412637Y-56630035D01*
X232415921Y-56625362D01*
X232419441Y-56620843D01*
X232423194Y-56616487D01*
X232427175Y-56612304D01*
X232431358Y-56608323D01*
X232435714Y-56604570D01*
X232440233Y-56601050D01*
X232444906Y-56597766D01*
X232449723Y-56594721D01*
X232454674Y-56591921D01*
X232459751Y-56589369D01*
X232464943Y-56587068D01*
X232470241Y-56585023D01*
X232475636Y-56583238D01*
X232481117Y-56581717D01*
X232486676Y-56580464D01*
X232492303Y-56579482D01*
X232497988Y-56578776D01*
X232503721Y-56578350D01*
X232509494Y-56578207D01*
X233901202Y-56578207D01*
X233901202Y-56578206D01*
X233906975Y-56578349D01*
G37*
G36*
X241089266Y-51626410D02*
G01*
X241132612Y-51631502D01*
X241175687Y-51639726D01*
X241218322Y-51651105D01*
X241260348Y-51665660D01*
X241301597Y-51683415D01*
X241341875Y-51703528D01*
X241380209Y-51726300D01*
X241416508Y-51751590D01*
X241450679Y-51779254D01*
X241482632Y-51809149D01*
X241512275Y-51841132D01*
X241539515Y-51875060D01*
X241564261Y-51910790D01*
X241586421Y-51948179D01*
X241605904Y-51987083D01*
X241622617Y-52027361D01*
X241636469Y-52068868D01*
X241647369Y-52111461D01*
X241655223Y-52154999D01*
X241659941Y-52199337D01*
X241661431Y-52244332D01*
X241661431Y-58673707D01*
X241660539Y-58704404D01*
X241658140Y-58734887D01*
X241654256Y-58765104D01*
X241648907Y-58795005D01*
X241642115Y-58824539D01*
X241633901Y-58853656D01*
X241624286Y-58882305D01*
X241613292Y-58910435D01*
X241600940Y-58937995D01*
X241587250Y-58964936D01*
X241572245Y-58991206D01*
X241555945Y-59016754D01*
X241538372Y-59041530D01*
X241519547Y-59065484D01*
X241499490Y-59088564D01*
X241478225Y-59110721D01*
X241455887Y-59131796D01*
X241432637Y-59151654D01*
X241408523Y-59170274D01*
X241383597Y-59187635D01*
X241357910Y-59203716D01*
X241331513Y-59218496D01*
X241304457Y-59231955D01*
X241276792Y-59244072D01*
X241248569Y-59254825D01*
X241219839Y-59264195D01*
X241190653Y-59272160D01*
X241161061Y-59278699D01*
X241131116Y-59283793D01*
X241100866Y-59287419D01*
X241070364Y-59289557D01*
X241039660Y-59290186D01*
X232136424Y-59290186D01*
X232105053Y-59288867D01*
X232074108Y-59286014D01*
X232043626Y-59281665D01*
X232013644Y-59275858D01*
X231984200Y-59268629D01*
X231955330Y-59260018D01*
X231927072Y-59250060D01*
X231899462Y-59238795D01*
X231872538Y-59226259D01*
X231846337Y-59212490D01*
X231820896Y-59197525D01*
X231796252Y-59181403D01*
X231772443Y-59164161D01*
X231749504Y-59145836D01*
X231727474Y-59126466D01*
X231706389Y-59106089D01*
X231686287Y-59084741D01*
X231667205Y-59062462D01*
X231649179Y-59039287D01*
X231632247Y-59015256D01*
X231616446Y-58990405D01*
X231601813Y-58964772D01*
X231588386Y-58938395D01*
X231576200Y-58911311D01*
X231565294Y-58883558D01*
X231555705Y-58855173D01*
X231547469Y-58826195D01*
X231540623Y-58796660D01*
X231535205Y-58766606D01*
X231531253Y-58736070D01*
X231528802Y-58705092D01*
X231527890Y-58673707D01*
X231990911Y-58673707D01*
X231991087Y-58681327D01*
X231991630Y-58688855D01*
X231992532Y-58696282D01*
X231993784Y-58703598D01*
X231995377Y-58710794D01*
X231997304Y-58717862D01*
X231999555Y-58724793D01*
X232002122Y-58731577D01*
X232004996Y-58738206D01*
X232008170Y-58744671D01*
X232011634Y-58750962D01*
X232015381Y-58757071D01*
X232019400Y-58762989D01*
X232023685Y-58768707D01*
X232028226Y-58774215D01*
X232033016Y-58779506D01*
X232038045Y-58784569D01*
X232043304Y-58789396D01*
X232048787Y-58793978D01*
X232054483Y-58798306D01*
X232060385Y-58802372D01*
X232066483Y-58806165D01*
X232072770Y-58809677D01*
X232079237Y-58812899D01*
X232085876Y-58815823D01*
X232092677Y-58818438D01*
X232099633Y-58820737D01*
X232106735Y-58822710D01*
X232113974Y-58824349D01*
X232121343Y-58825643D01*
X232128831Y-58826585D01*
X232136432Y-58827165D01*
X241037014Y-58827165D01*
X241039661Y-58824519D01*
X241047464Y-58824325D01*
X241055167Y-58823747D01*
X241062761Y-58822794D01*
X241070236Y-58821476D01*
X241077583Y-58819801D01*
X241084792Y-58817780D01*
X241091854Y-58815420D01*
X241098760Y-58812732D01*
X241105500Y-58809725D01*
X241112065Y-58806408D01*
X241118445Y-58802790D01*
X241124631Y-58798880D01*
X241130614Y-58794688D01*
X241136384Y-58790224D01*
X241141932Y-58785495D01*
X241147248Y-58780511D01*
X241152323Y-58775283D01*
X241157147Y-58769818D01*
X241161712Y-58764127D01*
X241166007Y-58758218D01*
X241170024Y-58752101D01*
X241173752Y-58745784D01*
X241177183Y-58739278D01*
X241180307Y-58732591D01*
X241183114Y-58725733D01*
X241185596Y-58718713D01*
X241187742Y-58711540D01*
X241189544Y-58704223D01*
X241190992Y-58696773D01*
X241192077Y-58689197D01*
X241192788Y-58681505D01*
X241193118Y-58673707D01*
X241193117Y-54212832D01*
X241192866Y-54202892D01*
X241192120Y-54193084D01*
X241190891Y-54183417D01*
X241189193Y-54173906D01*
X241187036Y-54164561D01*
X241184434Y-54155396D01*
X241181397Y-54146422D01*
X241177939Y-54137650D01*
X241174071Y-54129095D01*
X241169806Y-54120767D01*
X241165155Y-54112678D01*
X241160131Y-54104842D01*
X241154746Y-54097269D01*
X241149012Y-54089973D01*
X241142942Y-54082965D01*
X241136546Y-54076257D01*
X241129839Y-54069862D01*
X241122830Y-54063791D01*
X241115534Y-54058057D01*
X241107962Y-54052672D01*
X241100125Y-54047648D01*
X241092037Y-54042997D01*
X241083709Y-54038732D01*
X241075153Y-54034864D01*
X241066382Y-54031406D01*
X241057408Y-54028369D01*
X241048243Y-54025767D01*
X241038898Y-54023610D01*
X241029387Y-54021911D01*
X241019721Y-54020683D01*
X241009912Y-54019937D01*
X240999973Y-54019686D01*
X232184057Y-54019686D01*
X232174479Y-54019923D01*
X232164967Y-54020631D01*
X232155535Y-54021802D01*
X232146200Y-54023431D01*
X232136977Y-54025511D01*
X232127883Y-54028035D01*
X232118933Y-54030996D01*
X232110143Y-54034388D01*
X232101529Y-54038205D01*
X232093106Y-54042440D01*
X232084891Y-54047086D01*
X232076899Y-54052137D01*
X232069147Y-54057586D01*
X232061649Y-54063426D01*
X232054422Y-54069652D01*
X232047482Y-54076257D01*
X232040877Y-54083197D01*
X232034652Y-54090424D01*
X232028811Y-54097922D01*
X232023362Y-54105674D01*
X232018311Y-54113666D01*
X232013665Y-54121881D01*
X232009430Y-54130304D01*
X232005613Y-54138918D01*
X232002221Y-54147708D01*
X231999260Y-54156658D01*
X231996736Y-54165752D01*
X231994656Y-54174975D01*
X231993028Y-54184310D01*
X231991856Y-54193742D01*
X231991148Y-54203254D01*
X231990911Y-54212832D01*
X231990911Y-58673707D01*
X231527890Y-58673707D01*
X231527890Y-52244332D01*
X231528119Y-52221799D01*
X231529168Y-52199409D01*
X231531025Y-52177180D01*
X231533679Y-52155131D01*
X231537118Y-52133278D01*
X231541332Y-52111640D01*
X231546308Y-52090236D01*
X231552035Y-52069082D01*
X231558502Y-52048197D01*
X231565698Y-52027599D01*
X231573610Y-52007306D01*
X231582227Y-51987336D01*
X231591539Y-51967707D01*
X231601532Y-51948437D01*
X231612197Y-51929543D01*
X231623522Y-51911044D01*
X231635494Y-51892958D01*
X231648104Y-51875302D01*
X231661338Y-51858096D01*
X231675187Y-51841355D01*
X231689637Y-51825100D01*
X231704679Y-51809347D01*
X231720300Y-51794115D01*
X231736489Y-51779421D01*
X231753235Y-51765284D01*
X231770526Y-51751721D01*
X231788350Y-51738751D01*
X231806697Y-51726391D01*
X231825555Y-51714659D01*
X231844911Y-51703574D01*
X231864756Y-51693154D01*
X231885077Y-51683415D01*
X231926341Y-51665781D01*
X231968372Y-51651330D01*
X232011003Y-51640038D01*
X232054068Y-51631884D01*
X232097399Y-51626845D01*
X232140830Y-51624900D01*
X232184193Y-51626027D01*
X232227322Y-51630202D01*
X232270050Y-51637405D01*
X232312209Y-51647613D01*
X232353634Y-51660804D01*
X232394157Y-51676956D01*
X232433610Y-51696046D01*
X232471829Y-51718053D01*
X232508644Y-51742954D01*
X232543890Y-51770728D01*
X234615577Y-53516978D01*
X234621029Y-53521628D01*
X234626641Y-53525979D01*
X234632404Y-53530029D01*
X234638306Y-53533779D01*
X234644338Y-53537230D01*
X234650487Y-53540380D01*
X234656744Y-53543230D01*
X234663098Y-53545780D01*
X234669538Y-53548031D01*
X234676052Y-53549981D01*
X234682632Y-53551631D01*
X234689265Y-53552981D01*
X234695941Y-53554031D01*
X234702649Y-53554781D01*
X234709379Y-53555231D01*
X234716119Y-53555381D01*
X234722860Y-53555231D01*
X234729589Y-53554781D01*
X234736298Y-53554031D01*
X234742974Y-53552981D01*
X234749607Y-53551631D01*
X234756186Y-53549981D01*
X234762701Y-53548031D01*
X234769141Y-53545780D01*
X234775494Y-53543230D01*
X234781751Y-53540380D01*
X234787901Y-53537230D01*
X234793932Y-53533779D01*
X234799835Y-53530029D01*
X234805597Y-53525979D01*
X234811210Y-53521628D01*
X234816661Y-53516978D01*
X236181911Y-52323707D01*
X236204117Y-52305182D01*
X236226954Y-52287853D01*
X236250380Y-52271718D01*
X236274353Y-52256779D01*
X236298830Y-52243035D01*
X236323770Y-52230486D01*
X236349131Y-52219132D01*
X236374871Y-52208974D01*
X236400947Y-52200010D01*
X236427318Y-52192242D01*
X236453941Y-52185669D01*
X236480774Y-52180291D01*
X236507776Y-52176108D01*
X236534903Y-52173120D01*
X236562115Y-52171327D01*
X236589369Y-52170729D01*
X236616623Y-52171327D01*
X236643835Y-52173120D01*
X236670963Y-52176108D01*
X236697964Y-52180291D01*
X236724798Y-52185669D01*
X236751421Y-52192242D01*
X236777791Y-52200010D01*
X236803867Y-52208974D01*
X236829607Y-52219132D01*
X236854968Y-52230486D01*
X236879908Y-52243035D01*
X236904386Y-52256779D01*
X236928359Y-52271718D01*
X236951784Y-52287853D01*
X236974621Y-52305182D01*
X236996827Y-52323707D01*
X238367368Y-53509040D01*
X238372857Y-53513584D01*
X238378500Y-53517835D01*
X238384286Y-53521792D01*
X238390206Y-53525457D01*
X238396249Y-53528828D01*
X238402404Y-53531906D01*
X238408662Y-53534691D01*
X238415013Y-53537183D01*
X238421445Y-53539382D01*
X238427950Y-53541287D01*
X238434516Y-53542899D01*
X238441133Y-53544219D01*
X238447791Y-53545245D01*
X238454480Y-53545978D01*
X238461190Y-53546417D01*
X238467910Y-53546564D01*
X238474629Y-53546417D01*
X238481339Y-53545978D01*
X238488028Y-53545245D01*
X238494686Y-53544219D01*
X238501303Y-53542899D01*
X238507869Y-53541287D01*
X238514374Y-53539382D01*
X238520806Y-53537183D01*
X238527157Y-53534691D01*
X238533415Y-53531906D01*
X238539571Y-53528828D01*
X238545613Y-53525457D01*
X238551533Y-53521792D01*
X238557320Y-53517835D01*
X238562962Y-53513584D01*
X238568451Y-53509040D01*
X240642785Y-51770728D01*
X240677985Y-51742841D01*
X240714769Y-51717841D01*
X240752968Y-51695749D01*
X240792413Y-51676588D01*
X240832936Y-51660381D01*
X240874369Y-51647150D01*
X240916542Y-51636916D01*
X240959286Y-51629703D01*
X241002435Y-51625533D01*
X241045817Y-51624427D01*
X241089266Y-51626410D01*
G37*
%TD*%
D11*
%TO.C,SW32*%
X208915000Y-75009375D03*
D12*
X213995000Y-75009375D03*
D11*
X219075000Y-75009375D03*
%TD*%
%TO.C,SW39*%
X89852500Y-94059375D03*
D12*
X94932500Y-94059375D03*
D11*
X100012500Y-94059375D03*
%TD*%
D12*
%TO.C,S2*%
X209232500Y-85804375D03*
X94932500Y-85804375D03*
%TD*%
D11*
%TO.C,SW16*%
X104140000Y-55959375D03*
D12*
X109220000Y-55959375D03*
D11*
X114300000Y-55959375D03*
%TD*%
%TO.C,SW46*%
X175577500Y-94059375D03*
D12*
X180657500Y-94059375D03*
D11*
X185737500Y-94059375D03*
%TD*%
%TO.C,SW11*%
X232727500Y-36909375D03*
D12*
X237807500Y-36909375D03*
D11*
X242887500Y-36909375D03*
%TD*%
D12*
%TO.C,SW44*%
X256857500Y-36909375D03*
D13*
X260357500Y-40909375D03*
X260357500Y-38409375D03*
X253357500Y-38409375D03*
X253357500Y-40909375D03*
%TD*%
D11*
%TO.C,SW8*%
X175577500Y-36909375D03*
D12*
X180657500Y-36909375D03*
D11*
X185737500Y-36909375D03*
%TD*%
%TO.C,SW22*%
X218440000Y-55959375D03*
D12*
X223520000Y-55959375D03*
D11*
X228600000Y-55959375D03*
%TD*%
%TO.C,SW28*%
X132715000Y-75009375D03*
D12*
X137795000Y-75009375D03*
D11*
X142875000Y-75009375D03*
%TD*%
%TO.C,SW49*%
X227965000Y-94059375D03*
D12*
X233045000Y-94059375D03*
D11*
X238125000Y-94059375D03*
%TD*%
%TO.C,SW48*%
X232727500Y-94059375D03*
D12*
X237807500Y-94059375D03*
D11*
X242887500Y-94059375D03*
%TD*%
D12*
%TO.C,S1*%
X209232500Y-85804375D03*
X94932500Y-85804375D03*
%TD*%
D11*
%TO.C,SW45*%
X173196250Y-94059375D03*
D12*
X178276250Y-94059375D03*
D11*
X183356250Y-94059375D03*
%TD*%
%TO.C,SW10*%
X213677500Y-36909375D03*
D12*
X218757500Y-36909375D03*
D11*
X223837500Y-36909375D03*
%TD*%
D12*
%TO.C,S3*%
X199707500Y-85804375D03*
X161607500Y-85804375D03*
%TD*%
D11*
%TO.C,SW34*%
X249396250Y-75009375D03*
D12*
X254476250Y-75009375D03*
D11*
X259556250Y-75009375D03*
%TD*%
%TO.C,SW29*%
X151765000Y-75009375D03*
D12*
X156845000Y-75009375D03*
D11*
X161925000Y-75009375D03*
%TD*%
%TO.C,SW19*%
X161290000Y-55959375D03*
D12*
X166370000Y-55959375D03*
D11*
X171450000Y-55959375D03*
%TD*%
%TO.C,SW4*%
X99377500Y-36909375D03*
D12*
X104457500Y-36909375D03*
D11*
X109537500Y-36909375D03*
%TD*%
%TO.C,SW47*%
X204152500Y-94059375D03*
D12*
X209232500Y-94059375D03*
D11*
X214312500Y-94059375D03*
%TD*%
%TO.C,SW9*%
X194627500Y-36909375D03*
D12*
X199707500Y-36909375D03*
D11*
X204787500Y-36909375D03*
%TD*%
D12*
%TO.C,S4*%
X190182500Y-85804375D03*
X166370000Y-85804375D03*
%TD*%
D11*
%TO.C,SW1*%
X42227500Y-36909375D03*
D12*
X47307500Y-36909375D03*
D11*
X52387500Y-36909375D03*
%TD*%
%TO.C,SW36*%
X61277500Y-94059375D03*
D12*
X66357500Y-94059375D03*
D11*
X71437500Y-94059375D03*
%TD*%
%TO.C,SW33*%
X227965000Y-75009375D03*
D12*
X233045000Y-75009375D03*
D11*
X238125000Y-75009375D03*
%TD*%
%TO.C,SW52*%
X239871250Y-75009375D03*
D12*
X244951250Y-75009375D03*
D11*
X250031250Y-75009375D03*
%TD*%
%TO.C,SW3*%
X80327500Y-36909375D03*
D12*
X85407500Y-36909375D03*
D11*
X90487500Y-36909375D03*
%TD*%
D12*
%TO.C,S41*%
X142557500Y-85804375D03*
X118745000Y-85804375D03*
%TD*%
%TO.C,S40*%
X142557500Y-85804375D03*
X104457500Y-85804375D03*
%TD*%
D11*
%TO.C,SW27*%
X113665000Y-75009375D03*
D12*
X118745000Y-75009375D03*
D11*
X123825000Y-75009375D03*
%TD*%
%TO.C,SW12*%
X251777500Y-36909375D03*
D12*
X256857500Y-36909375D03*
D11*
X261937500Y-36909375D03*
%TD*%
%TO.C,SW50*%
X213677500Y-94059375D03*
D12*
X218757500Y-94059375D03*
D11*
X223837500Y-94059375D03*
%TD*%
%TO.C,SW35*%
X42227500Y-94059375D03*
D12*
X47307500Y-94059375D03*
D11*
X52387500Y-94059375D03*
%TD*%
%TO.C,SW13*%
X44608750Y-55959375D03*
D12*
X49688750Y-55959375D03*
D11*
X54768750Y-55959375D03*
%TD*%
%TO.C,SW38*%
X80327500Y-94059375D03*
D12*
X85407500Y-94059375D03*
D11*
X90487500Y-94059375D03*
%TD*%
%TO.C,SW31*%
X189865000Y-75009375D03*
D12*
X194945000Y-75009375D03*
D11*
X200025000Y-75009375D03*
%TD*%
%TO.C,SW51*%
X251777500Y-94059375D03*
D12*
X256857500Y-94059375D03*
D11*
X261937500Y-94059375D03*
%TD*%
%TO.C,SW23*%
X244633750Y-55959375D03*
D12*
X249713750Y-55959375D03*
D11*
X254793750Y-55959375D03*
%TD*%
%TO.C,SW17*%
X123190000Y-55959375D03*
D12*
X128270000Y-55959375D03*
D11*
X133350000Y-55959375D03*
%TD*%
D12*
%TO.C,S35*%
X256857500Y-66754375D03*
X233045000Y-66754375D03*
%TD*%
D11*
%TO.C,SW25*%
X75565000Y-75009375D03*
D12*
X80645000Y-75009375D03*
D11*
X85725000Y-75009375D03*
%TD*%
%TO.C,SW5*%
X118427500Y-36909375D03*
D12*
X123507500Y-36909375D03*
D11*
X128587500Y-36909375D03*
%TD*%
D12*
%TO.C,SW43*%
X47307500Y-36909375D03*
D13*
X50807500Y-40909375D03*
X50807500Y-38409375D03*
X43807500Y-38409375D03*
X43807500Y-40909375D03*
%TD*%
D11*
%TO.C,SW7*%
X156527500Y-36909375D03*
D12*
X161607500Y-36909375D03*
D11*
X166687500Y-36909375D03*
%TD*%
%TO.C,SW30*%
X170815000Y-75009375D03*
D12*
X175895000Y-75009375D03*
D11*
X180975000Y-75009375D03*
%TD*%
%TO.C,SW2*%
X61277500Y-36909375D03*
D12*
X66357500Y-36909375D03*
D11*
X71437500Y-36909375D03*
%TD*%
%TO.C,SW42*%
X147002500Y-94059375D03*
D12*
X152082500Y-94059375D03*
D11*
X157162500Y-94059375D03*
%TD*%
%TO.C,SW15*%
X85090000Y-55959375D03*
D12*
X90170000Y-55959375D03*
D11*
X95250000Y-55959375D03*
%TD*%
%TO.C,SW24*%
X49371250Y-75009375D03*
D12*
X54451250Y-75009375D03*
D11*
X59531250Y-75009375D03*
%TD*%
%TO.C,SW18*%
X142240000Y-55959375D03*
D12*
X147320000Y-55959375D03*
D11*
X152400000Y-55959375D03*
%TD*%
%TO.C,SW21*%
X199390000Y-55959375D03*
D12*
X204470000Y-55959375D03*
D11*
X209550000Y-55959375D03*
%TD*%
%TO.C,SW40*%
X118427500Y-94059375D03*
D12*
X123507500Y-94059375D03*
D11*
X128587500Y-94059375D03*
%TD*%
%TO.C,SW26*%
X94615000Y-75009375D03*
D12*
X99695000Y-75009375D03*
D11*
X104775000Y-75009375D03*
%TD*%
%TO.C,SW41*%
X125571250Y-94059375D03*
D12*
X130651250Y-94059375D03*
D11*
X135731250Y-94059375D03*
%TD*%
%TO.C,SW37*%
X66040000Y-94059375D03*
D12*
X71120000Y-94059375D03*
D11*
X76200000Y-94059375D03*
%TD*%
%TO.C,SW20*%
X180340000Y-55959375D03*
D12*
X185420000Y-55959375D03*
D11*
X190500000Y-55959375D03*
%TD*%
%TO.C,SW6*%
X137477500Y-36909375D03*
D12*
X142557500Y-36909375D03*
D11*
X147637500Y-36909375D03*
%TD*%
%TO.C,SW14*%
X66040000Y-55959375D03*
D12*
X71120000Y-55959375D03*
D11*
X76200000Y-55959375D03*
%TD*%
D14*
%TO.C,JP1*%
X42545000Y-72628125D03*
D15*
X43815000Y-72628125D03*
%TD*%
D14*
%TO.C,JP2*%
X42545000Y-77390625D03*
D15*
X43815000Y-77390625D03*
%TD*%
D16*
%TO.C,J2*%
X60404375Y-81994375D03*
X61420375Y-87074375D03*
X59388375Y-87074375D03*
%TD*%
%LPD*%
M02*
