M48
; DRILL file {KiCad 7.0.6-7.0.6~ubuntu23.04.1} date Sat 05 Aug 2023 10:50:07 PM EDT
; FORMAT={-:-/ absolute / inch / decimal}
; #@! TF.CreationDate,2023-08-05T22:50:07-04:00
; #@! TF.GenerationSoftware,Kicad,Pcbnew,7.0.6-7.0.6~ubuntu23.04.1
; #@! TF.FileFunction,Plated,1,4,PTH
FMAT,2
INCH
; #@! TA.AperFunction,Plated,PTH,ComponentDrill
T1C0.0079
; #@! TA.AperFunction,Plated,PTH,ViaDrill
T2C0.0118
; #@! TA.AperFunction,Plated,PTH,ComponentDrill
T3C0.0600
; #@! TA.AperFunction,Plated,PTH,ComponentDrill
T4C0.1200
%
G90
G05
T1
X2.5418Y-2.6378
X2.5418Y-2.688
X2.5418Y-2.7382
X2.5418Y-2.7884
X2.5418Y-2.8386
X2.592Y-2.6378
X2.592Y-2.688
X2.592Y-2.7382
X2.592Y-2.7884
X2.592Y-2.8386
X2.6422Y-2.6378
X2.6422Y-2.688
X2.6422Y-2.7382
X2.6422Y-2.7884
X2.6422Y-2.8386
X2.6923Y-2.6378
X2.6923Y-2.688
X2.6923Y-2.7382
X2.6923Y-2.7884
X2.6923Y-2.8386
X2.7425Y-2.6378
X2.7425Y-2.688
X2.7425Y-2.7382
X2.7425Y-2.7884
X2.7425Y-2.8386
T2
X1.556Y-1.5813
X1.6643Y-1.5813
X1.6733Y-1.5203
X1.7005Y-2.6852
X1.7442Y-1.6632
X1.7454Y-2.5273
X1.7529Y-3.8907
X1.7658Y-2.5612
X1.771Y-2.5947
X1.8473Y-2.3907
X2.0344Y-3.1407
X2.0718Y-1.6203
X2.1001Y-1.5289
X2.2131Y-1.8636
X2.2132Y-1.7886
X2.2639Y-1.9147
X2.3674Y-1.7372
X2.3745Y-2.6297
X2.4477Y-2.3907
X2.4737Y-2.6301
X2.4781Y-3.2632
X2.5013Y-3.8907
X2.5044Y-1.6407
X2.593Y-2.9151
X2.5934Y-3.0112
X2.6323Y-2.9577
X2.6918Y-2.3907
X2.721Y-2.5317
X2.7214Y-2.5002
X2.8174Y-2.551
X2.8178Y-2.5112
X2.8261Y-2.9116
X2.8568Y-1.7939
X2.8887Y-3.3384
X2.9048Y-3.1407
X2.9273Y-1.3588
X2.9324Y-2.4407
X2.9324Y-2.497
X2.9371Y-3.8151
X2.9552Y-1.7935
X2.9603Y-1.675
X2.9706Y-1.3494
X2.9706Y-3.801
X2.9725Y-2.7191
X2.9753Y-3.4002
X3.0044Y-1.3687
X3.0198Y-3.338
X3.0375Y-3.8246
X3.0379Y-1.3384
X3.0674Y-3.1407
X3.1013Y-3.8907
X3.1765Y-2.7954
X3.2316Y-2.4466
X3.232Y-2.347
X3.2536Y-1.6407
X3.256Y-3.8907
X3.2662Y-2.4521
X3.3403Y-3.0832
X3.3603Y-2.8569
X3.4395Y-2.3907
X3.8151Y-3.1407
X4.0044Y-1.6407
X4.191Y-2.3907
X4.4367Y-3.8234
X4.4375Y-1.3423
X4.4706Y-1.7175
X4.4706Y-3.7939
X4.5044Y-1.3399
X4.5044Y-3.2632
X4.5375Y-3.8096
X4.5379Y-1.3356
X4.5662Y-3.1407
X4.7513Y-1.6407
X4.9391Y-2.3907
X5.034Y-3.8907
X5.3143Y-3.1407
X5.5029Y-1.6407
X5.6899Y-2.3907
X5.9371Y-3.9344
X5.9375Y-1.3399
X5.9706Y-1.7175
X5.9706Y-3.9502
X5.9851Y-3.2632
X6.0044Y-1.3474
X6.0379Y-3.8191
X6.0383Y-1.334
X6.0651Y-3.1407
X6.2544Y-1.6407
X6.4414Y-2.3907
X6.5777Y-3.749
X6.817Y-3.1403
X7.0032Y-1.6407
X7.0056Y-3.8907
X7.1926Y-2.3907
X7.4371Y-1.3545
X7.471Y-1.7175
X7.5044Y-1.3541
X7.5375Y-1.3344
X7.5678Y-3.1407
X7.5781Y-3.8183
X7.6115Y-3.8155
X7.645Y-3.2632
X7.6781Y-3.8199
X7.7544Y-1.6407
X7.9399Y-2.3907
X8.3178Y-3.1407
X8.5013Y-1.6403
X8.5056Y-3.8907
X8.6906Y-2.3907
X8.8918Y-3.3616
X8.9371Y-3.821
X8.9375Y-1.3364
X8.9698Y-3.8199
X8.9706Y-1.7175
X9.0044Y-1.3364
X9.0379Y-1.3356
X9.254Y-1.6407
X9.2564Y-3.8907
X9.3025Y-3.1407
X9.704Y-1.4718
X9.7225Y-3.1407
X9.7233Y-2.3907
X9.9257Y-1.6112
X9.9265Y-1.512
X9.9958Y-1.6608
X10.0064Y-3.8907
X10.2249Y-2.5608
X10.2501Y-1.673
X10.2745Y-2.473
X10.317Y-1.5305
X10.3501Y-2.6285
T3
X1.7125Y-1.3531
X1.7125Y-3.6031
X1.8062Y-2.1031
X1.9625Y-1.2531
X1.9625Y-3.5031
X1.9937Y-2.8531
X2.0562Y-2.0031
X2.2437Y-2.7531
X2.4625Y-1.3531
X2.4625Y-3.6031
X2.65Y-2.1031
X2.65Y-3.6031
X2.7125Y-1.2531
X2.7125Y-3.5031
X2.9Y-2.0031
X2.9Y-3.5031
X3.025Y-2.8531
X3.2125Y-1.3531
X3.2125Y-3.6031
X3.275Y-2.7531
X3.4Y-2.1031
X3.4625Y-1.2531
X3.4625Y-3.5031
X3.5875Y-3.6031
X3.65Y-2.0031
X3.775Y-2.8531
X3.8375Y-3.5031
X3.9625Y-1.3531
X4.025Y-2.7531
X4.15Y-2.1031
X4.2125Y-1.2531
X4.4Y-2.0031
X4.525Y-2.8531
X4.7125Y-1.3531
X4.7125Y-3.6031
X4.775Y-2.7531
X4.9Y-2.1031
X4.9625Y-1.2531
X4.9625Y-3.5031
X4.9937Y-3.6031
X5.15Y-2.0031
X5.2437Y-3.5031
X5.275Y-2.8531
X5.4625Y-1.3531
X5.525Y-2.7531
X5.65Y-2.1031
X5.7125Y-1.2531
X5.8375Y-3.6031
X5.9Y-2.0031
X6.025Y-2.8531
X6.0875Y-3.5031
X6.2125Y-1.3531
X6.275Y-2.7531
X6.4Y-2.1031
X6.4625Y-1.2531
X6.65Y-2.0031
X6.775Y-2.8531
X6.8687Y-3.6031
X6.9625Y-1.3531
X6.9625Y-3.6031
X7.025Y-2.7531
X7.1187Y-3.5031
X7.15Y-2.1031
X7.2125Y-1.2531
X7.2125Y-3.5031
X7.4Y-2.0031
X7.525Y-2.8531
X7.7125Y-1.3531
X7.775Y-2.7531
X7.9Y-2.1031
X7.9625Y-1.2531
X8.0875Y-3.6031
X8.15Y-2.0031
X8.275Y-2.8531
X8.3375Y-3.5031
X8.4625Y-1.3531
X8.4625Y-3.6031
X8.525Y-2.7531
X8.65Y-2.1031
X8.7125Y-1.2531
X8.7125Y-3.5031
X8.9Y-2.0031
X9.025Y-2.8531
X9.025Y-3.6031
X9.2125Y-1.3531
X9.2125Y-3.6031
X9.275Y-2.7531
X9.275Y-3.5031
X9.4625Y-1.2531
X9.4625Y-3.5031
X9.4938Y-2.8531
X9.6813Y-2.1031
X9.7438Y-2.7531
X9.8688Y-2.8531
X9.9313Y-2.0031
X9.9625Y-1.3531
X9.9625Y-3.6031
X10.1188Y-2.7531
X10.2125Y-1.2531
X10.2125Y-3.5031
T4
X3.7375Y-3.9781
X3.7375Y-3.9781
X4.1125Y-3.9781
X4.675Y-3.9781
X5.6125Y-3.9781
X5.6125Y-3.9781
X6.3625Y-3.9781
X6.55Y-3.9781
X7.4875Y-3.9781
X7.8625Y-3.9781
X8.2375Y-3.9781
X8.2375Y-3.9781
X9.175Y-3.2281
X10.1125Y-3.2281
T0
M30
